{"glyphs":{"0":{"ha":1667,"x_min":53,"x_max":1624,"o":"m 1372 938 q 1519 899 1463 938 q 1599 803 1575 861 q 1624 681 1624 744 q 1501 363 1624 522 q 1152 98 1379 203 q 626 -7 925 -7 q 319 33 449 -7 q 122 151 190 74 q 53 336 53 228 q 172 638 53 488 q 485 883 292 788 q 888 979 678 979 q 1059 960 996 979 q 1196 897 1122 940 q 1372 938 1297 938 m 74 336 q 240 128 74 193 q 360 243 294 178 q 644 509 525 401 q 900 721 763 617 q 1160 882 1038 825 q 1052 903 1118 897 q 888 910 986 910 q 506 824 696 910 q 195 605 317 739 q 74 336 74 471 m 626 72 q 1090 153 863 72 q 1460 374 1317 235 q 1603 681 1603 514 q 1533 823 1603 785 q 1372 861 1464 861 q 1059 774 1222 861 q 755 570 896 688 q 428 278 614 453 q 257 121 293 153 q 626 72 394 72 z "},"1":{"ha":1667,"x_min":19,"x_max":1622,"o":"m 1622 944 q 1219 529 1383 715 q 906 133 1054 343 q 1457 19 1157 114 l 1451 6 q 861 69 1182 63 l 810 -6 l 797 1 l 838 71 l 765 71 q 426 56 583 71 q 151 15 268 40 l 147 29 q 482 114 340 89 q 764 139 624 139 q 879 135 819 139 q 1585 938 1129 522 l 1575 949 q 1139 690 1326 775 q 706 562 951 606 q 19 488 461 518 l 19 501 q 953 681 574 564 q 1589 983 1333 797 l 1622 944 z "},"2":{"ha":1667,"x_min":49,"x_max":1628,"o":"m 646 464 q 224 391 378 464 q 69 176 69 318 q 92 100 69 121 q 153 79 114 79 q 248 111 210 79 q 335 207 286 143 q 405 291 374 258 q 483 346 436 324 q 593 368 529 368 q 759 331 678 368 q 961 221 840 294 q 1172 106 1085 144 q 1349 68 1258 68 q 1461 92 1418 68 q 1524 149 1504 117 q 1561 224 1544 181 l 1575 219 q 1494 55 1544 118 q 1342 -8 1444 -8 q 1223 15 1283 -8 q 1109 73 1163 39 q 972 167 1056 107 q 835 263 890 226 q 717 323 779 299 q 592 347 654 347 q 480 319 526 347 q 403 253 433 292 q 339 150 374 214 q 287 67 308 97 q 235 16 265 36 q 164 -4 204 -4 q 78 35 108 -4 q 49 154 49 75 q 235 435 49 358 q 740 511 422 511 q 990 506 818 511 q 1090 503 1035 504 q 1207 501 1146 501 q 1514 538 1421 501 q 1607 654 1607 575 q 1529 790 1607 732 q 1313 878 1451 847 q 997 910 1174 910 q 575 865 771 910 q 264 761 379 819 l 175 979 l 188 986 l 278 801 q 589 931 400 876 q 993 986 778 986 q 1319 944 1175 986 q 1546 826 1464 901 q 1628 654 1628 750 q 1511 494 1628 539 q 1181 449 1394 449 q 900 457 1097 449 q 775 461 857 458 q 646 464 693 464 z "},"3":{"ha":1667,"x_min":65,"x_max":1586,"o":"m 763 -7 q 254 65 443 -7 q 65 278 65 138 q 98 365 65 332 q 164 410 131 399 l 171 397 q 108 352 131 381 q 86 286 86 324 q 181 167 86 215 q 429 96 275 119 q 763 72 583 72 q 1141 103 964 72 q 1430 199 1318 133 q 1542 363 1542 264 q 1474 492 1542 443 q 1290 542 1407 542 q 1178 530 1231 542 q 1056 494 1125 518 q 940 461 986 472 q 842 450 894 450 q 735 475 768 450 q 703 536 703 500 q 774 631 703 593 q 947 689 846 668 q 1207 733 1047 710 q 1476 783 1388 760 q 1565 849 1565 807 q 1419 892 1565 881 q 1089 903 1272 903 q 686 885 826 903 q 496 837 546 868 q 446 757 446 806 q 467 701 446 724 q 528 663 488 679 l 524 649 q 453 692 481 667 q 425 757 425 717 q 504 876 425 826 q 733 953 583 926 q 1089 979 882 979 q 1436 949 1286 979 q 1586 850 1586 919 q 1526 783 1586 811 q 1378 738 1465 756 q 1144 694 1292 719 q 919 654 1001 671 q 781 612 838 638 q 724 550 724 586 q 742 516 724 531 q 814 501 761 501 q 917 514 868 501 q 1042 551 967 526 q 1174 591 1118 578 q 1290 604 1229 604 q 1488 543 1414 604 q 1563 363 1563 482 q 1335 78 1563 163 q 763 -7 1107 -7 z "},"4":{"ha":1667,"x_min":44,"x_max":1632,"o":"m 1365 418 q 1558 368 1501 418 q 1632 235 1614 318 l 1618 231 q 1540 326 1600 297 q 1368 356 1481 356 q 1308 353 1353 356 q 1203 -12 1249 186 l 1190 -7 q 1283 350 1219 160 q 915 300 1174 340 q 503 244 657 263 q 242 225 350 225 q 93 255 142 225 q 44 335 44 285 q 185 497 44 419 q 519 636 326 575 q 1025 783 713 697 q 1419 897 1289 856 q 1596 976 1550 938 l 1628 944 q 1332 417 1460 760 q 1365 418 1344 418 m 214 294 q 506 314 338 294 q 918 368 675 333 q 1306 415 1217 408 q 1435 704 1363 569 q 1593 936 1508 839 l 1585 944 q 1339 826 1514 885 q 856 685 1164 768 q 438 566 594 614 q 173 463 281 518 q 65 349 65 407 q 214 294 65 294 z "},"5":{"ha":1667,"x_min":57,"x_max":1628,"o":"m 806 921 q 603 868 679 921 q 463 721 526 815 q 588 724 540 724 q 1327 633 1082 724 q 1572 358 1572 542 q 1382 76 1572 169 q 850 -17 1192 -17 q 398 45 606 -17 q 57 235 190 107 l 67 244 q 403 110 204 158 q 836 61 603 61 q 1352 133 1153 61 q 1551 358 1551 204 q 1294 597 1551 532 q 574 663 1036 663 q 425 661 471 663 q 356 561 386 599 q 284 499 326 524 q 183 475 242 475 q 101 498 132 475 q 69 558 69 521 q 164 665 69 624 q 435 718 258 707 q 526 855 483 801 q 635 945 569 908 q 793 982 701 982 q 1135 965 885 982 q 1628 928 1385 949 l 1626 914 q 806 921 976 921 m 183 496 q 303 538 254 496 q 400 660 351 579 q 167 631 242 654 q 92 558 92 608 q 118 511 92 526 q 183 496 144 496 z "},"6":{"ha":1667,"x_min":15,"x_max":1621,"o":"m 1289 985 q 1538 935 1456 985 q 1621 804 1621 886 q 1606 742 1621 774 q 1565 672 1592 711 l 1554 681 q 1600 799 1600 747 q 1519 884 1600 860 q 1289 908 1439 908 q 775 811 1029 908 q 359 568 521 714 q 197 286 197 422 q 208 228 197 257 q 658 395 426 331 q 1082 460 890 460 q 1382 407 1271 460 q 1493 260 1493 354 q 1415 119 1493 181 q 1190 24 1338 58 q 843 -10 1043 -10 q 424 44 600 -10 q 196 203 247 97 q 21 113 118 167 l 15 126 q 189 218 110 182 q 176 286 176 250 q 350 600 176 436 q 785 874 524 764 q 1289 985 1047 985 m 1082 411 q 651 364 864 411 q 215 213 439 317 q 411 102 260 136 q 843 68 563 68 q 1308 115 1144 68 q 1472 260 1472 163 q 1384 372 1472 333 q 1082 411 1296 411 z "},"7":{"ha":1667,"x_min":83,"x_max":1642,"o":"m 1642 960 q 1456 719 1601 829 q 1089 504 1311 608 q 1507 376 1307 465 l 1506 363 q 1000 465 1293 429 q 803 381 928 432 q 575 281 656 318 q 442 205 494 243 q 390 131 390 167 q 493 75 390 75 q 728 115 618 75 q 893 199 838 156 l 903 189 q 720 63 829 126 q 506 0 611 0 q 396 33 428 0 q 364 110 364 65 q 428 223 364 169 q 590 322 493 276 q 861 439 688 368 q 940 471 888 449 q 356 499 686 499 l 357 513 q 718 536 557 536 q 1039 513 885 536 q 1410 709 1263 610 q 1613 935 1557 808 l 1597 943 q 1480 874 1560 907 q 1288 819 1400 840 q 1049 799 1176 799 q 812 815 926 799 q 554 860 697 831 q 377 890 439 881 q 260 900 315 900 q 139 883 174 900 q 104 828 104 867 q 193 692 104 768 l 182 682 q 115 751 147 708 q 83 836 83 794 q 131 938 83 896 q 274 979 178 979 q 394 968 321 979 q 590 935 468 957 q 862 890 750 906 q 1063 874 974 874 q 1430 906 1293 874 q 1608 979 1567 938 l 1642 960 z "},"8":{"ha":1667,"x_min":44,"x_max":1622,"o":"m 794 -11 q 391 31 560 -11 q 133 151 222 72 q 44 338 44 229 q 111 513 44 433 q 294 638 178 592 q 550 685 410 685 q 716 667 640 685 q 879 621 792 650 q 969 594 935 603 q 1032 585 1003 585 q 1078 595 1064 585 q 1092 619 1092 606 q 1056 660 1092 644 q 951 692 1021 675 q 803 742 854 717 q 753 817 753 767 q 801 900 753 863 q 935 960 850 938 q 1124 982 1019 982 q 1365 950 1249 982 q 1551 865 1481 918 q 1622 751 1622 813 q 1592 692 1622 713 q 1520 665 1563 671 q 1408 654 1478 658 q 1276 636 1319 649 q 1233 586 1233 624 q 1265 531 1233 554 q 1367 478 1297 508 q 1469 428 1429 450 q 1536 370 1508 406 q 1564 285 1564 335 q 1459 124 1564 190 q 1179 23 1354 57 q 794 -11 1004 -11 m 801 67 q 1307 111 1071 67 q 1543 279 1543 156 q 1499 367 1543 332 q 1369 443 1456 401 q 1251 514 1289 485 q 1213 586 1213 543 q 1263 651 1213 635 q 1411 672 1314 667 q 1553 692 1506 678 q 1601 753 1601 707 q 1457 869 1601 832 q 1108 906 1313 906 q 860 882 946 906 q 774 813 774 858 q 816 758 774 778 q 942 717 858 739 q 1072 673 1029 693 q 1114 617 1114 653 q 1085 574 1114 590 q 1006 558 1057 558 q 893 569 963 558 q 811 581 824 579 q 553 608 636 608 q 344 581 458 608 q 148 494 231 554 q 65 340 65 433 q 283 126 65 186 q 801 67 500 67 z "},"9":{"ha":1667,"x_min":29,"x_max":1626,"o":"m 653 -10 q 333 19 475 -10 q 110 99 190 47 q 29 218 29 150 q 85 344 29 271 l 96 336 q 50 218 50 274 q 222 98 50 128 q 653 68 394 68 q 1174 125 960 68 q 1497 287 1388 182 q 1606 536 1606 392 q 1517 733 1606 650 q 1258 861 1428 817 q 849 906 1088 906 q 392 857 593 906 q 192 688 192 808 q 1390 392 192 410 l 1390 378 l 1324 378 q 467 457 763 378 q 171 688 171 536 q 260 838 171 769 q 503 945 349 906 q 849 985 658 985 q 1253 929 1076 985 q 1528 772 1431 874 q 1626 536 1626 671 q 1502 261 1626 386 q 1156 63 1378 136 q 653 -10 933 -10 z "}," ":{"ha":1667,"x_min":0,"x_max":0,"o":""},"A":{"ha":1667,"x_min":64,"x_max":1656,"o":"m 1626 531 q 1278 367 1493 460 q 1185 136 1185 193 q 1204 94 1185 107 q 1265 82 1224 82 q 1414 122 1346 82 q 1524 210 1482 163 q 1586 292 1567 258 l 1600 286 q 1534 180 1581 246 q 1420 57 1488 114 q 1283 0 1353 0 q 1188 32 1217 0 q 1158 107 1158 64 q 1250 354 1158 182 q 609 101 918 208 q 157 -7 300 -7 q 64 44 64 -7 q 292 262 64 129 q 800 517 521 394 q 1411 772 1079 639 l 1418 760 q 908 542 1225 686 q 354 267 592 397 q 117 92 117 136 q 126 80 117 83 q 158 76 136 76 q 614 170 292 76 q 1272 396 936 264 q 1614 936 1382 589 l 1597 943 q 1383 849 1519 886 q 1060 813 1247 813 q 828 826 942 813 q 564 863 715 839 q 384 890 456 881 q 253 899 313 899 q 104 824 104 899 q 193 685 104 761 l 182 675 q 83 838 83 756 q 132 938 83 897 q 281 979 181 979 q 383 972 324 979 q 549 949 443 964 q 866 906 732 921 q 1142 892 1000 892 q 1444 919 1321 892 q 1606 979 1567 946 l 1656 960 q 1499 730 1614 906 q 1300 406 1385 554 q 1619 543 1461 469 l 1626 531 z "},"Á":{"ha":1667,"x_min":64,"x_max":1642,"o":"m 1510 981 q 1372 928 1442 943 q 1210 914 1303 914 q 996 924 1142 914 l 996 938 q 1300 963 1167 947 q 1504 993 1433 978 l 1510 981 m 1626 531 q 1321 385 1538 483 q 1218 138 1218 208 q 1289 83 1218 83 q 1415 120 1354 83 q 1519 205 1475 157 q 1586 292 1563 253 l 1600 286 q 1465 94 1546 188 q 1289 0 1385 0 q 1215 26 1243 0 q 1186 101 1186 53 q 1290 371 1186 189 q 628 107 950 221 q 157 -7 306 -7 q 64 43 64 -7 q 181 178 64 100 q 497 340 299 257 q 933 492 696 422 l 939 475 q 543 338 733 417 q 235 191 353 260 q 117 92 117 122 q 126 80 117 83 q 158 76 136 76 q 634 176 297 76 q 1314 411 971 275 q 1600 818 1424 596 l 1583 825 q 1360 751 1507 781 q 1017 722 1214 722 q 806 731 913 722 q 546 758 700 740 q 422 772 525 761 q 251 783 318 783 q 131 765 171 783 q 90 706 90 746 q 179 567 90 643 l 168 557 q 69 719 69 638 q 119 822 69 781 q 278 863 168 863 q 385 856 317 863 q 528 842 453 850 q 824 813 692 824 q 1092 801 956 801 q 1417 820 1288 801 q 1592 861 1546 839 l 1642 842 q 1343 424 1464 622 q 1619 543 1507 490 l 1626 531 z "},"Ă":{"ha":1667,"x_min":64,"x_max":1642,"o":"m 1196 903 q 953 927 1036 903 q 847 979 871 951 l 858 989 q 974 956 901 968 q 1196 944 1047 944 q 1449 953 1374 944 q 1561 983 1524 961 l 1572 974 q 1454 925 1543 947 q 1196 903 1365 903 m 1626 531 q 1321 385 1538 483 q 1218 138 1218 208 q 1289 83 1218 83 q 1415 120 1354 83 q 1519 205 1475 157 q 1586 292 1563 253 l 1600 286 q 1465 94 1546 188 q 1289 0 1385 0 q 1215 26 1243 0 q 1186 101 1186 53 q 1290 371 1186 189 q 628 107 950 221 q 157 -7 306 -7 q 64 43 64 -7 q 181 178 64 100 q 497 340 299 257 q 933 492 696 422 l 939 475 q 543 338 733 417 q 235 191 353 260 q 117 92 117 122 q 126 80 117 83 q 158 76 136 76 q 634 176 297 76 q 1314 411 971 275 q 1600 818 1424 596 l 1583 825 q 1360 751 1507 781 q 1017 722 1214 722 q 806 731 913 722 q 546 758 700 740 q 422 772 525 761 q 251 783 318 783 q 131 765 171 783 q 90 706 90 746 q 179 567 90 643 l 168 557 q 69 719 69 638 q 119 822 69 781 q 278 863 168 863 q 385 856 317 863 q 528 842 453 850 q 824 813 692 824 q 1092 801 956 801 q 1417 820 1288 801 q 1592 861 1546 839 l 1642 842 q 1343 424 1464 622 q 1619 543 1507 490 l 1626 531 z "},"Â":{"ha":1667,"x_min":64,"x_max":1642,"o":"m 1221 951 q 1093 936 1185 951 q 1019 926 1081 935 q 907 917 957 917 q 851 921 876 917 l 851 935 q 956 943 908 935 q 1072 968 1003 951 q 1160 988 1129 982 q 1221 993 1190 993 q 1292 985 1251 993 q 1374 968 1333 978 q 1590 935 1504 935 l 1590 921 q 1535 917 1565 917 q 1332 938 1469 917 q 1221 951 1256 951 m 1626 531 q 1321 385 1538 483 q 1218 138 1218 208 q 1289 83 1218 83 q 1415 120 1354 83 q 1519 205 1475 157 q 1586 292 1563 253 l 1600 286 q 1465 94 1546 188 q 1289 0 1385 0 q 1215 26 1243 0 q 1186 101 1186 53 q 1290 371 1186 189 q 628 107 950 221 q 157 -7 306 -7 q 64 43 64 -7 q 181 178 64 100 q 497 340 299 257 q 933 492 696 422 l 939 475 q 543 338 733 417 q 235 191 353 260 q 117 92 117 122 q 126 80 117 83 q 158 76 136 76 q 634 176 297 76 q 1314 411 971 275 q 1600 818 1424 596 l 1583 825 q 1360 751 1507 781 q 1017 722 1214 722 q 806 731 913 722 q 546 758 700 740 q 422 772 525 761 q 251 783 318 783 q 131 765 171 783 q 90 706 90 746 q 179 567 90 643 l 168 557 q 69 719 69 638 q 119 822 69 781 q 278 863 168 863 q 385 856 317 863 q 528 842 453 850 q 824 813 692 824 q 1092 801 956 801 q 1417 820 1288 801 q 1592 861 1546 839 l 1642 842 q 1343 424 1464 622 q 1619 543 1507 490 l 1626 531 z "},"Ä":{"ha":1667,"x_min":64,"x_max":1642,"o":"m 894 888 q 842 900 861 888 q 824 939 824 913 q 844 993 824 965 l 858 990 l 858 978 q 921 931 858 931 q 980 939 951 931 q 1054 965 1008 947 l 1061 953 q 894 888 964 888 m 1371 888 q 1319 900 1338 888 q 1300 939 1300 913 q 1321 993 1300 965 l 1335 990 l 1335 978 q 1351 943 1335 956 q 1397 931 1367 931 q 1456 939 1428 931 q 1531 965 1485 947 l 1538 953 q 1371 888 1440 888 m 1626 531 q 1321 385 1538 483 q 1218 138 1218 208 q 1289 83 1218 83 q 1415 120 1354 83 q 1519 205 1475 157 q 1586 292 1563 253 l 1600 286 q 1465 94 1546 188 q 1289 0 1385 0 q 1215 26 1243 0 q 1186 101 1186 53 q 1290 371 1186 189 q 628 107 950 221 q 157 -7 306 -7 q 64 43 64 -7 q 181 178 64 100 q 497 340 299 257 q 933 492 696 422 l 939 475 q 543 338 733 417 q 235 191 353 260 q 117 92 117 122 q 126 80 117 83 q 158 76 136 76 q 634 176 297 76 q 1314 411 971 275 q 1600 818 1424 596 l 1583 825 q 1360 751 1507 781 q 1017 722 1214 722 q 806 731 913 722 q 546 758 700 740 q 422 772 525 761 q 251 783 318 783 q 131 765 171 783 q 90 706 90 746 q 179 567 90 643 l 168 557 q 69 719 69 638 q 119 822 69 781 q 278 863 168 863 q 385 856 317 863 q 528 842 453 850 q 824 813 692 824 q 1092 801 956 801 q 1417 820 1288 801 q 1592 861 1546 839 l 1642 842 q 1343 424 1464 622 q 1619 543 1507 490 l 1626 531 z "},"À":{"ha":1667,"x_min":64,"x_max":1642,"o":"m 1392 924 q 1178 914 1246 914 q 1015 928 1085 914 q 878 981 946 943 l 883 993 q 1088 963 954 978 q 1392 938 1221 947 l 1392 924 m 1626 531 q 1321 385 1538 483 q 1218 138 1218 208 q 1289 83 1218 83 q 1415 120 1354 83 q 1519 205 1475 157 q 1586 292 1563 253 l 1600 286 q 1465 94 1546 188 q 1289 0 1385 0 q 1215 26 1243 0 q 1186 101 1186 53 q 1290 371 1186 189 q 628 107 950 221 q 157 -7 306 -7 q 64 43 64 -7 q 181 178 64 100 q 497 340 299 257 q 933 492 696 422 l 939 475 q 543 338 733 417 q 235 191 353 260 q 117 92 117 122 q 126 80 117 83 q 158 76 136 76 q 634 176 297 76 q 1314 411 971 275 q 1600 818 1424 596 l 1583 825 q 1360 751 1507 781 q 1017 722 1214 722 q 806 731 913 722 q 546 758 700 740 q 422 772 525 761 q 251 783 318 783 q 131 765 171 783 q 90 706 90 746 q 179 567 90 643 l 168 557 q 69 719 69 638 q 119 822 69 781 q 278 863 168 863 q 385 856 317 863 q 528 842 453 850 q 824 813 692 824 q 1092 801 956 801 q 1417 820 1288 801 q 1592 861 1546 839 l 1642 842 q 1343 424 1464 622 q 1619 543 1507 490 l 1626 531 z "},"Ā":{"ha":1667,"x_min":64,"x_max":1642,"o":"m 1493 961 q 1344 940 1406 946 q 1219 935 1283 935 q 899 953 1124 935 l 899 967 q 1314 982 1196 982 q 1490 975 1368 982 l 1493 961 m 1626 531 q 1321 385 1538 483 q 1218 138 1218 208 q 1289 83 1218 83 q 1415 120 1354 83 q 1519 205 1475 157 q 1586 292 1563 253 l 1600 286 q 1465 94 1546 188 q 1289 0 1385 0 q 1215 26 1243 0 q 1186 101 1186 53 q 1290 371 1186 189 q 628 107 950 221 q 157 -7 306 -7 q 64 43 64 -7 q 181 178 64 100 q 497 340 299 257 q 933 492 696 422 l 939 475 q 543 338 733 417 q 235 191 353 260 q 117 92 117 122 q 126 80 117 83 q 158 76 136 76 q 634 176 297 76 q 1314 411 971 275 q 1600 818 1424 596 l 1583 825 q 1360 751 1507 781 q 1017 722 1214 722 q 806 731 913 722 q 546 758 700 740 q 422 772 525 761 q 251 783 318 783 q 131 765 171 783 q 90 706 90 746 q 179 567 90 643 l 168 557 q 69 719 69 638 q 119 822 69 781 q 278 863 168 863 q 385 856 317 863 q 528 842 453 850 q 824 813 692 824 q 1092 801 956 801 q 1417 820 1288 801 q 1592 861 1546 839 l 1642 842 q 1343 424 1464 622 q 1619 543 1507 490 l 1626 531 z "},"Ą":{"ha":1667,"x_min":64,"x_max":1656,"o":"m 1410 201 q 1336 231 1363 201 q 1299 135 1299 185 q 1329 65 1299 89 q 1415 42 1360 42 q 1477 52 1449 42 q 1550 93 1506 63 l 1563 85 q 1481 11 1521 36 q 1394 -14 1442 -14 q 1306 21 1339 -14 q 1272 110 1272 56 q 1325 244 1272 181 q 1306 324 1306 275 q 1313 381 1306 354 q 638 110 968 228 q 157 -7 308 -7 q 64 44 64 -7 q 292 262 64 129 q 800 517 521 394 q 1411 772 1079 639 l 1418 760 q 908 542 1225 686 q 354 267 592 397 q 117 92 117 136 q 126 80 117 83 q 158 76 136 76 q 637 177 297 76 q 1319 414 976 278 q 1613 940 1374 606 l 1596 947 q 1384 850 1519 888 q 1057 813 1249 813 q 835 825 942 813 q 565 861 728 838 q 379 888 447 879 q 253 896 311 896 q 141 879 178 896 q 104 824 104 863 q 193 685 104 761 l 182 675 q 83 838 83 756 q 132 938 83 897 q 281 979 181 979 q 397 970 324 979 q 550 949 469 961 q 867 906 735 921 q 1139 892 999 892 q 1443 919 1321 892 q 1606 979 1565 946 l 1656 960 q 1472 697 1567 858 q 1344 424 1378 536 q 1619 543 1497 486 l 1626 531 q 1338 392 1563 496 q 1332 350 1332 371 q 1421 271 1332 271 q 1537 306 1486 271 q 1640 406 1588 340 l 1653 397 q 1533 253 1590 306 q 1410 201 1475 201 z "},"Å":{"ha":1667,"x_min":64,"x_max":1642,"o":"m 1192 833 q 1123 857 1150 833 q 1096 913 1096 881 q 1117 970 1096 947 q 1171 993 1139 993 q 1243 965 1215 993 q 1282 900 1271 936 l 1269 896 q 1171 947 1240 947 q 1115 913 1115 947 q 1138 887 1115 897 q 1192 876 1160 876 q 1272 894 1256 876 l 1283 889 q 1247 849 1272 864 q 1192 833 1221 833 m 1626 531 q 1321 385 1538 483 q 1218 138 1218 208 q 1289 83 1218 83 q 1415 120 1354 83 q 1519 205 1475 157 q 1586 292 1563 253 l 1600 286 q 1465 94 1546 188 q 1289 0 1385 0 q 1215 26 1243 0 q 1186 101 1186 53 q 1290 371 1186 189 q 628 107 950 221 q 157 -7 306 -7 q 64 43 64 -7 q 181 178 64 100 q 497 340 299 257 q 933 492 696 422 l 939 475 q 543 338 733 417 q 235 191 353 260 q 117 92 117 122 q 126 80 117 83 q 158 76 136 76 q 634 176 297 76 q 1314 411 971 275 q 1600 818 1424 596 l 1583 825 q 1360 751 1507 781 q 1017 722 1214 722 q 806 731 913 722 q 546 758 700 740 q 422 772 525 761 q 251 783 318 783 q 131 765 171 783 q 90 706 90 746 q 179 567 90 643 l 168 557 q 69 719 69 638 q 119 822 69 781 q 278 863 168 863 q 385 856 317 863 q 528 842 453 850 q 824 813 692 824 q 1092 801 956 801 q 1417 820 1288 801 q 1592 861 1546 839 l 1642 842 q 1343 424 1464 622 q 1619 543 1507 490 l 1626 531 z "},"Ã":{"ha":1667,"x_min":64,"x_max":1642,"o":"m 947 957 q 831 939 886 957 q 738 896 775 921 l 728 910 q 840 969 781 944 q 947 993 900 993 q 1013 986 983 993 q 1082 967 1043 979 q 1166 944 1128 951 q 1253 936 1204 936 q 1401 953 1335 936 q 1508 993 1468 969 l 1517 978 q 1483 956 1515 978 q 1382 910 1450 933 q 1251 886 1314 886 q 1163 895 1199 886 q 1083 924 1128 904 q 1013 949 1040 942 q 947 957 986 957 m 1626 531 q 1321 385 1538 483 q 1218 138 1218 208 q 1289 83 1218 83 q 1415 120 1354 83 q 1519 205 1475 157 q 1586 292 1563 253 l 1600 286 q 1465 94 1546 188 q 1289 0 1385 0 q 1215 26 1243 0 q 1186 101 1186 53 q 1290 371 1186 189 q 628 107 950 221 q 157 -7 306 -7 q 64 43 64 -7 q 181 178 64 100 q 497 340 299 257 q 933 492 696 422 l 939 475 q 543 338 733 417 q 235 191 353 260 q 117 92 117 122 q 126 80 117 83 q 158 76 136 76 q 634 176 297 76 q 1314 411 971 275 q 1600 818 1424 596 l 1583 825 q 1360 751 1507 781 q 1017 722 1214 722 q 806 731 913 722 q 546 758 700 740 q 422 772 525 761 q 251 783 318 783 q 131 765 171 783 q 90 706 90 746 q 179 567 90 643 l 168 557 q 69 719 69 638 q 119 822 69 781 q 278 863 168 863 q 385 856 317 863 q 528 842 453 850 q 824 813 692 824 q 1092 801 956 801 q 1417 820 1288 801 q 1592 861 1546 839 l 1642 842 q 1343 424 1464 622 q 1619 543 1507 490 l 1626 531 z "},"Æ":{"ha":1667,"x_min":64,"x_max":1622,"o":"m 1178 69 q 1410 111 1321 69 q 1579 246 1500 153 l 1592 239 q 1417 60 1525 126 q 1179 -7 1310 -7 q 1026 20 1111 -7 q 879 115 940 47 q 523 25 701 57 q 215 -7 344 -7 q 101 8 139 -7 q 64 61 64 22 q 252 265 64 150 q 771 524 440 381 l 775 513 q 290 265 464 368 q 117 101 117 161 q 144 72 117 82 q 244 63 171 63 q 526 87 365 63 q 849 157 686 111 q 797 356 797 238 q 829 514 797 449 q 913 613 861 579 q 1028 646 965 646 q 1099 633 1069 646 q 1169 592 1129 619 q 1231 554 1204 567 q 1293 542 1257 542 q 1352 557 1332 542 q 1372 593 1372 572 q 1356 626 1372 614 q 1306 654 1340 638 q 1220 710 1250 681 q 1190 797 1190 739 q 1217 892 1190 849 q 1289 960 1243 935 q 1389 986 1335 986 q 1506 956 1453 986 q 1591 868 1560 925 q 1622 735 1622 811 q 1426 391 1622 546 q 928 131 1231 236 q 1178 69 1018 69 m 182 675 q 113 748 142 707 q 83 836 83 789 q 131 936 83 893 q 268 979 178 979 q 372 970 311 979 q 542 940 432 961 q 805 897 693 913 q 1017 881 917 881 q 1135 888 1075 881 l 1138 874 q 840 839 994 839 q 485 872 699 839 q 349 890 401 885 q 250 896 296 896 q 104 824 104 896 q 193 685 104 761 l 182 675 m 818 357 q 885 167 818 240 q 1399 400 1194 258 q 1603 719 1603 542 q 1540 865 1603 821 q 1385 910 1478 910 q 1258 877 1304 910 q 1211 797 1211 844 q 1233 743 1211 763 q 1299 703 1256 724 q 1370 658 1347 679 q 1393 596 1393 636 q 1367 524 1393 556 q 1286 492 1342 492 q 1225 503 1253 492 q 1160 538 1197 514 q 1088 574 1118 561 q 1021 586 1058 586 q 924 562 971 586 q 848 486 878 538 q 818 357 818 435 z "},"B":{"ha":1667,"x_min":21,"x_max":1619,"o":"m 946 550 q 1008 478 946 503 q 1201 425 1071 453 q 1403 374 1326 399 q 1536 302 1481 349 q 1592 181 1592 256 q 1497 37 1592 81 q 1271 -7 1403 -7 q 1051 21 1161 -7 q 843 89 940 49 q 613 192 746 129 l 521 233 q 283 -7 429 -7 q 198 26 228 -7 q 168 111 168 58 q 250 332 168 203 q 164 342 207 342 q 73 322 104 342 q 42 265 42 301 q 51 228 42 247 q 82 181 60 210 l 72 172 q 33 224 44 203 q 21 271 21 244 q 64 360 21 322 q 183 397 107 397 q 283 383 224 397 q 424 550 342 467 q 603 707 506 633 q 622 992 621 857 l 636 992 q 633 892 636 969 q 619 719 629 815 q 960 907 781 838 q 1319 976 1139 976 q 1546 927 1472 976 q 1619 797 1619 878 q 1563 688 1619 724 q 1426 642 1506 651 q 1217 628 1346 632 q 1013 611 1079 625 q 946 550 946 597 m 1571 175 q 1497 259 1571 224 q 1271 344 1424 294 q 1090 406 1160 379 q 973 469 1021 433 q 925 551 925 506 q 967 615 925 593 q 1072 644 1010 636 q 1242 656 1135 651 q 1430 670 1360 661 q 1549 706 1500 679 q 1599 788 1599 733 q 1537 872 1599 847 q 1361 896 1475 896 q 967 833 1157 896 q 614 664 776 769 q 539 290 585 433 l 597 265 q 969 121 811 172 q 1282 69 1128 69 q 1481 96 1392 69 q 1571 175 1571 122 m 596 651 q 300 379 419 533 q 514 301 372 361 q 596 651 565 442 m 274 42 q 493 246 403 42 q 264 329 353 308 q 189 129 189 214 q 274 42 189 42 z "},"C":{"ha":1667,"x_min":57,"x_max":1635,"o":"m 453 -21 q 157 38 257 -21 q 57 208 57 97 q 244 549 57 368 q 700 853 432 731 q 1186 976 968 976 q 1378 933 1315 976 q 1440 828 1440 890 q 1324 664 1440 740 q 1013 533 1208 588 l 1006 546 q 1212 624 1118 578 q 1360 718 1306 669 q 1414 808 1414 767 q 1352 874 1414 854 q 1199 893 1290 893 q 690 779 953 893 q 253 503 428 665 q 78 215 78 342 q 166 97 78 132 q 446 63 254 63 q 1143 189 842 63 q 1622 549 1444 315 l 1635 539 q 1329 253 1522 381 q 905 52 1136 125 q 453 -21 674 -21 z "},"Ć":{"ha":1667,"x_min":57,"x_max":1635,"o":"m 915 938 q 1219 963 1086 947 q 1424 993 1353 978 l 1429 981 q 1292 928 1361 943 q 1129 914 1222 914 q 915 924 1061 914 l 915 938 m 453 -21 q 157 38 257 -21 q 57 208 57 97 q 242 517 57 365 q 691 765 426 669 q 1171 861 956 861 q 1376 819 1313 861 q 1440 713 1440 776 q 1328 550 1440 626 q 1013 418 1215 474 l 1006 431 q 1212 508 1118 463 q 1360 603 1306 554 q 1414 694 1414 653 q 1188 778 1414 778 q 688 692 949 778 q 252 475 426 607 q 78 217 78 343 q 166 97 78 132 q 446 63 254 63 q 1143 189 842 63 q 1622 549 1444 315 l 1635 539 q 1329 253 1522 381 q 905 52 1136 125 q 453 -21 674 -21 z "},"Č":{"ha":1667,"x_min":57,"x_max":1635,"o":"m 1171 910 q 1110 915 1140 910 q 1022 935 1079 921 q 906 960 953 951 q 801 968 858 968 l 801 982 q 857 986 826 986 q 969 977 907 986 q 1043 967 1031 968 q 1171 951 1135 951 q 1282 965 1206 951 q 1485 986 1419 986 q 1540 982 1515 986 l 1540 968 q 1324 935 1454 968 q 1242 917 1283 925 q 1171 910 1201 910 m 453 -21 q 157 38 257 -21 q 57 208 57 97 q 242 517 57 365 q 691 765 426 669 q 1171 861 956 861 q 1376 819 1313 861 q 1440 713 1440 776 q 1328 550 1440 626 q 1013 418 1215 474 l 1006 431 q 1212 508 1118 463 q 1360 603 1306 554 q 1414 694 1414 653 q 1188 778 1414 778 q 688 692 949 778 q 252 475 426 607 q 78 217 78 343 q 166 97 78 132 q 446 63 254 63 q 1143 189 842 63 q 1622 549 1444 315 l 1635 539 q 1329 253 1522 381 q 905 52 1136 125 q 453 -21 674 -21 z "},"Ç":{"ha":1667,"x_min":57,"x_max":1635,"o":"m 1635 664 q 1360 399 1532 519 q 982 203 1189 279 q 568 110 775 128 q 607 51 607 83 q 465 -17 607 -19 l 464 -1 q 558 61 558 3 q 538 107 558 89 q 453 104 482 104 q 157 163 257 104 q 57 333 57 222 q 242 642 57 490 q 691 890 426 794 q 1171 986 956 986 q 1376 944 1313 986 q 1440 838 1440 901 q 1328 675 1440 751 q 1013 543 1215 599 l 1006 556 q 1212 633 1118 588 q 1360 728 1306 679 q 1414 819 1414 778 q 1188 903 1414 903 q 688 817 949 903 q 252 600 426 732 q 78 342 78 468 q 166 222 78 257 q 446 188 254 188 q 1143 314 842 188 q 1622 674 1444 440 l 1635 664 z "},"Ċ":{"ha":1667,"x_min":57,"x_max":1635,"o":"m 728 861 q 678 879 697 861 q 658 925 658 897 q 679 975 658 957 q 733 993 700 993 q 799 950 775 993 l 807 972 l 821 968 q 816 949 819 961 q 808 928 813 936 q 822 867 817 904 l 808 864 q 797 904 803 892 q 728 861 772 861 m 724 951 q 690 944 703 951 q 678 925 678 938 q 690 906 678 913 q 721 900 703 900 q 783 926 761 900 q 724 951 763 951 m 1635 539 q 1329 253 1522 381 q 905 52 1136 125 q 453 -21 674 -21 q 157 38 257 -21 q 57 208 57 97 q 242 517 57 365 q 691 765 426 669 q 1171 861 956 861 q 1376 819 1313 861 q 1440 713 1440 776 q 1328 550 1440 626 q 1013 418 1215 474 l 1006 431 q 1212 508 1118 463 q 1360 603 1306 554 q 1414 694 1414 653 q 1188 778 1414 778 q 688 692 949 778 q 252 475 426 607 q 78 217 78 343 q 166 97 78 132 q 446 63 254 63 q 1143 189 842 63 q 1622 549 1444 315 l 1635 539 z "},"D":{"ha":1667,"x_min":21,"x_max":1589,"o":"m 983 965 q 1292 885 1153 965 q 1510 669 1431 806 q 1589 371 1589 533 q 1132 -7 1589 -7 q 761 46 958 -7 q 363 199 564 99 q 285 49 328 104 q 194 -7 242 -7 q 121 138 121 -7 q 149 319 121 228 q 21 407 78 365 l 26 421 q 156 340 83 381 q 251 537 189 442 q 399 711 314 632 q 351 845 383 783 q 268 969 318 907 l 281 979 q 363 855 331 915 q 414 725 396 794 q 683 901 535 836 q 983 965 831 965 m 1124 69 q 1469 153 1371 69 q 1568 376 1568 238 q 1492 630 1568 513 q 1282 818 1415 747 q 989 889 1149 889 q 694 827 840 889 q 426 661 549 765 q 432 572 432 624 q 417 404 432 494 q 375 233 401 314 q 762 111 567 153 q 1124 69 957 69 m 408 646 q 269 493 329 575 q 176 329 210 411 q 354 242 261 283 q 397 408 382 317 q 411 578 411 499 q 408 646 411 601 m 200 63 q 278 102 242 63 q 342 208 314 142 q 168 307 275 243 q 142 164 142 231 q 200 63 142 63 z "},"Ð":{"ha":1667,"x_min":8,"x_max":1589,"o":"m 985 967 q 1292 886 1154 967 q 1510 670 1431 806 q 1589 381 1589 535 q 1470 90 1589 193 q 1138 -14 1351 -14 q 894 21 1015 -14 q 596 128 774 56 l 603 144 q 890 77 769 100 q 1124 54 1010 54 q 1451 142 1335 54 q 1568 389 1568 231 q 1491 633 1568 518 q 1279 817 1414 747 q 982 886 1144 886 q 751 849 865 886 q 533 747 636 813 q 615 465 615 615 q 563 231 615 340 q 427 58 511 122 q 253 -7 343 -7 q 156 32 190 -7 q 121 163 121 71 q 167 381 121 265 q 61 385 113 385 q 8 383 25 385 l 10 399 q 125 404 76 404 q 176 403 158 404 q 303 607 224 508 q 483 782 382 706 q 271 967 401 890 l 281 979 q 499 794 417 897 q 734 921 610 875 q 985 967 858 967 m 594 471 q 517 736 594 610 q 336 582 417 669 q 206 401 256 494 q 486 339 368 392 l 479 322 q 193 376 310 364 q 142 174 142 269 q 166 88 142 114 q 247 63 190 63 q 418 115 338 63 q 547 262 499 168 q 594 471 594 356 z "},"Ď":{"ha":1667,"x_min":21,"x_max":1589,"o":"m 1339 968 q 1122 935 1253 968 q 1041 917 1082 925 q 969 910 1000 910 q 908 915 939 910 q 821 935 878 921 q 704 960 751 951 q 600 968 657 968 l 600 982 q 656 986 625 986 q 767 977 706 986 q 842 967 829 968 q 969 951 933 951 q 1081 965 1004 951 q 1283 986 1218 986 q 1339 982 1314 986 l 1339 968 m 969 861 q 1288 788 1147 861 q 1509 592 1429 715 q 1589 321 1589 468 q 1481 75 1589 157 q 1144 -7 1372 -7 q 763 45 963 -7 q 363 199 564 97 q 285 49 328 104 q 194 -7 242 -7 q 121 136 121 -7 q 151 318 121 226 q 21 407 83 361 l 26 421 q 158 339 69 392 q 257 514 193 431 q 406 663 321 597 q 360 825 394 753 q 268 969 326 897 l 281 979 q 374 835 338 907 q 424 676 410 763 q 683 813 542 764 q 969 861 825 861 m 1133 69 q 1472 140 1375 69 q 1568 329 1568 210 q 1491 553 1568 447 q 1278 722 1414 658 q 975 785 1142 785 q 690 738 832 785 q 431 608 549 690 q 432 572 432 597 q 417 404 432 494 q 375 233 401 314 q 757 111 563 153 q 1133 69 951 69 m 411 594 q 273 468 332 536 q 181 326 214 400 q 354 242 283 272 q 397 408 382 317 q 411 578 411 500 l 411 594 m 200 63 q 278 102 242 63 q 342 208 314 142 q 171 306 271 244 q 142 161 142 229 q 200 63 142 63 z "},"Đ":{"ha":1667,"x_min":8,"x_max":1589,"o":"m 985 967 q 1292 886 1154 967 q 1510 670 1431 806 q 1589 381 1589 535 q 1470 90 1589 193 q 1138 -14 1351 -14 q 894 21 1015 -14 q 596 128 774 56 l 603 144 q 890 77 769 100 q 1124 54 1010 54 q 1451 142 1335 54 q 1568 389 1568 231 q 1491 633 1568 518 q 1279 817 1414 747 q 982 886 1144 886 q 751 849 865 886 q 533 747 636 813 q 615 465 615 615 q 563 231 615 340 q 427 58 511 122 q 253 -7 343 -7 q 156 32 190 -7 q 121 163 121 71 q 167 381 121 265 q 61 385 113 385 q 8 383 25 385 l 10 399 q 125 404 76 404 q 176 403 158 404 q 303 607 224 508 q 483 782 382 706 q 271 967 401 890 l 281 979 q 499 794 417 897 q 734 921 610 875 q 985 967 858 967 m 594 471 q 517 736 594 610 q 336 582 417 669 q 206 401 256 494 q 486 339 368 392 l 479 322 q 193 376 310 364 q 142 174 142 269 q 166 88 142 114 q 247 63 190 63 q 418 115 338 63 q 547 262 499 168 q 594 471 594 356 z "},"E":{"ha":1667,"x_min":35,"x_max":1607,"o":"m 872 -7 q 287 71 539 -7 q 35 371 35 149 q 101 561 35 479 q 277 686 168 643 q 511 729 386 729 q 728 694 631 729 q 946 596 825 660 q 1089 528 1033 550 q 1200 506 1144 506 q 1258 517 1239 506 q 1276 546 1276 529 q 1244 585 1276 569 q 1138 622 1211 600 q 1015 663 1063 644 q 934 715 968 682 q 900 794 900 747 q 943 892 900 847 q 1060 961 986 936 q 1221 986 1133 986 q 1453 933 1354 986 q 1607 817 1553 879 l 1599 804 q 1442 878 1538 847 q 1219 910 1347 910 q 1065 894 1133 910 q 959 853 997 879 q 921 796 921 826 q 960 744 921 764 q 1081 700 999 724 q 1194 662 1151 679 q 1267 616 1236 644 q 1297 546 1297 588 q 1274 481 1297 513 q 1181 450 1250 450 q 1076 469 1126 450 q 938 532 1026 489 q 726 624 821 592 q 508 656 631 656 q 278 617 382 656 q 115 510 175 578 q 56 364 56 443 q 266 142 56 214 q 854 69 476 69 q 1244 94 1081 69 q 1494 166 1408 119 q 1581 276 1581 213 q 1559 334 1581 307 q 1496 379 1538 361 l 1503 392 q 1601 263 1601 351 q 1533 128 1601 189 q 1301 31 1464 68 q 872 -7 1139 -7 z "},"É":{"ha":1667,"x_min":35,"x_max":1607,"o":"m 965 938 q 1269 963 1136 947 q 1474 993 1403 978 l 1479 981 q 1342 928 1411 943 q 1179 914 1272 914 q 965 924 1111 914 l 965 938 m 844 -7 q 282 60 529 -7 q 35 325 35 126 q 93 485 35 414 q 253 595 151 556 q 478 635 354 635 q 645 614 565 635 q 788 565 725 593 q 939 490 851 536 q 1088 417 1031 440 q 1200 394 1144 394 q 1258 406 1240 394 q 1276 436 1276 418 q 1247 474 1276 460 q 1149 511 1217 489 q 1036 552 1081 533 q 960 603 992 571 q 928 682 928 636 q 967 775 928 735 q 1075 838 1007 815 q 1224 861 1143 861 q 1453 808 1354 861 q 1607 692 1551 756 l 1599 679 q 1442 753 1538 722 q 1218 785 1346 785 q 1074 770 1135 785 q 981 732 1013 756 q 949 682 949 708 q 983 634 949 653 q 1093 590 1018 615 q 1199 552 1158 569 q 1268 506 1239 535 q 1297 435 1297 476 q 1274 370 1297 401 q 1182 339 1250 339 q 1074 360 1128 339 q 932 425 1019 381 q 785 494 847 468 q 643 540 724 521 q 474 558 563 558 q 261 526 357 558 q 110 438 165 493 q 56 318 56 382 q 267 131 56 193 q 842 69 479 69 q 1242 94 1076 69 q 1494 166 1408 119 q 1581 276 1581 213 q 1559 334 1581 307 q 1496 379 1538 361 l 1503 392 q 1576 341 1550 372 q 1601 261 1601 310 q 1428 68 1601 143 q 844 -7 1256 -7 z "},"Ě":{"ha":1667,"x_min":35,"x_max":1607,"o":"m 1224 910 q 1163 915 1193 910 q 1075 935 1132 921 q 958 960 1006 951 q 854 968 911 968 l 854 982 q 910 986 879 986 q 1022 977 960 986 q 1096 967 1083 968 q 1224 951 1188 951 q 1335 965 1258 951 q 1538 986 1472 986 q 1593 982 1568 986 l 1593 968 q 1376 935 1507 968 q 1295 917 1336 925 q 1224 910 1254 910 m 844 -7 q 282 60 529 -7 q 35 325 35 126 q 93 485 35 414 q 253 595 151 556 q 478 635 354 635 q 645 614 565 635 q 788 565 725 593 q 939 490 851 536 q 1088 417 1031 440 q 1200 394 1144 394 q 1258 406 1240 394 q 1276 436 1276 418 q 1247 474 1276 460 q 1149 511 1217 489 q 1036 552 1081 533 q 960 603 992 571 q 928 682 928 636 q 967 775 928 735 q 1075 838 1007 815 q 1224 861 1143 861 q 1453 808 1354 861 q 1607 692 1551 756 l 1599 679 q 1442 753 1538 722 q 1218 785 1346 785 q 1074 770 1135 785 q 981 732 1013 756 q 949 682 949 708 q 983 634 949 653 q 1093 590 1018 615 q 1199 552 1158 569 q 1268 506 1239 535 q 1297 435 1297 476 q 1274 370 1297 401 q 1182 339 1250 339 q 1074 360 1128 339 q 932 425 1019 381 q 785 494 847 468 q 643 540 724 521 q 474 558 563 558 q 261 526 357 558 q 110 438 165 493 q 56 318 56 382 q 267 131 56 193 q 842 69 479 69 q 1242 94 1076 69 q 1494 166 1408 119 q 1581 276 1581 213 q 1559 334 1581 307 q 1496 379 1538 361 l 1503 392 q 1576 341 1550 372 q 1601 261 1601 310 q 1428 68 1601 143 q 844 -7 1256 -7 z "},"Ê":{"ha":1667,"x_min":35,"x_max":1607,"o":"m 865 935 q 969 943 922 935 q 1086 968 1017 951 q 1174 988 1143 982 q 1235 993 1204 993 q 1306 985 1265 993 q 1388 968 1347 978 q 1604 935 1518 935 l 1604 921 q 1549 917 1579 917 q 1346 938 1483 917 q 1235 951 1269 951 q 1107 936 1199 951 q 1033 926 1094 935 q 921 917 971 917 q 865 921 890 917 l 865 935 m 844 -7 q 282 60 529 -7 q 35 325 35 126 q 93 485 35 414 q 253 595 151 556 q 478 635 354 635 q 645 614 565 635 q 788 565 725 593 q 939 490 851 536 q 1088 417 1031 440 q 1200 394 1144 394 q 1258 406 1240 394 q 1276 436 1276 418 q 1247 474 1276 460 q 1149 511 1217 489 q 1036 552 1081 533 q 960 603 992 571 q 928 682 928 636 q 967 775 928 735 q 1075 838 1007 815 q 1224 861 1143 861 q 1453 808 1354 861 q 1607 692 1551 756 l 1599 679 q 1442 753 1538 722 q 1218 785 1346 785 q 1074 770 1135 785 q 981 732 1013 756 q 949 682 949 708 q 983 634 949 653 q 1093 590 1018 615 q 1199 552 1158 569 q 1268 506 1239 535 q 1297 435 1297 476 q 1274 370 1297 401 q 1182 339 1250 339 q 1074 360 1128 339 q 932 425 1019 381 q 785 494 847 468 q 643 540 724 521 q 474 558 563 558 q 261 526 357 558 q 110 438 165 493 q 56 318 56 382 q 267 131 56 193 q 842 69 479 69 q 1242 94 1076 69 q 1494 166 1408 119 q 1581 276 1581 213 q 1559 334 1581 307 q 1496 379 1538 361 l 1503 392 q 1576 341 1550 372 q 1601 261 1601 310 q 1428 68 1601 143 q 844 -7 1256 -7 z "},"Ë":{"ha":1667,"x_min":35,"x_max":1639,"o":"m 996 888 q 944 900 963 888 q 925 939 925 913 q 946 993 925 965 l 960 990 l 960 978 q 1022 931 960 931 q 1081 939 1053 931 q 1156 965 1110 947 l 1163 953 q 996 888 1065 888 m 1472 888 q 1420 900 1439 888 q 1401 939 1401 913 q 1422 993 1401 965 l 1436 990 l 1436 978 q 1452 943 1436 956 q 1499 931 1468 931 q 1558 939 1529 931 q 1632 965 1586 947 l 1639 953 q 1472 888 1542 888 m 844 -7 q 282 60 529 -7 q 35 325 35 126 q 93 485 35 414 q 253 595 151 556 q 478 635 354 635 q 645 614 565 635 q 788 565 725 593 q 939 490 851 536 q 1088 417 1031 440 q 1200 394 1144 394 q 1258 406 1240 394 q 1276 436 1276 418 q 1247 474 1276 460 q 1149 511 1217 489 q 1036 552 1081 533 q 960 603 992 571 q 928 682 928 636 q 967 775 928 735 q 1075 838 1007 815 q 1224 861 1143 861 q 1453 808 1354 861 q 1607 692 1551 756 l 1599 679 q 1442 753 1538 722 q 1218 785 1346 785 q 1074 770 1135 785 q 981 732 1013 756 q 949 682 949 708 q 983 634 949 653 q 1093 590 1018 615 q 1199 552 1158 569 q 1268 506 1239 535 q 1297 435 1297 476 q 1274 370 1297 401 q 1182 339 1250 339 q 1074 360 1128 339 q 932 425 1019 381 q 785 494 847 468 q 643 540 724 521 q 474 558 563 558 q 261 526 357 558 q 110 438 165 493 q 56 318 56 382 q 267 131 56 193 q 842 69 479 69 q 1242 94 1076 69 q 1494 166 1408 119 q 1581 276 1581 213 q 1559 334 1581 307 q 1496 379 1538 361 l 1503 392 q 1576 341 1550 372 q 1601 261 1601 310 q 1428 68 1601 143 q 844 -7 1256 -7 z "},"Ė":{"ha":1667,"x_min":35,"x_max":1607,"o":"m 1410 861 q 1360 879 1379 861 q 1340 925 1340 897 q 1361 975 1340 957 q 1415 993 1382 993 q 1481 950 1457 993 l 1489 972 l 1503 968 q 1498 949 1501 961 q 1490 928 1494 936 q 1504 867 1499 904 l 1490 864 q 1479 904 1485 892 q 1410 861 1454 861 m 1406 951 q 1372 944 1385 951 q 1360 925 1360 938 q 1372 906 1360 913 q 1403 900 1385 900 q 1465 926 1443 900 q 1406 951 1444 951 m 1503 392 q 1576 341 1550 372 q 1601 261 1601 310 q 1428 68 1601 143 q 844 -7 1256 -7 q 282 60 529 -7 q 35 325 35 126 q 93 485 35 414 q 253 595 151 556 q 478 635 354 635 q 645 614 565 635 q 788 565 725 593 q 939 490 851 536 q 1088 417 1031 440 q 1200 394 1144 394 q 1258 406 1240 394 q 1276 436 1276 418 q 1247 474 1276 460 q 1149 511 1217 489 q 1036 552 1081 533 q 960 603 992 571 q 928 682 928 636 q 967 775 928 735 q 1075 838 1007 815 q 1224 861 1143 861 q 1453 808 1354 861 q 1607 692 1551 756 l 1599 679 q 1442 753 1538 722 q 1218 785 1346 785 q 1074 770 1135 785 q 981 732 1013 756 q 949 682 949 708 q 983 634 949 653 q 1093 590 1018 615 q 1199 552 1158 569 q 1268 506 1239 535 q 1297 435 1297 476 q 1274 370 1297 401 q 1182 339 1250 339 q 1074 360 1128 339 q 932 425 1019 381 q 785 494 847 468 q 643 540 724 521 q 474 558 563 558 q 261 526 357 558 q 110 438 165 493 q 56 318 56 382 q 267 131 56 193 q 842 69 479 69 q 1242 94 1076 69 q 1494 166 1408 119 q 1581 276 1581 213 q 1559 334 1581 307 q 1496 379 1538 361 l 1503 392 z "},"È":{"ha":1667,"x_min":35,"x_max":1607,"o":"m 1478 924 q 1264 914 1332 914 q 1101 928 1171 914 q 964 981 1032 943 l 969 993 q 1174 963 1040 978 q 1478 938 1307 947 l 1478 924 m 844 -7 q 282 60 529 -7 q 35 325 35 126 q 93 485 35 414 q 253 595 151 556 q 478 635 354 635 q 645 614 565 635 q 788 565 725 593 q 939 490 851 536 q 1088 417 1031 440 q 1200 394 1144 394 q 1258 406 1240 394 q 1276 436 1276 418 q 1247 474 1276 460 q 1149 511 1217 489 q 1036 552 1081 533 q 960 603 992 571 q 928 682 928 636 q 967 775 928 735 q 1075 838 1007 815 q 1224 861 1143 861 q 1453 808 1354 861 q 1607 692 1551 756 l 1599 679 q 1442 753 1538 722 q 1218 785 1346 785 q 1074 770 1135 785 q 981 732 1013 756 q 949 682 949 708 q 983 634 949 653 q 1093 590 1018 615 q 1199 552 1158 569 q 1268 506 1239 535 q 1297 435 1297 476 q 1274 370 1297 401 q 1182 339 1250 339 q 1074 360 1128 339 q 932 425 1019 381 q 785 494 847 468 q 643 540 724 521 q 474 558 563 558 q 261 526 357 558 q 110 438 165 493 q 56 318 56 382 q 267 131 56 193 q 842 69 479 69 q 1242 94 1076 69 q 1494 166 1408 119 q 1581 276 1581 213 q 1559 334 1581 307 q 1496 379 1538 361 l 1503 392 q 1576 341 1550 372 q 1601 261 1601 310 q 1428 68 1601 143 q 844 -7 1256 -7 z "},"Ē":{"ha":1667,"x_min":35,"x_max":1607,"o":"m 1247 935 q 926 953 1151 935 l 926 967 q 1342 982 1224 982 q 1518 975 1396 982 l 1521 961 q 1372 940 1433 946 q 1247 935 1311 935 m 844 -7 q 282 60 529 -7 q 35 325 35 126 q 93 485 35 414 q 253 595 151 556 q 478 635 354 635 q 645 614 565 635 q 788 565 725 593 q 939 490 851 536 q 1088 417 1031 440 q 1200 394 1144 394 q 1258 406 1240 394 q 1276 436 1276 418 q 1247 474 1276 460 q 1149 511 1217 489 q 1036 552 1081 533 q 960 603 992 571 q 928 682 928 636 q 967 775 928 735 q 1075 838 1007 815 q 1224 861 1143 861 q 1453 808 1354 861 q 1607 692 1551 756 l 1599 679 q 1442 753 1538 722 q 1218 785 1346 785 q 1074 770 1135 785 q 981 732 1013 756 q 949 682 949 708 q 983 634 949 653 q 1093 590 1018 615 q 1199 552 1158 569 q 1268 506 1239 535 q 1297 435 1297 476 q 1274 370 1297 401 q 1182 339 1250 339 q 1074 360 1128 339 q 932 425 1019 381 q 785 494 847 468 q 643 540 724 521 q 474 558 563 558 q 261 526 357 558 q 110 438 165 493 q 56 318 56 382 q 267 131 56 193 q 842 69 479 69 q 1242 94 1076 69 q 1494 166 1408 119 q 1581 276 1581 213 q 1559 334 1581 307 q 1496 379 1538 361 l 1503 392 q 1576 341 1550 372 q 1601 261 1601 310 q 1428 68 1601 143 q 844 -7 1256 -7 z "},"Ę":{"ha":1667,"x_min":35,"x_max":1656,"o":"m 1656 85 q 1576 11 1614 36 q 1488 -14 1538 -14 q 1397 19 1429 -14 q 1364 104 1364 53 q 1383 181 1364 140 q 765 -7 1164 -7 q 453 21 617 -7 q 163 132 290 49 q 35 369 35 215 q 98 555 35 472 q 270 683 161 638 q 511 729 379 729 q 728 694 631 729 q 946 596 825 660 q 1089 528 1033 550 q 1200 506 1144 506 q 1258 517 1239 506 q 1276 546 1276 529 q 1244 585 1276 569 q 1138 622 1211 600 q 1015 663 1063 644 q 934 715 968 682 q 900 794 900 747 q 944 892 900 849 q 1062 961 988 936 q 1222 986 1136 986 q 1453 933 1354 986 q 1607 817 1551 881 l 1599 804 q 1442 878 1538 847 q 1219 910 1347 910 q 1065 894 1133 910 q 959 853 997 879 q 921 796 921 826 q 960 744 921 764 q 1081 700 999 724 q 1194 662 1151 679 q 1267 616 1236 644 q 1297 546 1297 588 q 1274 481 1297 513 q 1181 450 1250 450 q 1076 469 1126 450 q 938 532 1026 489 q 726 624 821 592 q 508 656 631 656 q 278 617 382 656 q 115 510 175 578 q 56 363 56 443 q 146 198 56 264 q 392 101 236 132 q 743 69 547 69 q 1144 115 985 69 q 1397 238 1303 161 q 1563 429 1490 315 l 1575 421 q 1508 317 1539 361 q 1436 231 1478 274 q 1392 129 1392 181 q 1494 42 1392 42 q 1565 53 1531 42 q 1643 93 1600 64 l 1656 85 z "},"F":{"ha":1667,"x_min":68,"x_max":1618,"o":"m 606 404 q 729 411 669 404 q 885 432 789 418 q 1072 456 994 447 q 1242 464 1150 464 q 1610 421 1431 464 l 1610 407 q 1278 425 1461 425 q 1078 419 1167 425 q 850 403 990 414 q 610 388 688 388 l 578 388 q 429 112 519 226 q 246 -3 339 -3 q 181 24 200 -3 q 161 90 161 51 q 203 242 161 151 q 322 431 246 332 q 135 547 201 472 q 68 715 68 621 q 106 850 68 788 q 208 949 143 913 q 347 986 272 986 q 530 914 453 986 q 626 726 607 842 q 958 910 782 843 q 1315 978 1133 978 q 1540 934 1463 978 q 1618 818 1618 890 q 1588 747 1618 774 q 1519 710 1557 719 l 1515 724 q 1573 758 1549 733 q 1597 808 1597 782 q 1522 875 1597 856 q 1340 894 1446 894 q 967 836 1147 894 q 632 678 786 778 l 632 657 q 583 404 632 547 l 606 404 m 89 710 q 153 559 89 631 q 335 446 218 488 q 607 713 450 593 q 513 858 590 807 q 338 910 436 910 q 211 884 268 910 q 122 813 154 858 q 89 710 89 767 m 611 665 q 351 440 457 561 q 550 406 442 411 q 595 544 579 476 q 611 663 611 611 l 611 665 m 246 53 q 402 151 321 53 q 543 389 483 249 q 339 425 431 397 q 227 261 267 342 q 188 118 188 181 q 246 53 188 53 z "},"G":{"ha":1667,"x_min":50,"x_max":1621,"o":"m 953 910 q 530 824 735 910 q 198 604 325 739 q 71 332 71 469 q 192 132 71 200 q 533 64 314 64 q 910 109 719 64 q 1223 223 1100 154 q 1346 356 1346 292 q 1314 392 1346 382 q 1201 406 1282 403 q 908 413 1119 410 q 598 424 708 415 q 435 451 488 432 q 383 508 383 471 q 438 567 383 546 q 614 598 493 589 q 944 607 735 607 q 1317 590 1200 607 q 1475 527 1433 574 q 1517 379 1517 481 q 1506 240 1517 322 q 1465 0 1494 158 l 1451 0 q 1493 358 1493 258 q 1450 499 1493 453 q 1294 564 1407 546 q 949 582 1181 582 q 540 563 676 582 q 404 511 404 544 q 442 490 404 496 q 580 481 481 483 q 908 478 679 479 q 1179 465 1079 476 q 1323 427 1279 453 q 1367 357 1367 401 q 1240 190 1367 276 q 919 45 1114 103 q 533 -12 724 -12 q 178 74 307 -12 q 50 319 50 160 q 180 638 50 483 q 518 890 310 793 q 946 986 726 986 q 1260 935 1106 986 q 1507 806 1414 883 l 1608 986 l 1621 979 l 1518 761 q 1268 867 1429 825 q 953 910 1107 910 z "},"Ğ":{"ha":1667,"x_min":50,"x_max":1621,"o":"m 978 903 q 735 927 818 903 q 629 979 653 951 l 640 989 q 756 956 683 968 q 978 944 829 944 q 1231 953 1156 944 q 1343 983 1306 961 l 1354 974 q 1236 925 1325 947 q 978 903 1147 903 m 939 785 q 513 710 714 785 q 192 519 313 636 q 71 285 71 403 q 535 64 71 64 q 910 95 721 64 q 1223 177 1100 126 q 1346 282 1346 228 q 1315 313 1346 304 q 1201 324 1285 321 q 908 329 1117 328 q 599 340 711 331 q 435 369 486 349 q 383 425 383 389 q 438 484 383 463 q 614 515 493 506 q 944 524 735 524 q 1315 508 1197 524 q 1474 449 1432 492 q 1517 313 1517 406 q 1506 194 1517 263 q 1465 0 1494 126 l 1451 0 q 1493 292 1493 203 q 1449 422 1493 378 q 1292 482 1406 465 q 950 499 1178 499 q 540 480 676 499 q 404 428 404 461 q 442 406 404 413 q 580 398 481 400 q 908 394 679 396 q 1263 368 1158 393 q 1367 288 1367 343 q 1240 149 1367 219 q 919 33 1114 79 q 531 -12 724 -12 q 176 59 303 -12 q 50 276 50 131 q 178 562 50 426 q 513 779 307 697 q 935 861 718 861 q 1253 813 1099 861 q 1507 681 1407 765 l 1608 861 l 1621 854 l 1518 636 q 1267 743 1426 701 q 939 785 1107 785 z "},"Ģ":{"ha":1667,"x_min":50,"x_max":1621,"o":"m 939 917 q 513 842 714 917 q 192 651 313 768 q 71 417 71 535 q 535 196 71 196 q 910 227 721 196 q 1223 309 1100 258 q 1346 414 1346 360 q 1315 444 1346 436 q 1201 456 1285 453 q 908 461 1117 460 q 599 472 711 463 q 435 501 486 481 q 383 557 383 521 q 438 616 383 594 q 614 647 493 638 q 944 656 735 656 q 1315 640 1197 656 q 1474 581 1432 624 q 1517 444 1517 538 q 1506 326 1517 394 q 1465 132 1494 258 l 1451 132 q 1493 424 1493 335 q 1449 553 1493 510 q 1292 614 1406 597 q 950 631 1178 631 q 540 612 676 631 q 404 560 404 593 q 442 538 404 544 q 580 530 481 532 q 908 526 679 528 q 1263 500 1158 525 q 1367 419 1367 475 q 1240 281 1367 351 q 919 165 1114 211 q 531 119 724 119 q 176 191 303 119 q 50 408 50 263 q 178 694 50 558 q 513 911 307 829 q 935 993 718 993 q 1253 945 1099 993 q 1507 813 1407 897 l 1608 993 l 1621 986 l 1518 768 q 1267 875 1426 833 q 939 917 1107 917 m 1054 126 q 1107 113 1089 126 q 1125 78 1125 100 q 893 -10 1125 4 l 890 4 q 1039 29 993 14 q 1085 74 1085 44 q 1049 106 1085 97 l 1054 126 z "},"Ġ":{"ha":1667,"x_min":50,"x_max":1621,"o":"m 1236 861 q 1186 879 1206 861 q 1167 925 1167 897 q 1188 975 1167 957 q 1242 993 1208 993 q 1307 950 1283 993 l 1315 972 l 1329 968 q 1324 949 1328 961 q 1317 928 1321 936 q 1331 867 1325 904 l 1317 864 q 1306 904 1311 892 q 1236 861 1281 861 m 1232 951 q 1199 944 1211 951 q 1186 925 1186 938 q 1199 906 1186 913 q 1229 900 1211 900 q 1292 926 1269 900 q 1232 951 1271 951 m 939 785 q 513 710 714 785 q 192 519 313 636 q 71 285 71 403 q 535 64 71 64 q 910 95 721 64 q 1223 177 1100 126 q 1346 282 1346 228 q 1315 313 1346 304 q 1201 324 1285 321 q 908 329 1117 328 q 599 340 711 331 q 435 369 486 349 q 383 425 383 389 q 438 484 383 463 q 614 515 493 506 q 944 524 735 524 q 1315 508 1197 524 q 1474 449 1432 492 q 1517 313 1517 406 q 1506 194 1517 263 q 1465 0 1494 126 l 1451 0 q 1493 292 1493 203 q 1449 422 1493 378 q 1292 482 1406 465 q 950 499 1178 499 q 540 480 676 499 q 404 428 404 461 q 442 406 404 413 q 580 398 481 400 q 908 394 679 396 q 1263 368 1158 393 q 1367 288 1367 343 q 1240 149 1367 219 q 919 33 1114 79 q 531 -12 724 -12 q 176 59 303 -12 q 50 276 50 131 q 178 562 50 426 q 513 779 307 697 q 935 861 718 861 q 1253 813 1099 861 q 1507 681 1407 765 l 1608 861 l 1621 854 l 1518 636 q 1267 743 1426 701 q 939 785 1107 785 z "},"H":{"ha":1667,"x_min":35,"x_max":1638,"o":"m 1638 963 q 1515 893 1565 949 q 1435 762 1465 838 q 1364 560 1404 686 q 1321 431 1336 474 q 1592 421 1525 428 l 1592 406 q 1440 410 1521 410 q 1313 408 1356 410 q 1150 121 1247 228 q 881 0 1053 14 l 879 14 q 1108 130 1022 28 q 1261 406 1194 232 q 707 353 990 396 q 532 168 635 250 q 325 40 429 86 q 146 -6 221 -6 q 61 20 88 -6 q 35 86 35 46 q 221 274 35 197 q 700 390 407 350 q 797 665 797 524 q 749 828 797 757 q 568 900 700 900 q 401 855 468 900 q 335 732 335 810 q 392 619 335 658 q 539 572 450 581 l 539 556 q 382 604 451 563 q 313 731 313 646 q 344 850 313 793 q 438 943 376 907 q 579 979 499 979 q 758 894 696 979 q 819 683 819 810 q 735 394 819 539 q 1271 431 994 428 q 1307 532 1292 486 q 1394 756 1357 672 q 1491 902 1432 840 q 1635 976 1550 964 l 1638 963 m 151 69 q 319 104 226 69 q 504 202 413 139 q 665 346 596 265 q 231 240 397 301 q 64 113 64 179 q 88 80 64 90 q 151 69 111 69 z "},"Ħ":{"ha":1667,"x_min":35,"x_max":1650,"o":"m 1369 578 q 1321 431 1336 471 q 1592 421 1525 428 l 1592 406 q 1440 410 1521 410 q 1313 408 1356 410 q 1150 121 1247 228 q 881 0 1053 14 l 879 14 q 1108 130 1022 28 q 1261 406 1194 232 q 707 353 990 396 q 532 168 635 250 q 325 40 429 86 q 146 -6 221 -6 q 61 20 88 -6 q 35 86 35 46 q 221 274 35 197 q 700 390 407 350 q 778 540 751 463 q 681 547 725 543 q 624 551 636 550 l 624 565 q 718 564 658 564 l 785 564 q 797 665 797 614 q 749 828 797 757 q 568 900 700 900 q 401 855 468 900 q 335 732 335 810 q 392 619 335 658 q 539 572 450 581 l 539 556 q 382 604 451 563 q 313 731 313 646 q 344 850 313 793 q 438 943 376 907 q 579 979 499 979 q 758 894 696 979 q 819 683 819 810 q 806 564 819 629 q 1090 576 963 567 q 1333 607 1218 585 q 1412 790 1374 715 q 1505 915 1450 864 q 1635 976 1560 965 l 1638 963 q 1524 903 1571 951 q 1447 788 1478 856 q 1382 617 1415 719 q 1643 706 1524 649 l 1650 693 q 1369 578 1531 618 m 735 394 q 1271 431 994 428 l 1319 568 q 940 536 1165 536 q 799 539 882 536 q 735 394 776 468 m 151 69 q 319 104 226 69 q 504 202 413 139 q 665 346 596 265 q 231 240 397 301 q 64 113 64 179 q 88 80 64 90 q 151 69 111 69 z "},"I":{"ha":1667,"x_min":53,"x_max":1604,"o":"m 449 -10 q 149 74 244 -10 q 53 286 53 158 q 92 433 53 368 q 192 535 131 499 q 319 572 254 572 q 490 439 439 572 l 478 431 q 417 478 461 460 q 319 496 372 496 q 197 467 253 496 q 107 391 140 439 q 74 286 74 343 q 164 129 74 188 q 449 71 254 71 q 1052 245 810 71 q 1407 608 1294 419 q 1569 938 1519 796 l 1554 951 q 1182 826 1411 826 q 1040 787 1083 826 q 996 681 996 747 l 982 682 q 998 807 982 763 q 1069 877 1014 851 q 1238 903 1124 903 q 1571 993 1454 903 l 1604 960 q 1436 611 1561 829 q 1059 192 1311 393 q 449 -10 807 -10 z "},"Í":{"ha":1667,"x_min":53,"x_max":1636,"o":"m 1122 938 q 1426 963 1293 947 q 1631 993 1560 978 l 1636 981 q 1499 928 1568 943 q 1336 914 1429 914 q 1122 924 1268 914 l 1122 938 m 476 -10 q 235 31 331 -10 q 97 138 140 71 q 53 286 53 204 q 92 433 53 368 q 192 535 131 499 q 319 572 254 572 q 490 439 439 572 l 478 431 q 417 478 461 460 q 319 496 372 496 q 197 467 253 496 q 107 391 140 439 q 74 286 74 343 q 172 129 74 188 q 476 71 271 71 q 1063 217 826 71 q 1414 531 1299 364 q 1569 813 1529 699 l 1554 826 q 1388 744 1493 772 q 1182 715 1282 715 q 1040 676 1083 715 q 996 569 996 636 l 982 571 q 998 696 982 651 q 1069 766 1014 740 q 1238 792 1124 792 q 1426 805 1344 792 q 1571 868 1507 818 l 1604 835 q 1442 534 1569 729 q 1069 165 1315 339 q 476 -10 822 -10 z "},"Î":{"ha":1667,"x_min":53,"x_max":1717,"o":"m 978 935 q 1082 943 1035 935 q 1199 968 1129 951 q 1286 988 1256 982 q 1347 993 1317 993 q 1419 985 1378 993 q 1500 968 1460 978 q 1717 935 1631 935 l 1717 921 q 1661 917 1692 917 q 1458 938 1596 917 q 1347 951 1382 951 q 1219 936 1311 951 q 1145 926 1207 935 q 1033 917 1083 917 q 978 921 1003 917 l 978 935 m 476 -10 q 235 31 331 -10 q 97 138 140 71 q 53 286 53 204 q 92 433 53 368 q 192 535 131 499 q 319 572 254 572 q 490 439 439 572 l 478 431 q 417 478 461 460 q 319 496 372 496 q 197 467 253 496 q 107 391 140 439 q 74 286 74 343 q 172 129 74 188 q 476 71 271 71 q 1063 217 826 71 q 1414 531 1299 364 q 1569 813 1529 699 l 1554 826 q 1388 744 1493 772 q 1182 715 1282 715 q 1040 676 1083 715 q 996 569 996 636 l 982 571 q 998 696 982 651 q 1069 766 1014 740 q 1238 792 1124 792 q 1426 805 1344 792 q 1571 868 1507 818 l 1604 835 q 1442 534 1569 729 q 1069 165 1315 339 q 476 -10 822 -10 z "},"Ï":{"ha":1667,"x_min":53,"x_max":1710,"o":"m 1067 888 q 1015 900 1033 888 q 996 939 996 913 q 1017 993 996 965 l 1031 990 l 1031 978 q 1093 931 1031 931 q 1152 939 1124 931 q 1226 965 1181 947 l 1233 953 q 1067 888 1136 888 m 1543 888 q 1491 900 1510 888 q 1472 939 1472 913 q 1493 993 1472 965 l 1507 990 l 1507 978 q 1523 943 1507 956 q 1569 931 1539 931 q 1628 939 1600 931 q 1703 965 1657 947 l 1710 953 q 1543 888 1613 888 m 476 -10 q 235 31 331 -10 q 97 138 140 71 q 53 286 53 204 q 92 433 53 368 q 192 535 131 499 q 319 572 254 572 q 490 439 439 572 l 478 431 q 417 478 461 460 q 319 496 372 496 q 197 467 253 496 q 107 391 140 439 q 74 286 74 343 q 172 129 74 188 q 476 71 271 71 q 1063 217 826 71 q 1414 531 1299 364 q 1569 813 1529 699 l 1554 826 q 1388 744 1493 772 q 1182 715 1282 715 q 1040 676 1083 715 q 996 569 996 636 l 982 571 q 998 696 982 651 q 1069 766 1014 740 q 1238 792 1124 792 q 1426 805 1344 792 q 1571 868 1507 818 l 1604 835 q 1442 534 1569 729 q 1069 165 1315 339 q 476 -10 822 -10 z "},"İ":{"ha":1667,"x_min":53,"x_max":1604,"o":"m 1347 861 q 1297 879 1317 861 q 1278 925 1278 897 q 1299 975 1278 957 q 1353 993 1319 993 q 1418 950 1394 993 l 1426 972 l 1440 968 q 1435 949 1439 961 q 1428 928 1432 936 q 1442 867 1436 904 l 1428 864 q 1417 904 1422 892 q 1347 861 1392 861 m 1343 951 q 1310 944 1322 951 q 1297 925 1297 938 q 1310 906 1297 913 q 1340 900 1322 900 q 1403 926 1381 900 q 1343 951 1382 951 m 1604 835 q 1442 534 1569 729 q 1069 165 1315 339 q 476 -10 822 -10 q 235 31 331 -10 q 97 138 140 71 q 53 286 53 204 q 92 433 53 368 q 192 535 131 499 q 319 572 254 572 q 490 439 439 572 l 478 431 q 417 478 461 460 q 319 496 372 496 q 197 467 253 496 q 107 391 140 439 q 74 286 74 343 q 172 129 74 188 q 476 71 271 71 q 1063 217 826 71 q 1414 531 1299 364 q 1569 813 1529 699 l 1554 826 q 1388 744 1493 772 q 1182 715 1282 715 q 1040 676 1083 715 q 996 569 996 636 l 982 571 q 998 696 982 651 q 1069 766 1014 740 q 1238 792 1124 792 q 1426 805 1344 792 q 1571 868 1507 818 l 1604 835 z "},"Ì":{"ha":1667,"x_min":53,"x_max":1604,"o":"m 1604 924 q 1390 914 1458 914 q 1228 928 1297 914 q 1090 981 1158 943 l 1096 993 q 1300 963 1167 978 q 1604 938 1433 947 l 1604 924 m 476 -10 q 235 31 331 -10 q 97 138 140 71 q 53 286 53 204 q 92 433 53 368 q 192 535 131 499 q 319 572 254 572 q 490 439 439 572 l 478 431 q 417 478 461 460 q 319 496 372 496 q 197 467 253 496 q 107 391 140 439 q 74 286 74 343 q 172 129 74 188 q 476 71 271 71 q 1063 217 826 71 q 1414 531 1299 364 q 1569 813 1529 699 l 1554 826 q 1388 744 1493 772 q 1182 715 1282 715 q 1040 676 1083 715 q 996 569 996 636 l 982 571 q 998 696 982 651 q 1069 766 1014 740 q 1238 792 1124 792 q 1426 805 1344 792 q 1571 868 1507 818 l 1604 835 q 1442 534 1569 729 q 1069 165 1315 339 q 476 -10 822 -10 z "},"Ī":{"ha":1667,"x_min":53,"x_max":1621,"o":"m 1347 935 q 1026 953 1251 935 l 1026 967 q 1442 982 1324 982 q 1618 975 1496 982 l 1621 961 q 1472 940 1533 946 q 1347 935 1411 935 m 476 -10 q 235 31 331 -10 q 97 138 140 71 q 53 286 53 204 q 92 433 53 368 q 192 535 131 499 q 319 572 254 572 q 490 439 439 572 l 478 431 q 417 478 461 460 q 319 496 372 496 q 197 467 253 496 q 107 391 140 439 q 74 286 74 343 q 172 129 74 188 q 476 71 271 71 q 1063 217 826 71 q 1414 531 1299 364 q 1569 813 1529 699 l 1554 826 q 1388 744 1493 772 q 1182 715 1282 715 q 1040 676 1083 715 q 996 569 996 636 l 982 571 q 998 696 982 651 q 1069 766 1014 740 q 1238 792 1124 792 q 1426 805 1344 792 q 1571 868 1507 818 l 1604 835 q 1442 534 1569 729 q 1069 165 1315 339 q 476 -10 822 -10 z "},"Į":{"ha":1667,"x_min":53,"x_max":1604,"o":"m 1189 42 q 1251 52 1222 42 q 1324 93 1279 63 l 1336 85 q 1255 11 1294 36 q 1168 -14 1215 -14 q 1079 21 1113 -14 q 1046 110 1046 56 q 1069 201 1046 157 q 449 -10 789 -10 q 149 74 244 -10 q 53 286 53 158 q 92 433 53 368 q 192 535 131 499 q 319 572 254 572 q 490 439 439 572 l 478 431 q 417 478 461 460 q 319 496 372 496 q 197 467 253 496 q 107 391 140 439 q 74 286 74 343 q 164 129 74 188 q 449 71 254 71 q 1052 245 810 71 q 1407 608 1294 419 q 1569 938 1519 796 l 1554 951 q 1182 826 1411 826 q 1040 787 1083 826 q 996 681 996 747 l 982 682 q 998 807 982 763 q 1069 877 1014 851 q 1238 903 1124 903 q 1571 993 1454 903 l 1604 960 q 1528 779 1583 896 q 1369 513 1474 663 q 1121 242 1265 363 q 1072 135 1072 193 q 1103 65 1072 89 q 1189 42 1133 42 z "},"J":{"ha":1667,"x_min":39,"x_max":1647,"o":"m 1647 546 q 1521 468 1601 499 q 1332 438 1440 438 q 1283 440 1317 438 q 889 90 1090 197 q 456 -17 688 -17 q 145 65 251 -17 q 39 282 39 147 q 81 441 39 368 q 188 556 122 514 q 324 599 254 599 q 430 563 386 599 q 497 465 474 528 l 485 457 q 423 505 467 488 q 326 522 379 522 q 193 490 254 522 q 96 403 132 457 q 60 288 60 349 q 110 165 60 217 q 249 87 160 114 q 456 60 339 60 q 877 156 681 60 q 1247 446 1074 253 q 1048 519 1149 465 q 881 645 947 572 q 815 793 815 718 q 892 920 815 868 q 1140 972 968 972 q 1331 965 1178 972 q 1449 960 1425 960 q 1515 967 1488 960 q 1571 993 1543 975 l 1611 964 q 1324 494 1471 694 l 1332 494 q 1497 509 1426 494 q 1639 557 1568 524 l 1647 546 m 836 792 q 902 664 836 729 q 1073 551 968 599 q 1289 496 1178 504 q 1581 947 1444 685 l 1564 958 q 1410 917 1525 931 q 1140 903 1296 903 q 950 892 1015 903 q 860 858 885 882 q 836 792 836 835 z "},"K":{"ha":1667,"x_min":67,"x_max":1640,"o":"m 67 14 q 365 140 233 29 q 585 389 497 250 q 778 732 674 528 q 885 928 847 871 q 625 901 753 907 q 315 894 497 896 q 194 881 228 893 q 160 832 160 868 q 249 692 160 768 l 238 682 q 139 843 139 761 q 188 944 139 901 q 349 986 238 986 q 426 981 385 986 q 479 975 468 976 q 647 957 565 964 q 853 950 729 950 l 917 953 l 924 942 q 855 838 889 899 q 768 669 821 776 q 588 343 671 472 q 375 114 506 214 q 67 0 244 14 l 67 14 m 1265 -14 q 1019 49 1133 -14 q 826 225 906 113 q 717 481 747 338 q 949 725 815 610 q 1217 910 1083 840 q 1446 979 1350 979 q 1640 857 1571 979 l 1629 849 q 1450 907 1553 907 q 1212 849 1343 907 q 956 692 1081 790 q 738 481 831 594 q 835 265 763 360 q 1019 116 908 169 q 1265 63 1131 63 q 1413 87 1346 63 q 1520 156 1481 111 q 1560 258 1560 200 q 1492 383 1560 333 q 1308 432 1425 432 q 1135 395 1206 432 q 1064 300 1064 358 q 1074 253 1064 278 q 1106 210 1085 229 l 1096 200 q 1057 249 1071 219 q 1043 308 1043 278 q 1078 398 1043 357 q 1174 463 1113 439 q 1310 488 1235 488 q 1506 424 1431 488 q 1581 257 1581 361 q 1539 119 1581 181 q 1425 22 1497 57 q 1265 -14 1353 -14 z "},"Ķ":{"ha":1667,"x_min":67,"x_max":1640,"o":"m 67 14 q 365 140 233 29 q 585 389 497 250 q 778 732 674 528 q 885 928 847 871 q 625 901 753 907 q 315 894 497 896 q 194 881 228 893 q 160 832 160 868 q 249 692 160 768 l 238 682 q 139 843 139 761 q 188 944 139 901 q 349 986 238 986 q 426 981 385 986 q 479 975 468 976 q 647 957 565 964 q 853 950 729 950 l 917 953 l 924 942 q 855 838 889 899 q 768 669 821 776 q 588 343 671 472 q 375 114 506 214 q 67 0 244 14 l 67 14 m 1265 -14 q 1019 49 1133 -14 q 826 225 906 113 q 717 481 747 338 q 949 725 815 610 q 1217 910 1083 840 q 1446 979 1350 979 q 1640 857 1571 979 l 1629 849 q 1450 907 1553 907 q 1212 849 1343 907 q 956 692 1081 790 q 738 481 831 594 q 835 265 763 360 q 1019 116 908 169 q 1265 63 1131 63 q 1413 87 1346 63 q 1520 156 1481 111 q 1560 258 1560 200 q 1492 383 1560 333 q 1308 432 1425 432 q 1135 395 1206 432 q 1064 300 1064 358 q 1074 253 1064 278 q 1106 210 1085 229 l 1096 200 q 1057 249 1071 219 q 1043 308 1043 278 q 1078 398 1043 357 q 1174 463 1113 439 q 1310 488 1235 488 q 1506 424 1431 488 q 1581 257 1581 361 q 1539 119 1581 181 q 1425 22 1497 57 q 1265 -14 1353 -14 m 467 4 q 615 29 569 14 q 661 74 661 44 q 625 106 661 97 l 631 126 q 683 113 665 126 q 701 78 701 100 q 469 -10 701 4 l 467 4 z "},"L":{"ha":1667,"x_min":50,"x_max":1635,"o":"m 1429 347 q 1569 315 1503 347 q 1635 193 1635 283 q 1601 90 1635 135 q 1508 19 1568 44 q 1374 -7 1449 -7 q 1219 20 1297 -7 q 1069 88 1140 47 q 892 196 999 128 q 803 251 879 203 q 657 333 728 299 q 414 78 519 168 q 211 -11 308 -11 q 119 18 156 -11 q 66 90 82 47 q 50 175 50 133 q 82 308 50 236 q 182 432 114 381 q 351 483 250 483 q 499 456 424 483 q 663 375 574 428 q 807 556 731 456 q 992 783 918 699 q 1148 925 1067 868 q 1310 982 1229 982 q 1437 931 1388 982 q 1486 807 1486 881 q 1442 687 1486 738 q 1336 636 1399 636 q 1242 668 1283 636 q 1168 743 1201 700 l 1178 753 q 1338 688 1260 688 q 1433 725 1400 688 q 1467 807 1467 763 q 1429 878 1467 849 q 1326 908 1392 908 q 1137 843 1233 908 q 952 683 1040 778 q 736 431 864 588 l 682 364 q 782 301 732 335 q 984 181 900 226 q 1169 102 1068 135 q 1378 69 1271 69 q 1548 101 1482 69 q 1614 200 1614 133 q 1583 277 1614 247 q 1508 320 1551 307 q 1429 333 1465 333 l 1429 347 m 206 72 q 417 144 313 72 q 635 343 522 215 q 354 414 486 414 q 190 377 254 414 q 99 288 126 340 q 71 183 71 235 q 106 100 71 128 q 206 72 142 72 z "},"Ĺ":{"ha":1667,"x_min":50,"x_max":1635,"o":"m 1567 981 q 1429 928 1499 943 q 1267 914 1360 914 q 1053 924 1199 914 l 1053 938 q 1357 963 1224 947 q 1561 993 1490 978 l 1567 981 m 1429 347 q 1569 315 1503 347 q 1635 193 1635 283 q 1598 84 1635 129 q 1501 16 1561 39 q 1372 -7 1442 -7 q 1218 20 1296 -7 q 1071 86 1140 47 q 890 194 1001 125 q 685 318 771 271 q 424 74 533 158 q 214 -11 314 -11 q 119 19 156 -11 q 66 91 82 49 q 50 175 50 133 q 82 308 50 236 q 182 432 114 381 q 351 483 250 483 q 508 452 429 483 q 686 361 588 421 q 808 494 708 383 q 994 690 919 618 q 1149 812 1068 763 q 1307 861 1229 861 q 1437 810 1388 861 q 1486 686 1486 760 q 1442 566 1486 617 q 1336 515 1399 515 q 1242 547 1283 515 q 1168 622 1201 579 l 1178 632 q 1338 567 1260 567 q 1433 604 1400 567 q 1467 686 1467 642 q 1428 758 1467 728 q 1324 788 1390 788 q 1137 731 1233 788 q 953 591 1040 674 q 735 371 865 508 l 711 346 l 783 301 q 985 181 901 226 q 1170 102 1069 135 q 1378 69 1271 69 q 1548 101 1482 69 q 1614 200 1614 133 q 1583 277 1614 247 q 1508 320 1551 307 q 1429 333 1465 333 l 1429 347 m 208 72 q 428 140 319 72 q 658 332 536 208 q 354 414 492 414 q 190 377 254 414 q 99 288 126 340 q 71 183 71 235 q 208 72 71 72 z "},"Ľ":{"ha":1667,"x_min":50,"x_max":1635,"o":"m 1514 657 q 1593 881 1593 768 q 1585 978 1593 944 l 1599 983 q 1629 853 1629 917 q 1603 748 1629 796 q 1525 647 1576 700 l 1514 657 m 1429 347 q 1569 315 1503 347 q 1635 193 1635 283 q 1601 90 1635 135 q 1508 19 1568 44 q 1374 -7 1449 -7 q 1219 20 1297 -7 q 1069 88 1140 47 q 892 196 999 128 q 803 251 879 203 q 657 333 728 299 q 414 78 519 168 q 211 -11 308 -11 q 119 18 156 -11 q 66 90 82 47 q 50 175 50 133 q 82 308 50 236 q 182 432 114 381 q 351 483 250 483 q 499 456 424 483 q 663 375 574 428 q 807 556 731 456 q 992 783 918 699 q 1148 925 1067 868 q 1310 982 1229 982 q 1437 931 1388 982 q 1486 807 1486 881 q 1442 687 1486 738 q 1336 636 1399 636 q 1242 668 1283 636 q 1168 743 1201 700 l 1178 753 q 1338 688 1260 688 q 1433 725 1400 688 q 1467 807 1467 763 q 1429 878 1467 849 q 1326 908 1392 908 q 1137 843 1233 908 q 952 683 1040 778 q 736 431 864 588 l 682 364 q 782 301 732 335 q 984 181 900 226 q 1169 102 1068 135 q 1378 69 1271 69 q 1548 101 1482 69 q 1614 200 1614 133 q 1583 277 1614 247 q 1508 320 1551 307 q 1429 333 1465 333 l 1429 347 m 206 72 q 417 144 313 72 q 635 343 522 215 q 354 414 486 414 q 190 377 254 414 q 99 288 126 340 q 71 183 71 235 q 106 100 71 128 q 206 72 142 72 z "},"Ļ":{"ha":1667,"x_min":50,"x_max":1635,"o":"m 1429 479 q 1569 447 1503 479 q 1635 325 1635 415 q 1598 216 1635 261 q 1501 148 1561 171 q 1372 125 1442 125 q 1218 152 1296 125 q 1071 218 1140 179 q 890 326 1001 257 q 685 450 771 403 q 424 206 533 290 q 214 121 314 121 q 119 151 156 121 q 66 223 82 181 q 50 307 50 265 q 82 440 50 368 q 182 564 114 513 q 351 615 250 615 q 508 584 429 615 q 686 493 588 553 q 808 626 708 515 q 994 822 919 750 q 1149 944 1068 894 q 1307 993 1229 993 q 1437 942 1388 993 q 1486 818 1486 892 q 1442 698 1486 749 q 1336 647 1399 647 q 1242 679 1283 647 q 1168 754 1201 711 l 1178 764 q 1338 699 1260 699 q 1433 736 1400 699 q 1467 818 1467 774 q 1428 890 1467 860 q 1324 919 1390 919 q 1137 863 1233 919 q 953 723 1040 806 q 735 503 865 640 l 711 478 l 783 433 q 985 313 901 358 q 1170 234 1069 267 q 1378 201 1271 201 q 1548 233 1482 201 q 1614 332 1614 265 q 1583 409 1614 379 q 1508 452 1551 439 q 1429 465 1465 465 l 1429 479 m 208 204 q 428 272 319 204 q 658 464 536 340 q 354 546 492 546 q 190 509 254 546 q 99 419 126 472 q 71 315 71 367 q 208 204 71 204 m 633 126 q 686 113 668 126 q 704 78 704 100 q 472 -10 704 4 l 469 4 q 618 29 572 14 q 664 74 664 44 q 628 106 664 97 l 633 126 z "},"Ŀ":{"ha":1667,"x_min":50,"x_max":1635,"o":"m 1429 347 q 1569 315 1503 347 q 1635 193 1635 283 q 1601 90 1635 135 q 1508 19 1568 44 q 1374 -7 1449 -7 q 1219 20 1297 -7 q 1069 88 1140 47 q 892 196 999 128 q 803 251 879 203 q 657 333 728 299 q 414 78 519 168 q 211 -11 308 -11 q 119 18 156 -11 q 66 90 82 47 q 50 175 50 133 q 82 308 50 236 q 182 432 114 381 q 351 483 250 483 q 499 456 424 483 q 663 375 574 428 q 807 556 731 456 q 992 783 918 699 q 1148 925 1067 868 q 1310 982 1229 982 q 1437 931 1388 982 q 1486 807 1486 881 q 1442 687 1486 738 q 1336 636 1399 636 q 1242 668 1283 636 q 1168 743 1201 700 l 1178 753 q 1338 688 1260 688 q 1433 725 1400 688 q 1467 807 1467 763 q 1429 878 1467 849 q 1326 908 1392 908 q 1137 843 1233 908 q 952 683 1040 778 q 736 431 864 588 l 682 364 q 782 301 732 335 q 984 181 900 226 q 1169 102 1068 135 q 1378 69 1271 69 q 1548 101 1482 69 q 1614 200 1614 133 q 1583 277 1614 247 q 1508 320 1551 307 q 1429 333 1465 333 l 1429 347 m 1139 483 q 1083 449 1083 483 q 1106 423 1083 433 q 1160 413 1128 413 q 1240 431 1224 413 l 1251 425 q 1215 385 1240 400 q 1160 369 1189 369 q 1091 393 1118 369 q 1064 449 1064 417 q 1085 506 1064 483 q 1139 529 1107 529 q 1211 501 1183 529 q 1250 436 1239 472 l 1238 432 q 1139 483 1208 483 m 206 72 q 417 144 313 72 q 635 343 522 215 q 354 414 486 414 q 190 377 254 414 q 99 288 126 340 q 71 183 71 235 q 106 100 71 128 q 206 72 142 72 z "},"Ł":{"ha":1667,"x_min":50,"x_max":1635,"o":"m 1429 347 q 1569 315 1503 347 q 1635 193 1635 283 q 1601 90 1635 135 q 1508 19 1568 44 q 1374 -7 1449 -7 q 1219 20 1297 -7 q 1069 88 1140 47 q 892 196 999 128 q 803 251 879 203 q 657 333 728 299 q 414 78 519 168 q 211 -11 308 -11 q 119 18 156 -11 q 66 90 82 47 q 50 175 50 133 q 82 308 50 236 q 182 432 114 381 q 351 483 250 483 q 499 456 424 483 q 663 375 574 428 q 774 514 676 392 l 829 583 q 614 675 711 647 l 621 689 q 846 606 742 657 q 1012 805 940 726 q 1159 933 1083 883 q 1310 982 1235 982 q 1437 931 1388 982 q 1486 807 1486 881 q 1442 687 1486 738 q 1336 636 1399 636 q 1242 668 1283 636 q 1168 743 1201 700 l 1178 753 q 1338 688 1260 688 q 1433 725 1400 688 q 1467 807 1467 763 q 1429 878 1467 849 q 1326 908 1392 908 q 1111 825 1221 908 q 872 593 1001 742 q 1047 471 975 539 l 1035 457 q 853 571 936 524 l 682 364 q 782 301 732 335 q 984 181 900 226 q 1169 102 1068 135 q 1378 69 1271 69 q 1548 101 1482 69 q 1614 200 1614 133 q 1583 277 1614 247 q 1508 320 1551 307 q 1429 333 1465 333 l 1429 347 m 206 72 q 417 144 313 72 q 635 343 522 215 q 354 414 486 414 q 190 377 254 414 q 99 288 126 340 q 71 183 71 235 q 106 100 71 128 q 206 72 142 72 z "},"M":{"ha":1667,"x_min":42,"x_max":1619,"o":"m 568 961 q 338 717 443 871 q 173 385 233 564 q 113 43 113 207 l 126 39 q 342 481 203 263 q 640 840 482 700 q 924 979 797 979 q 1018 942 990 979 q 1046 853 1046 904 q 1009 714 1046 786 q 921 576 972 642 q 785 417 869 511 q 640 240 688 307 q 592 121 592 174 q 604 85 592 96 q 640 75 617 75 q 770 135 703 75 q 899 282 838 194 q 1056 519 960 369 q 1220 767 1154 675 q 1359 924 1286 860 q 1501 988 1432 988 q 1587 950 1554 988 q 1619 842 1619 913 q 1583 687 1619 765 q 1494 541 1546 608 q 1360 379 1442 474 q 1235 226 1275 282 q 1196 126 1196 171 q 1217 83 1196 97 q 1283 69 1239 69 q 1461 133 1389 69 q 1589 294 1533 196 l 1601 289 q 1536 164 1581 233 q 1428 40 1492 94 q 1292 -14 1364 -14 q 1206 17 1238 -14 q 1174 100 1174 47 q 1224 244 1174 168 q 1376 440 1275 321 q 1541 653 1485 567 q 1597 819 1597 740 q 1574 881 1597 857 q 1507 904 1551 904 q 1347 835 1428 904 q 1197 666 1267 765 q 1025 403 1126 567 q 883 183 939 264 q 769 49 828 103 q 658 -6 711 -6 q 594 25 618 -6 q 571 103 571 56 q 631 270 571 182 q 808 489 692 358 q 968 685 915 610 q 1021 824 1021 761 q 997 876 1021 857 q 933 896 974 896 q 660 776 815 896 q 362 451 506 657 q 129 0 218 246 l 90 13 q 199 545 90 300 q 528 954 307 790 l 518 964 q 329 929 468 949 q 130 892 197 913 q 63 825 63 871 q 151 692 63 768 l 140 682 q 42 835 42 757 q 97 940 42 897 q 294 983 151 983 q 532 989 400 983 l 568 961 z "},"N":{"ha":1667,"x_min":63,"x_max":1619,"o":"m 1307 -15 q 1224 15 1251 -15 q 1196 100 1196 46 q 1239 245 1196 172 q 1367 425 1282 318 q 1493 604 1451 533 q 1535 746 1535 675 q 1317 896 1535 896 q 894 778 1115 896 q 465 458 672 661 q 96 0 258 254 l 63 13 q 120 378 63 200 q 284 710 178 557 q 536 974 390 863 l 547 965 q 333 701 442 874 q 155 346 225 528 q 85 47 85 164 l 99 43 q 492 528 276 315 q 921 860 707 742 q 1308 979 1135 979 q 1499 918 1436 979 q 1563 768 1563 857 q 1512 597 1563 683 q 1365 389 1461 510 q 1257 238 1292 293 q 1222 136 1222 182 q 1318 68 1222 68 q 1457 92 1381 68 q 1610 175 1533 117 l 1619 164 q 1454 33 1528 82 q 1307 -15 1381 -15 z "},"Ń":{"ha":1667,"x_min":63,"x_max":1619,"o":"m 1038 938 q 1342 963 1208 947 q 1546 993 1475 978 l 1551 981 q 1414 928 1483 943 q 1251 914 1344 914 q 1038 924 1183 914 l 1038 938 m 1307 -15 q 1224 15 1251 -15 q 1196 100 1196 46 q 1219 196 1196 151 q 1276 276 1243 240 q 1368 365 1310 311 q 1492 494 1450 439 q 1535 617 1535 549 q 1311 764 1535 764 q 895 659 1115 764 q 468 380 675 554 q 96 0 261 206 l 63 13 q 182 478 63 281 q 536 856 301 676 l 547 847 q 328 608 436 751 q 153 313 221 464 q 85 47 85 163 l 99 43 q 498 447 283 264 q 924 739 713 631 q 1303 847 1135 847 q 1498 786 1433 847 q 1563 638 1563 725 q 1535 531 1563 582 q 1471 439 1508 479 q 1369 340 1433 399 q 1258 228 1294 272 q 1222 136 1222 183 q 1318 68 1222 68 q 1457 92 1381 68 q 1610 175 1533 117 l 1619 164 q 1455 33 1528 81 q 1307 -15 1382 -15 z "},"Ň":{"ha":1667,"x_min":63,"x_max":1653,"o":"m 1283 910 q 1222 915 1253 910 q 1135 935 1192 921 q 1018 960 1065 951 q 914 968 971 968 l 914 982 q 969 986 939 986 q 1081 977 1019 986 q 1156 967 1143 968 q 1283 951 1247 951 q 1394 965 1318 951 q 1597 986 1532 986 q 1653 982 1628 986 l 1653 968 q 1436 935 1567 968 q 1355 917 1396 925 q 1283 910 1314 910 m 1307 -15 q 1224 15 1251 -15 q 1196 100 1196 46 q 1219 196 1196 151 q 1276 276 1243 240 q 1368 365 1310 311 q 1492 494 1450 439 q 1535 617 1535 549 q 1311 764 1535 764 q 895 659 1115 764 q 468 380 675 554 q 96 0 261 206 l 63 13 q 182 478 63 281 q 536 856 301 676 l 547 847 q 328 608 436 751 q 153 313 221 464 q 85 47 85 163 l 99 43 q 498 447 283 264 q 924 739 713 631 q 1303 847 1135 847 q 1498 786 1433 847 q 1563 638 1563 725 q 1535 531 1563 582 q 1471 439 1508 479 q 1369 340 1433 399 q 1258 228 1294 272 q 1222 136 1222 183 q 1318 68 1222 68 q 1457 92 1381 68 q 1610 175 1533 117 l 1619 164 q 1455 33 1528 81 q 1307 -15 1382 -15 z "},"Ņ":{"ha":1667,"x_min":63,"x_max":1619,"o":"m 1307 -15 q 1224 15 1251 -15 q 1196 100 1196 46 q 1239 245 1196 172 q 1367 425 1282 318 q 1493 604 1451 533 q 1535 746 1535 675 q 1317 896 1535 896 q 894 778 1115 896 q 465 458 672 661 q 96 0 258 254 l 63 13 q 120 378 63 200 q 284 710 178 557 q 536 974 390 863 l 547 965 q 333 701 442 874 q 155 346 225 528 q 85 47 85 164 l 99 43 q 492 528 276 315 q 921 860 707 742 q 1308 979 1135 979 q 1499 918 1436 979 q 1563 768 1563 857 q 1512 597 1563 683 q 1365 389 1461 510 q 1257 238 1292 293 q 1222 136 1222 182 q 1318 68 1222 68 q 1457 92 1381 68 q 1610 175 1533 117 l 1619 164 q 1454 33 1528 82 q 1307 -15 1381 -15 m 540 4 q 689 29 643 14 q 735 74 735 44 q 699 106 735 97 l 704 126 q 757 113 739 126 q 775 78 775 100 q 543 -10 775 4 l 540 4 z "},"Ŋ":{"ha":1667,"x_min":63,"x_max":1639,"o":"m 1231 -18 q 1086 21 1151 -18 q 946 126 1021 60 l 956 138 q 1086 75 1013 99 q 1222 51 1160 51 q 1422 122 1332 51 q 1565 309 1513 192 q 1618 561 1618 426 q 1524 821 1618 746 q 1294 896 1431 896 q 884 772 1107 896 q 452 442 661 649 q 96 0 243 236 l 63 13 q 120 378 63 200 q 284 710 178 557 q 536 974 390 863 l 547 965 q 333 701 442 874 q 155 346 225 528 q 85 47 85 164 l 99 43 q 497 533 279 319 q 931 863 715 746 q 1321 979 1147 979 q 1556 885 1472 979 q 1639 600 1639 790 q 1583 295 1639 438 q 1434 67 1528 153 q 1231 -18 1340 -18 z "},"Ñ":{"ha":1667,"x_min":63,"x_max":1619,"o":"m 1114 886 q 1026 895 1061 886 q 946 924 990 904 q 876 949 903 942 q 810 957 849 957 q 693 939 749 957 q 600 896 638 921 l 590 910 q 703 969 643 944 q 810 993 763 993 q 876 986 846 993 q 944 967 906 979 q 1028 944 990 951 q 1115 936 1067 936 q 1264 953 1197 936 q 1371 993 1331 969 l 1379 978 q 1345 956 1378 978 q 1244 910 1313 933 q 1114 886 1176 886 m 1307 -15 q 1224 15 1251 -15 q 1196 100 1196 46 q 1219 196 1196 151 q 1276 276 1243 240 q 1368 365 1310 311 q 1492 494 1450 439 q 1535 617 1535 549 q 1311 764 1535 764 q 895 659 1115 764 q 468 380 675 554 q 96 0 261 206 l 63 13 q 182 478 63 281 q 536 856 301 676 l 547 847 q 328 608 436 751 q 153 313 221 464 q 85 47 85 163 l 99 43 q 498 447 283 264 q 924 739 713 631 q 1303 847 1135 847 q 1498 786 1433 847 q 1563 638 1563 725 q 1535 531 1563 582 q 1471 439 1508 479 q 1369 340 1433 399 q 1258 228 1294 272 q 1222 136 1222 183 q 1318 68 1222 68 q 1457 92 1381 68 q 1610 175 1533 117 l 1619 164 q 1455 33 1528 81 q 1307 -15 1382 -15 z "},"O":{"ha":1667,"x_min":53,"x_max":1624,"o":"m 1358 938 q 1549 864 1475 938 q 1624 661 1624 790 q 1490 333 1624 488 q 1125 86 1356 179 q 622 -7 894 -7 q 207 82 361 -7 q 53 339 53 171 q 170 638 53 488 q 481 883 288 788 q 888 979 674 979 q 1038 962 967 979 q 1188 901 1108 944 q 1358 938 1281 938 m 618 69 q 1126 155 900 69 q 1477 378 1351 240 q 1603 664 1603 515 q 1540 810 1603 767 q 1346 854 1476 854 q 1156 828 1246 854 q 960 740 1067 803 q 704 560 854 676 l 694 571 q 1146 885 957 800 q 1025 903 1099 897 q 890 910 951 910 q 481 822 669 910 q 183 603 293 735 q 74 349 74 471 q 226 136 74 203 q 618 69 379 69 z "},"Ó":{"ha":1667,"x_min":67,"x_max":1624,"o":"m 1460 981 q 1322 928 1392 943 q 1160 914 1253 914 q 946 924 1092 914 l 946 938 q 1250 963 1117 947 q 1454 993 1383 978 l 1460 981 m 1344 819 q 1481 790 1417 819 q 1584 704 1544 761 q 1624 565 1624 647 q 1490 283 1624 417 q 1126 67 1356 149 q 625 -14 896 -14 q 217 63 367 -14 q 67 281 67 140 q 179 542 67 406 q 478 770 292 679 q 874 861 664 861 q 1024 844 953 861 q 1174 783 1094 826 q 1344 819 1267 819 m 618 63 q 1125 136 900 63 q 1476 327 1350 210 q 1603 568 1603 444 q 1532 699 1603 661 q 1338 736 1461 736 q 1143 710 1233 736 q 947 622 1053 685 q 690 442 840 558 l 681 453 q 1132 767 943 682 q 1010 785 1085 779 q 874 792 936 792 q 476 708 657 792 q 192 506 296 625 q 88 288 88 386 q 236 117 88 172 q 618 63 385 63 z "},"Ô":{"ha":1667,"x_min":67,"x_max":1624,"o":"m 1204 951 q 1076 936 1168 951 q 1002 926 1064 935 q 890 917 940 917 q 835 921 860 917 l 835 935 q 939 943 892 935 q 1056 968 986 951 q 1143 988 1113 982 q 1204 993 1174 993 q 1276 985 1235 993 q 1357 968 1317 978 q 1574 935 1488 935 l 1574 921 q 1518 917 1549 917 q 1315 938 1453 917 q 1204 951 1239 951 m 1344 819 q 1481 790 1417 819 q 1584 704 1544 761 q 1624 565 1624 647 q 1490 283 1624 417 q 1126 67 1356 149 q 625 -14 896 -14 q 217 63 367 -14 q 67 281 67 140 q 179 542 67 406 q 478 770 292 679 q 874 861 664 861 q 1024 844 953 861 q 1174 783 1094 826 q 1344 819 1267 819 m 618 63 q 1125 136 900 63 q 1476 327 1350 210 q 1603 568 1603 444 q 1532 699 1603 661 q 1338 736 1461 736 q 1143 710 1233 736 q 947 622 1053 685 q 690 442 840 558 l 681 453 q 1132 767 943 682 q 1010 785 1085 779 q 874 792 936 792 q 476 708 657 792 q 192 506 296 625 q 88 288 88 386 q 236 117 88 172 q 618 63 385 63 z "},"Ö":{"ha":1667,"x_min":67,"x_max":1624,"o":"m 911 888 q 859 900 878 888 q 840 939 840 913 q 861 993 840 965 l 875 990 l 875 978 q 938 931 875 931 q 997 939 968 931 q 1071 965 1025 947 l 1078 953 q 911 888 981 888 m 1388 888 q 1335 900 1354 888 q 1317 939 1317 913 q 1338 993 1317 965 l 1351 990 l 1351 978 q 1367 943 1351 956 q 1414 931 1383 931 q 1473 939 1444 931 q 1547 965 1501 947 l 1554 953 q 1388 888 1457 888 m 1344 819 q 1481 790 1417 819 q 1584 704 1544 761 q 1624 565 1624 647 q 1490 283 1624 417 q 1126 67 1356 149 q 625 -14 896 -14 q 217 63 367 -14 q 67 281 67 140 q 179 542 67 406 q 478 770 292 679 q 874 861 664 861 q 1024 844 953 861 q 1174 783 1094 826 q 1344 819 1267 819 m 618 63 q 1125 136 900 63 q 1476 327 1350 210 q 1603 568 1603 444 q 1532 699 1603 661 q 1338 736 1461 736 q 1143 710 1233 736 q 947 622 1053 685 q 690 442 840 558 l 681 453 q 1132 767 943 682 q 1010 785 1085 779 q 874 792 936 792 q 476 708 657 792 q 192 506 296 625 q 88 288 88 386 q 236 117 88 172 q 618 63 385 63 z "},"Ò":{"ha":1667,"x_min":67,"x_max":1624,"o":"m 1457 924 q 1243 914 1311 914 q 1081 928 1150 914 q 943 981 1011 943 l 949 993 q 1153 963 1019 978 q 1457 938 1286 947 l 1457 924 m 1344 819 q 1481 790 1417 819 q 1584 704 1544 761 q 1624 565 1624 647 q 1490 283 1624 417 q 1126 67 1356 149 q 625 -14 896 -14 q 217 63 367 -14 q 67 281 67 140 q 179 542 67 406 q 478 770 292 679 q 874 861 664 861 q 1024 844 953 861 q 1174 783 1094 826 q 1344 819 1267 819 m 618 63 q 1125 136 900 63 q 1476 327 1350 210 q 1603 568 1603 444 q 1532 699 1603 661 q 1338 736 1461 736 q 1143 710 1233 736 q 947 622 1053 685 q 690 442 840 558 l 681 453 q 1132 767 943 682 q 1010 785 1085 779 q 874 792 936 792 q 476 708 657 792 q 192 506 296 625 q 88 288 88 386 q 236 117 88 172 q 618 63 385 63 z "},"Ő":{"ha":1667,"x_min":67,"x_max":1643,"o":"m 1193 981 q 1066 928 1124 943 q 936 914 1008 914 q 763 924 883 914 l 763 938 q 1188 993 1014 956 l 1193 981 m 1643 981 q 1516 928 1574 943 q 1386 914 1458 914 q 1213 924 1335 914 l 1213 938 q 1638 993 1464 956 l 1643 981 m 1344 819 q 1481 790 1417 819 q 1584 704 1544 761 q 1624 565 1624 647 q 1490 283 1624 417 q 1126 67 1356 149 q 625 -14 896 -14 q 217 63 367 -14 q 67 281 67 140 q 179 542 67 406 q 478 770 292 679 q 874 861 664 861 q 1024 844 953 861 q 1174 783 1094 826 q 1344 819 1267 819 m 1603 568 q 1532 699 1603 661 q 1338 736 1461 736 q 1143 710 1233 736 q 947 622 1053 685 q 690 442 840 558 l 681 453 q 1132 767 943 682 q 1010 785 1085 779 q 874 792 936 792 q 476 708 657 792 q 192 506 296 625 q 88 288 88 386 q 236 117 88 172 q 618 63 385 63 q 1125 136 900 63 q 1476 327 1350 210 q 1603 568 1603 444 z "},"Ō":{"ha":1667,"x_min":67,"x_max":1624,"o":"m 1500 961 q 1351 940 1413 946 q 1226 935 1290 935 q 906 953 1131 935 l 906 967 q 1321 982 1203 982 q 1497 975 1375 982 l 1500 961 m 1344 819 q 1481 790 1417 819 q 1584 704 1544 761 q 1624 565 1624 647 q 1490 283 1624 417 q 1126 67 1356 149 q 625 -14 896 -14 q 217 63 367 -14 q 67 281 67 140 q 179 542 67 406 q 478 770 292 679 q 874 861 664 861 q 1024 844 953 861 q 1174 783 1094 826 q 1344 819 1267 819 m 618 63 q 1125 136 900 63 q 1476 327 1350 210 q 1603 568 1603 444 q 1532 699 1603 661 q 1338 736 1461 736 q 1143 710 1233 736 q 947 622 1053 685 q 690 442 840 558 l 681 453 q 1132 767 943 682 q 1010 785 1085 779 q 874 792 936 792 q 476 708 657 792 q 192 506 296 625 q 88 288 88 386 q 236 117 88 172 q 618 63 385 63 z "},"Ø":{"ha":1667,"x_min":22,"x_max":1624,"o":"m 1344 910 q 1481 881 1417 910 q 1584 794 1544 853 q 1624 653 1624 736 q 1488 355 1624 504 q 1123 110 1353 206 q 626 14 893 14 q 382 43 492 14 q 199 128 272 72 l 32 -14 l 22 -3 q 178 143 128 97 q 67 378 67 236 q 178 651 67 511 q 477 881 290 790 q 874 972 664 972 q 1025 948 954 972 q 1175 875 1096 924 q 1344 910 1272 910 m 88 378 q 218 181 88 257 q 739 618 513 449 q 1133 858 965 788 q 1008 890 1082 876 q 874 903 935 903 q 475 819 656 903 q 191 613 294 736 q 88 378 88 489 m 626 90 q 1124 179 900 90 q 1475 400 1347 268 q 1603 653 1603 532 q 1526 795 1603 750 q 1331 840 1449 840 q 1046 763 1200 840 q 711 549 892 686 q 243 167 531 411 q 416 110 317 129 q 626 90 515 90 z "},"Õ":{"ha":1667,"x_min":67,"x_max":1624,"o":"m 1014 957 q 897 939 953 957 q 804 896 842 921 l 794 910 q 907 969 847 944 q 1014 993 967 993 q 1080 986 1050 993 q 1149 967 1110 979 q 1232 944 1194 951 q 1319 936 1269 936 q 1468 953 1401 936 q 1575 993 1535 969 l 1583 978 q 1549 956 1582 978 q 1449 910 1517 933 q 1318 886 1381 886 q 1230 895 1265 886 q 1150 924 1194 904 q 1080 949 1107 942 q 1014 957 1053 957 m 1344 819 q 1481 790 1417 819 q 1584 704 1544 761 q 1624 565 1624 647 q 1490 283 1624 417 q 1126 67 1356 149 q 625 -14 896 -14 q 217 63 367 -14 q 67 281 67 140 q 179 542 67 406 q 478 770 292 679 q 874 861 664 861 q 1024 844 953 861 q 1174 783 1094 826 q 1344 819 1267 819 m 618 63 q 1125 136 900 63 q 1476 327 1350 210 q 1603 568 1603 444 q 1532 699 1603 661 q 1338 736 1461 736 q 1143 710 1233 736 q 947 622 1053 685 q 690 442 840 558 l 681 453 q 1132 767 943 682 q 1010 785 1085 779 q 874 792 936 792 q 476 708 657 792 q 192 506 296 625 q 88 288 88 386 q 236 117 88 172 q 618 63 385 63 z "},"Œ":{"ha":1667,"x_min":53,"x_max":1615,"o":"m 1190 69 q 1420 113 1328 69 q 1579 246 1513 156 l 1592 239 q 1419 60 1526 128 q 1190 -7 1311 -7 q 1058 9 1133 -7 q 918 63 983 25 q 515 -7 710 -7 q 177 81 301 -7 q 53 335 53 168 q 163 642 53 493 q 449 884 274 792 q 806 976 624 976 q 993 942 914 976 q 1140 843 1072 907 l 1132 829 q 992 886 1082 865 q 810 907 903 907 q 448 823 618 907 q 176 608 278 739 q 74 346 74 476 q 197 136 74 203 q 521 69 321 69 q 853 113 685 69 q 756 356 756 206 q 791 514 756 449 q 885 613 826 579 q 1013 646 944 646 q 1092 632 1060 646 q 1169 590 1125 618 q 1231 553 1204 565 q 1293 542 1258 542 q 1352 557 1332 542 q 1372 593 1372 572 q 1356 628 1372 614 q 1304 658 1339 642 q 1220 716 1250 686 q 1190 801 1190 746 q 1217 892 1190 850 q 1290 960 1243 935 q 1394 986 1338 986 q 1507 956 1457 986 q 1586 868 1557 925 q 1615 735 1615 811 q 1533 488 1615 610 q 1312 263 1451 365 q 1001 93 1172 161 q 1190 69 1089 69 m 776 361 q 813 224 776 282 q 914 129 849 165 q 1257 282 1101 185 q 1503 497 1413 379 q 1594 726 1594 614 q 1533 867 1594 825 q 1385 910 1472 910 q 1258 877 1304 910 q 1211 796 1211 844 q 1233 741 1211 761 q 1300 697 1254 721 q 1370 650 1347 671 q 1393 592 1393 629 q 1367 523 1393 554 q 1286 492 1342 492 q 1226 502 1254 492 q 1161 535 1199 513 q 1084 573 1118 560 q 1004 586 1050 586 q 895 562 947 586 q 810 487 843 538 q 776 361 776 436 z "},"P":{"ha":1667,"x_min":38,"x_max":1606,"o":"m 918 929 q 1276 849 1121 907 q 1518 699 1431 792 q 1606 483 1606 606 q 1530 295 1606 368 q 1318 222 1454 222 q 1097 270 1218 222 q 797 435 976 318 l 806 446 q 1315 299 1083 299 q 1521 348 1457 299 q 1585 479 1585 397 q 1492 661 1585 581 q 1230 793 1399 742 q 838 860 1061 844 q 758 738 793 807 q 678 557 724 668 q 546 280 608 388 q 370 92 483 172 q 81 0 257 13 l 81 14 q 341 102 236 25 q 508 283 446 179 q 646 551 571 386 q 734 735 696 664 q 819 861 772 806 q 658 865 742 865 q 349 842 485 865 q 135 772 213 818 q 58 663 58 726 q 112 571 58 607 q 243 535 165 535 l 243 521 q 97 560 157 521 q 38 669 38 599 q 109 805 38 743 q 324 904 181 867 q 675 942 468 942 q 897 931 783 942 q 1033 983 957 974 l 1035 969 q 918 929 969 961 z "},"Þ":{"ha":1667,"x_min":38,"x_max":1606,"o":"m 947 799 q 1289 707 1140 771 q 1522 546 1438 643 q 1606 328 1606 449 q 1523 140 1606 210 q 1271 69 1440 69 q 997 115 1149 69 q 597 279 846 161 q 373 85 497 158 q 81 0 249 11 l 81 14 q 349 99 232 25 q 567 294 467 172 q 533 310 549 303 q 506 324 518 318 l 514 335 l 579 308 q 681 449 629 371 q 749 550 733 528 q 871 731 829 675 q 660 740 778 740 q 349 717 486 740 q 135 647 213 693 q 58 535 58 600 q 111 444 58 479 q 243 410 164 410 l 243 396 q 97 435 157 396 q 38 544 38 474 q 109 680 38 618 q 324 779 181 742 q 675 817 468 817 q 928 801 801 817 q 1063 921 993 876 q 1214 976 1132 965 l 1215 963 q 1072 911 1136 953 q 947 799 1007 869 m 1269 146 q 1514 192 1443 146 q 1585 322 1585 239 q 1499 507 1585 422 q 1258 649 1414 592 q 894 728 1101 707 q 829 629 864 685 q 783 556 794 574 q 610 296 679 383 q 984 178 829 211 q 1269 146 1139 146 z "},"Q":{"ha":1667,"x_min":53,"x_max":1624,"o":"m 1603 -12 q 1528 155 1575 67 q 1436 304 1482 243 q 1072 75 1288 157 q 613 -7 857 -7 q 313 35 439 -7 q 120 157 188 76 q 53 351 53 238 q 170 652 53 506 q 481 891 288 799 q 888 983 674 983 q 1040 967 971 983 q 1176 910 1108 950 q 1344 938 1268 938 q 1490 903 1426 938 q 1588 810 1553 869 q 1624 674 1624 750 q 1582 502 1624 590 q 1461 329 1540 414 q 1549 165 1506 260 q 1617 -10 1593 69 l 1603 -12 m 610 69 q 1053 140 851 69 q 1414 333 1256 210 q 1263 475 1344 418 q 1111 532 1182 532 q 957 483 1043 532 q 746 342 871 433 q 578 227 640 264 q 474 190 517 190 q 414 210 436 190 q 392 271 392 231 q 504 480 392 354 q 790 722 617 606 q 1135 896 964 838 q 1024 909 1093 904 q 901 914 954 914 q 496 831 688 914 q 189 619 304 749 q 74 361 74 490 q 221 143 74 217 q 610 69 368 69 m 479 267 q 630 310 554 267 q 821 438 706 353 q 993 555 924 515 q 1125 594 1063 594 q 1292 526 1206 594 q 1442 353 1379 458 q 1561 516 1519 435 q 1603 674 1603 597 q 1529 820 1603 779 q 1350 861 1456 861 q 947 760 1165 861 q 575 522 729 658 q 421 297 421 386 q 432 275 421 283 q 479 267 443 267 z "},"R":{"ha":1667,"x_min":24,"x_max":1643,"o":"m 1643 239 q 1498 51 1578 110 q 1315 -7 1418 -7 q 1003 83 1179 -7 q 636 329 828 174 q 291 206 426 281 q 106 0 156 131 l 74 0 q 63 82 63 42 q 206 465 63 256 q 528 856 350 675 l 539 844 q 233 469 390 693 q 86 44 76 246 l 101 43 q 284 242 161 163 q 579 376 407 322 q 468 476 517 429 l 478 488 q 611 386 538 439 q 783 431 688 408 q 965 472 878 453 q 1235 536 1139 510 q 1393 605 1331 563 q 1456 710 1456 647 q 1294 856 1456 814 q 885 899 1132 899 q 526 881 707 899 q 210 841 346 864 q 28 803 75 818 l 24 817 q 430 925 188 871 q 954 979 672 979 q 1336 923 1196 979 q 1476 722 1476 867 q 1395 549 1476 614 q 1194 449 1314 483 q 863 375 1074 415 q 678 339 733 351 q 1315 74 1064 74 q 1631 246 1508 74 l 1643 239 z "},"Ŕ":{"ha":1667,"x_min":24,"x_max":1643,"o":"m 1242 981 q 1104 928 1174 943 q 942 914 1035 914 q 728 924 874 914 l 728 938 q 1032 963 899 947 q 1236 993 1165 978 l 1242 981 m 1643 239 q 1498 51 1578 110 q 1315 -7 1418 -7 q 1022 74 1186 -7 q 678 296 858 154 q 304 203 450 268 q 106 0 158 139 l 74 0 q 63 82 63 42 q 172 408 63 231 q 436 757 281 586 q 189 719 300 740 q 28 685 78 699 l 24 699 q 427 807 186 753 q 940 861 668 861 q 1326 801 1176 861 q 1476 604 1476 740 q 1397 440 1476 497 q 1199 361 1317 383 q 874 318 1081 339 l 732 303 q 1315 74 1081 74 q 1631 246 1508 74 l 1643 239 m 101 43 q 296 240 164 168 q 613 349 428 311 q 468 476 540 408 l 478 488 q 653 356 544 435 q 972 399 768 376 q 1237 434 1142 417 q 1394 488 1332 451 q 1456 589 1456 525 q 1288 740 1456 696 q 868 785 1119 785 q 460 760 663 785 q 195 402 311 594 q 86 44 79 210 l 101 43 z "},"Ř":{"ha":1667,"x_min":24,"x_max":1643,"o":"m 1350 968 q 1133 935 1264 968 q 1052 917 1093 925 q 981 910 1011 910 q 919 915 950 910 q 832 935 889 921 q 715 960 763 951 q 611 968 668 968 l 611 982 q 667 986 636 986 q 778 977 717 986 q 853 967 840 968 q 981 951 944 951 q 1092 965 1015 951 q 1294 986 1229 986 q 1350 982 1325 986 l 1350 968 m 1643 239 q 1498 51 1578 110 q 1315 -7 1418 -7 q 1022 74 1186 -7 q 678 296 858 154 q 304 203 450 268 q 106 0 158 139 l 74 0 q 63 82 63 42 q 172 408 63 231 q 436 757 281 586 q 189 719 300 740 q 28 685 78 699 l 24 699 q 427 807 186 753 q 940 861 668 861 q 1326 801 1176 861 q 1476 604 1476 740 q 1397 440 1476 497 q 1199 361 1317 383 q 874 318 1081 339 l 732 303 q 1315 74 1081 74 q 1631 246 1508 74 l 1643 239 m 101 43 q 296 240 164 168 q 613 349 428 311 q 468 476 540 408 l 478 488 q 653 356 544 435 q 972 399 768 376 q 1237 434 1142 417 q 1394 488 1332 451 q 1456 589 1456 525 q 1288 740 1456 696 q 868 785 1119 785 q 460 760 663 785 q 195 402 311 594 q 86 44 79 210 l 101 43 z "},"Ŗ":{"ha":1667,"x_min":24,"x_max":1643,"o":"m 1643 239 q 1498 51 1578 110 q 1315 -7 1418 -7 q 1003 83 1179 -7 q 636 329 828 174 q 291 206 426 281 q 106 0 156 131 l 74 0 q 63 82 63 42 q 206 465 63 256 q 528 856 350 675 l 539 844 q 233 469 390 693 q 86 44 76 246 l 101 43 q 284 242 161 163 q 579 376 407 322 q 468 476 517 429 l 478 488 q 611 386 538 439 q 783 431 688 408 q 965 472 878 453 q 1235 536 1139 510 q 1393 605 1331 563 q 1456 710 1456 647 q 1294 856 1456 814 q 885 899 1132 899 q 526 881 707 899 q 210 841 346 864 q 28 803 75 818 l 24 817 q 430 925 188 871 q 954 979 672 979 q 1336 923 1196 979 q 1476 722 1476 867 q 1395 549 1476 614 q 1194 449 1314 483 q 863 375 1074 415 q 678 339 733 351 q 1315 74 1064 74 q 1631 246 1508 74 l 1643 239 m 344 4 q 493 29 447 14 q 539 74 539 44 q 503 106 539 97 l 508 126 q 561 113 543 126 q 579 78 579 100 q 347 -10 579 4 l 344 4 z "},"S":{"ha":1667,"x_min":46,"x_max":1644,"o":"m 1174 903 q 1014 883 1088 903 q 897 826 940 863 q 853 747 853 790 q 889 681 853 707 q 980 640 925 656 q 1132 606 1035 625 q 1363 548 1274 576 q 1515 459 1451 519 q 1579 297 1579 399 q 1445 75 1579 156 q 1063 -6 1311 -6 q 576 75 811 -6 q 194 303 342 156 q 46 640 46 450 q 72 777 46 721 q 140 860 99 833 q 228 888 182 888 q 336 838 292 888 q 397 728 381 789 l 385 722 q 326 824 364 781 q 229 867 288 867 q 146 837 183 867 q 88 757 108 807 q 67 646 67 707 q 202 359 67 490 q 564 151 338 228 q 1049 74 790 74 q 1333 107 1218 74 q 1503 194 1449 140 q 1558 308 1558 247 q 1512 402 1558 365 q 1397 461 1465 439 q 1213 511 1329 483 q 1012 566 1088 540 q 884 636 936 592 q 832 749 832 681 q 873 862 832 808 q 992 947 914 915 q 1174 979 1069 979 q 1422 933 1308 979 q 1596 844 1535 888 l 1631 963 l 1644 960 l 1607 793 q 1401 872 1518 842 q 1174 903 1283 903 z "},"Ś":{"ha":1667,"x_min":46,"x_max":1644,"o":"m 1467 981 q 1329 928 1399 943 q 1167 914 1260 914 q 953 924 1099 914 l 953 938 q 1257 963 1124 947 q 1461 993 1390 978 l 1467 981 m 1174 785 q 945 747 1038 785 q 853 643 853 708 q 892 576 853 601 q 990 535 932 550 q 1156 501 1049 521 q 1375 454 1290 478 q 1519 383 1460 431 q 1579 254 1579 335 q 1445 61 1579 128 q 1075 -6 1311 -6 q 577 70 814 -6 q 193 290 340 146 q 46 624 46 433 q 72 753 46 699 q 141 834 99 807 q 229 861 183 861 q 337 812 293 861 q 397 701 381 763 l 385 696 q 326 797 364 754 q 229 840 288 840 q 110 776 154 840 q 67 624 67 711 q 201 346 67 472 q 566 147 335 219 q 1075 74 797 74 q 1331 99 1221 74 q 1499 167 1440 125 q 1558 254 1558 208 q 1513 339 1558 306 q 1398 391 1467 372 q 1215 432 1329 410 q 1014 476 1090 454 q 885 538 938 497 q 832 643 832 578 q 873 753 832 703 q 991 832 914 803 q 1174 861 1068 861 q 1422 815 1308 861 q 1596 726 1535 769 l 1631 844 l 1644 842 l 1607 675 q 1401 754 1518 724 q 1174 785 1283 785 z "},"Š":{"ha":1667,"x_min":46,"x_max":1644,"o":"m 1586 968 q 1369 935 1500 968 q 1288 917 1329 925 q 1217 910 1247 910 q 1156 915 1186 910 q 1068 935 1125 921 q 951 960 999 951 q 847 968 904 968 l 847 982 q 903 986 872 986 q 1015 977 953 986 q 1089 967 1076 968 q 1217 951 1181 951 q 1328 965 1251 951 q 1531 986 1465 986 q 1586 982 1561 986 l 1586 968 m 1174 785 q 945 747 1038 785 q 853 643 853 708 q 892 576 853 601 q 990 535 932 550 q 1156 501 1049 521 q 1375 454 1290 478 q 1519 383 1460 431 q 1579 254 1579 335 q 1445 61 1579 128 q 1075 -6 1311 -6 q 577 70 814 -6 q 193 290 340 146 q 46 624 46 433 q 72 753 46 699 q 141 834 99 807 q 229 861 183 861 q 337 812 293 861 q 397 701 381 763 l 385 696 q 326 797 364 754 q 229 840 288 840 q 110 776 154 840 q 67 624 67 711 q 201 346 67 472 q 566 147 335 219 q 1075 74 797 74 q 1331 99 1221 74 q 1499 167 1440 125 q 1558 254 1558 208 q 1513 339 1558 306 q 1398 391 1467 372 q 1215 432 1329 410 q 1014 476 1090 454 q 885 538 938 497 q 832 643 832 578 q 873 753 832 703 q 991 832 914 803 q 1174 861 1068 861 q 1422 815 1308 861 q 1596 726 1535 769 l 1631 844 l 1644 842 l 1607 675 q 1401 754 1518 724 q 1174 785 1283 785 z "},"Ş":{"ha":1667,"x_min":46,"x_max":1644,"o":"m 1174 913 q 1014 892 1088 913 q 897 836 940 872 q 853 757 853 800 q 892 692 853 717 q 988 652 931 667 q 1149 621 1046 638 q 1372 575 1286 599 q 1518 502 1457 551 q 1579 368 1579 453 q 1449 155 1579 229 q 1075 81 1318 81 q 811 103 936 81 q 840 51 840 79 q 699 -17 840 -19 l 697 -1 q 792 61 792 3 q 768 110 792 90 q 402 238 565 150 q 142 456 239 325 q 46 751 46 588 q 72 881 46 826 q 141 962 99 935 q 229 989 183 989 q 337 940 293 989 q 397 829 381 890 l 385 824 q 326 925 364 882 q 229 968 288 968 q 144 938 181 968 q 87 857 107 907 q 67 751 67 807 q 201 451 67 586 q 565 238 335 315 q 1075 160 796 160 q 1336 190 1226 160 q 1502 267 1446 219 q 1558 368 1558 315 q 1511 459 1558 425 q 1395 512 1464 493 q 1207 551 1326 531 q 1008 595 1081 575 q 883 654 935 615 q 832 757 832 693 q 873 871 832 818 q 992 956 914 924 q 1174 989 1069 989 q 1422 943 1308 989 q 1596 854 1535 897 l 1631 972 l 1644 969 l 1607 803 q 1401 882 1518 851 q 1174 913 1283 913 z "},"Ș":{"ha":1667,"x_min":46,"x_max":1644,"o":"m 1174 913 q 945 874 1038 913 q 853 771 853 836 q 892 703 853 729 q 990 663 932 678 q 1156 629 1049 649 q 1375 582 1290 606 q 1519 510 1460 558 q 1579 382 1579 463 q 1445 189 1579 256 q 1075 122 1311 122 q 577 198 814 122 q 193 417 340 274 q 46 751 46 561 q 72 881 46 826 q 141 962 99 935 q 229 989 183 989 q 337 940 293 989 q 397 829 381 890 l 385 824 q 326 925 364 882 q 229 968 288 968 q 110 903 154 968 q 67 751 67 839 q 201 474 67 600 q 566 274 335 347 q 1075 201 797 201 q 1331 227 1221 201 q 1499 294 1440 253 q 1558 382 1558 336 q 1513 467 1558 433 q 1398 519 1467 500 q 1215 560 1329 538 q 1014 603 1090 582 q 885 665 938 625 q 832 771 832 706 q 873 881 832 831 q 991 960 914 931 q 1174 989 1068 989 q 1422 943 1308 989 q 1596 854 1535 897 l 1631 972 l 1644 969 l 1607 803 q 1401 882 1518 851 q 1174 913 1283 913 m 540 122 q 593 109 575 122 q 611 74 611 96 q 379 -14 611 0 l 376 0 q 525 25 479 10 q 571 69 571 40 q 535 101 571 93 l 540 122 z "},"ẞ":{"ha":1667,"x_min":25,"x_max":1592,"o":"m 1247 -11 q 1040 23 1147 -11 q 842 113 932 57 q 706 233 753 169 l 718 242 q 838 158 754 199 q 1031 91 922 117 q 1243 65 1139 65 q 1424 93 1346 65 q 1501 190 1501 121 q 1462 273 1501 238 q 1367 331 1422 308 q 1218 386 1311 354 q 1050 451 1106 422 q 994 524 994 481 q 1075 609 994 575 q 1310 682 1156 643 q 1506 740 1442 714 q 1571 800 1571 765 q 1418 873 1571 850 q 918 896 1265 896 q 566 883 715 896 q 314 826 417 871 q 211 696 211 782 q 265 598 211 633 q 396 563 318 563 l 396 549 q 251 588 313 549 q 190 701 190 626 q 376 901 190 826 q 954 975 563 975 q 1331 949 1189 975 q 1533 883 1474 922 q 1592 803 1592 844 q 1508 714 1592 749 q 1268 640 1425 679 q 1077 583 1139 607 q 1015 526 1015 560 q 1053 485 1015 500 q 1178 449 1090 471 q 1351 399 1281 425 q 1472 324 1421 374 q 1522 194 1522 274 q 1447 43 1522 97 q 1247 -11 1371 -11 m 25 14 q 274 106 171 36 q 441 263 376 176 q 586 488 506 350 q 690 653 647 592 q 790 763 732 714 q 922 833 847 813 l 924 819 q 799 754 851 800 q 710 649 747 708 q 624 493 674 590 q 488 260 551 351 q 310 97 424 169 q 25 0 197 24 l 25 14 z "},"T":{"ha":1667,"x_min":83,"x_max":1658,"o":"m 1658 914 q 1487 749 1542 818 q 1432 601 1432 681 q 1439 542 1432 572 q 1454 494 1446 513 l 1442 486 q 1415 533 1426 503 q 1404 601 1404 564 q 1458 749 1404 681 q 1615 907 1511 818 l 1606 914 q 1417 815 1524 853 q 1124 778 1310 778 q 938 788 1044 778 q 786 560 881 717 q 631 324 697 415 q 465 150 564 232 q 238 25 367 68 l 240 14 l 290 29 q 516 94 415 69 q 701 119 617 119 q 879 92 803 119 q 1029 13 956 64 l 1024 0 q 853 44 933 29 q 672 60 772 60 q 206 -15 488 60 l 192 31 q 408 142 313 65 q 574 310 504 219 q 738 544 643 400 q 832 687 793 631 q 913 792 871 743 q 583 849 790 806 q 392 884 464 872 q 258 896 319 896 q 144 876 183 896 q 104 817 104 856 q 133 742 104 779 q 193 678 163 704 l 182 668 q 83 821 83 743 q 103 894 83 857 q 167 955 124 931 q 276 979 211 979 q 381 968 321 979 q 550 933 440 957 q 775 887 676 906 q 976 858 874 868 q 1214 976 1086 960 l 1215 963 q 1000 857 1099 950 q 1146 850 1081 850 q 1433 878 1299 850 q 1622 949 1567 906 l 1658 914 z "},"Ŧ":{"ha":1667,"x_min":83,"x_max":1658,"o":"m 1658 914 q 1487 749 1542 818 q 1432 601 1432 681 q 1439 542 1432 572 q 1454 494 1446 513 l 1442 486 q 1415 533 1426 503 q 1404 601 1404 564 q 1458 749 1404 681 q 1615 907 1511 818 l 1606 914 q 1417 815 1524 853 q 1124 778 1310 778 q 938 788 1044 778 q 869 694 901 744 q 785 560 836 644 l 736 481 q 1061 403 889 472 l 1058 389 q 704 431 871 429 q 497 177 606 279 q 238 25 389 75 l 240 14 l 290 29 q 516 94 415 69 q 701 119 617 119 q 879 92 803 119 q 1029 13 956 64 l 1024 0 q 853 44 933 29 q 672 60 772 60 q 206 -15 488 60 l 192 31 q 447 174 338 72 q 663 431 556 275 q 456 418 550 429 q 265 379 361 407 l 263 393 q 470 453 353 425 q 696 482 588 482 l 697 482 l 726 528 q 829 683 789 625 q 913 792 869 740 q 583 849 790 806 q 392 884 464 872 q 258 896 319 896 q 144 876 183 896 q 104 817 104 856 q 133 742 104 779 q 193 678 163 704 l 182 668 q 83 821 83 743 q 103 894 83 857 q 167 955 124 931 q 276 979 211 979 q 381 968 321 979 q 550 933 440 957 q 775 887 676 906 q 976 858 874 868 q 1214 976 1086 960 l 1215 963 q 1000 857 1099 950 q 1146 850 1081 850 q 1433 878 1299 850 q 1622 949 1567 906 l 1658 914 z "},"Ť":{"ha":1667,"x_min":83,"x_max":1658,"o":"m 994 910 q 933 915 964 910 q 846 935 903 921 q 729 960 776 951 q 625 968 682 968 l 625 982 q 681 986 650 986 q 792 977 731 986 q 867 967 854 968 q 994 951 958 951 q 1106 965 1029 951 q 1308 986 1243 986 q 1364 982 1339 986 l 1364 968 q 1147 935 1278 968 q 1066 917 1107 925 q 994 910 1025 910 m 1442 486 q 1415 533 1426 503 q 1404 601 1404 564 q 1458 749 1404 681 q 1615 907 1511 818 l 1606 914 q 1417 815 1524 853 q 1124 778 1310 778 q 876 795 994 778 q 585 847 758 813 q 396 883 471 871 q 258 896 321 896 q 144 876 183 896 q 104 817 104 856 q 133 742 104 779 q 193 678 163 704 l 182 668 q 83 821 83 743 q 103 894 83 857 q 167 955 124 931 q 276 979 211 979 q 383 968 321 979 q 550 933 444 957 q 865 872 728 894 q 1146 850 1003 850 q 1433 878 1299 850 q 1622 949 1567 906 l 1658 914 q 1532 801 1576 844 q 1460 708 1488 757 q 1432 601 1432 658 q 1439 542 1432 572 q 1454 494 1446 513 l 1442 486 m 192 31 q 474 188 349 75 q 686 428 600 300 q 865 729 772 557 l 878 721 q 618 289 767 476 q 238 25 469 101 l 240 14 l 308 35 q 520 97 426 74 q 701 119 614 119 q 879 92 803 119 q 1029 13 956 64 l 1024 0 q 853 44 933 29 q 672 60 772 60 q 206 -15 488 60 l 192 31 z "},"Ţ":{"ha":1667,"x_min":83,"x_max":1658,"o":"m 1632 890 q 1521 790 1560 829 q 1457 703 1482 750 q 1432 601 1432 657 q 1439 542 1432 572 q 1454 494 1446 513 l 1442 486 q 1415 533 1426 503 q 1404 601 1404 564 q 1458 749 1404 681 q 1615 907 1511 818 l 1606 914 q 1417 815 1524 853 q 1124 778 1310 778 q 933 789 1031 778 q 856 685 893 742 q 772 550 819 629 q 634 340 692 421 q 498 191 576 260 q 321 92 419 122 l 324 81 l 392 101 q 603 163 510 140 q 785 186 697 186 q 963 158 886 186 q 1113 79 1039 131 l 1107 67 q 936 111 1017 96 q 756 126 856 126 q 615 118 690 126 q 667 51 667 85 q 525 -17 667 -19 l 524 -1 q 618 61 618 3 q 589 114 618 92 q 289 51 469 99 l 275 97 q 453 194 374 128 q 590 340 532 261 q 731 546 649 418 q 903 792 832 710 q 702 824 801 804 q 588 847 603 844 q 397 883 474 871 q 258 896 321 896 q 144 876 183 896 q 104 817 104 856 q 133 742 104 779 q 193 678 163 704 l 182 668 q 83 821 83 743 q 103 894 83 857 q 167 955 124 931 q 276 979 211 979 q 382 968 321 979 q 550 933 443 957 q 778 887 688 904 q 968 860 868 869 q 1214 976 1082 960 l 1215 963 q 997 857 1096 949 q 1146 850 1078 850 q 1433 878 1299 850 q 1622 949 1567 906 l 1658 914 l 1632 890 z "},"Ț":{"ha":1667,"x_min":83,"x_max":1658,"o":"m 1632 890 q 1521 790 1560 829 q 1457 703 1482 750 q 1432 601 1432 657 q 1439 542 1432 572 q 1454 494 1446 513 l 1442 486 q 1415 533 1426 503 q 1404 601 1404 564 q 1458 749 1404 681 q 1615 907 1511 818 l 1606 914 q 1417 815 1524 853 q 1124 778 1310 778 q 919 790 1018 778 q 827 673 874 740 q 768 589 781 606 q 633 403 690 475 q 497 268 575 331 q 321 175 418 206 l 324 164 l 392 185 q 603 247 510 224 q 785 269 697 269 q 963 242 886 269 q 1113 163 1039 214 l 1107 150 q 936 194 1017 179 q 756 210 856 210 q 289 135 571 210 l 275 181 q 453 273 374 211 q 590 405 532 335 q 729 589 649 475 q 808 699 767 643 q 888 794 850 754 q 583 849 779 808 q 391 885 463 874 q 258 896 319 896 q 144 876 183 896 q 104 817 104 856 q 133 742 104 779 q 193 678 163 704 l 182 668 q 83 821 83 743 q 103 894 83 857 q 167 955 124 931 q 276 979 211 979 q 381 968 321 979 q 550 933 440 957 q 766 888 674 906 q 957 861 858 871 q 1214 976 1074 957 l 1215 963 q 986 858 1093 947 q 1146 850 1065 850 q 1433 878 1299 850 q 1622 949 1567 906 l 1658 914 l 1632 890 m 656 126 q 708 113 690 126 q 726 78 726 100 q 494 -10 726 4 l 492 4 q 640 29 594 14 q 686 74 686 44 q 650 106 686 97 l 656 126 z "},"U":{"ha":1667,"x_min":56,"x_max":1639,"o":"m 349 -7 q 140 41 207 -7 q 74 160 74 89 q 124 267 74 224 q 250 337 175 310 q 453 397 325 364 q 686 468 597 435 q 837 559 775 501 q 899 706 899 617 q 774 889 899 847 q 543 931 649 931 q 297 902 403 931 q 134 822 192 874 q 76 707 76 771 q 165 590 76 618 q 346 561 253 561 q 526 590 451 561 q 600 685 600 618 q 588 736 600 710 q 557 782 576 763 l 571 796 q 606 746 590 776 q 621 685 621 715 q 594 597 621 639 q 509 526 568 554 q 357 499 450 499 q 199 526 268 499 q 93 599 131 553 q 56 703 56 646 q 116 844 56 778 q 283 952 176 911 q 524 993 390 993 q 799 931 678 993 q 919 708 919 869 q 843 509 919 586 q 661 392 767 432 q 392 311 556 353 q 229 266 288 285 q 133 219 171 247 q 94 153 94 192 q 163 84 94 99 q 349 69 231 69 q 961 298 685 69 q 1478 983 1238 526 l 1551 978 q 1276 501 1365 697 q 1188 197 1188 306 q 1223 106 1188 136 q 1311 76 1258 76 q 1440 115 1376 76 q 1551 217 1503 154 q 1625 347 1600 279 l 1639 342 q 1587 221 1632 307 q 1471 64 1542 135 q 1318 -7 1400 -7 q 1202 51 1238 -7 q 1167 189 1167 108 q 1248 492 1167 325 q 1451 853 1329 658 l 1503 939 l 1482 944 q 1210 525 1354 722 q 841 160 1067 328 q 349 -7 615 -7 z "},"Ú":{"ha":1667,"x_min":56,"x_max":1639,"o":"m 935 938 q 1239 963 1106 947 q 1443 993 1372 978 l 1449 981 q 1311 928 1381 943 q 1149 914 1242 914 q 935 924 1081 914 l 935 938 m 344 -7 q 140 41 206 -7 q 74 160 74 89 q 127 268 74 225 q 259 335 181 311 q 471 390 338 360 q 698 451 614 424 q 840 526 782 478 q 899 650 899 574 q 774 810 899 774 q 539 847 649 847 q 193 799 310 847 q 76 658 76 750 q 153 547 76 574 q 310 519 231 519 q 473 547 401 519 q 544 633 544 574 q 533 686 544 660 q 501 732 521 713 l 515 746 q 550 696 535 726 q 565 635 565 665 q 540 553 565 593 q 461 485 515 513 q 322 457 407 457 q 130 511 204 457 q 56 651 56 565 q 110 783 56 724 q 268 876 165 842 q 508 910 371 910 q 797 853 675 910 q 919 653 919 796 q 845 478 919 544 q 667 378 771 411 q 404 311 564 344 q 233 271 293 288 q 134 228 174 254 q 94 161 94 201 q 161 87 94 104 q 306 69 228 69 q 922 269 660 69 q 1390 839 1185 468 l 1464 833 q 1270 488 1353 664 q 1188 204 1188 313 q 1306 83 1188 83 q 1439 120 1375 83 q 1551 217 1503 157 q 1625 347 1599 278 l 1639 342 q 1581 211 1624 292 q 1469 65 1538 131 q 1315 0 1400 0 q 1203 56 1239 0 q 1167 194 1167 113 q 1198 365 1167 274 q 1279 551 1229 456 q 1415 794 1329 646 l 1394 800 q 909 214 1179 435 q 344 -7 639 -7 z "},"Û":{"ha":1667,"x_min":56,"x_max":1639,"o":"m 867 935 q 971 943 924 935 q 1088 968 1018 951 q 1175 988 1144 982 q 1236 993 1206 993 q 1308 985 1267 993 q 1389 968 1349 978 q 1606 935 1519 935 l 1606 921 q 1550 917 1581 917 q 1347 938 1485 917 q 1236 951 1271 951 q 1108 936 1200 951 q 1034 926 1096 935 q 922 917 972 917 q 867 921 892 917 l 867 935 m 344 -7 q 140 41 206 -7 q 74 160 74 89 q 127 268 74 225 q 259 335 181 311 q 471 390 338 360 q 698 451 614 424 q 840 526 782 478 q 899 650 899 574 q 774 810 899 774 q 539 847 649 847 q 193 799 310 847 q 76 658 76 750 q 153 547 76 574 q 310 519 231 519 q 473 547 401 519 q 544 633 544 574 q 533 686 544 660 q 501 732 521 713 l 515 746 q 550 696 535 726 q 565 635 565 665 q 540 553 565 593 q 461 485 515 513 q 322 457 407 457 q 130 511 204 457 q 56 651 56 565 q 110 783 56 724 q 268 876 165 842 q 508 910 371 910 q 797 853 675 910 q 919 653 919 796 q 845 478 919 544 q 667 378 771 411 q 404 311 564 344 q 233 271 293 288 q 134 228 174 254 q 94 161 94 201 q 161 87 94 104 q 306 69 228 69 q 922 269 660 69 q 1390 839 1185 468 l 1464 833 q 1270 488 1353 664 q 1188 204 1188 313 q 1306 83 1188 83 q 1439 120 1375 83 q 1551 217 1503 157 q 1625 347 1599 278 l 1639 342 q 1581 211 1624 292 q 1469 65 1538 131 q 1315 0 1400 0 q 1203 56 1239 0 q 1167 194 1167 113 q 1198 365 1167 274 q 1279 551 1229 456 q 1415 794 1329 646 l 1394 800 q 909 214 1179 435 q 344 -7 639 -7 z "},"Ü":{"ha":1667,"x_min":56,"x_max":1639,"o":"m 894 888 q 842 900 861 888 q 824 939 824 913 q 844 993 824 965 l 858 990 l 858 978 q 921 931 858 931 q 980 939 951 931 q 1054 965 1008 947 l 1061 953 q 894 888 964 888 m 1371 888 q 1319 900 1338 888 q 1300 939 1300 913 q 1321 993 1300 965 l 1335 990 l 1335 978 q 1351 943 1335 956 q 1397 931 1367 931 q 1456 939 1428 931 q 1531 965 1485 947 l 1538 953 q 1371 888 1440 888 m 344 -7 q 140 41 206 -7 q 74 160 74 89 q 127 268 74 225 q 259 335 181 311 q 471 390 338 360 q 698 451 614 424 q 840 526 782 478 q 899 650 899 574 q 774 810 899 774 q 539 847 649 847 q 193 799 310 847 q 76 658 76 750 q 153 547 76 574 q 310 519 231 519 q 473 547 401 519 q 544 633 544 574 q 533 686 544 660 q 501 732 521 713 l 515 746 q 550 696 535 726 q 565 635 565 665 q 540 553 565 593 q 461 485 515 513 q 322 457 407 457 q 130 511 204 457 q 56 651 56 565 q 110 783 56 724 q 268 876 165 842 q 508 910 371 910 q 797 853 675 910 q 919 653 919 796 q 845 478 919 544 q 667 378 771 411 q 404 311 564 344 q 233 271 293 288 q 134 228 174 254 q 94 161 94 201 q 161 87 94 104 q 306 69 228 69 q 922 269 660 69 q 1390 839 1185 468 l 1464 833 q 1270 488 1353 664 q 1188 204 1188 313 q 1306 83 1188 83 q 1439 120 1375 83 q 1551 217 1503 157 q 1625 347 1599 278 l 1639 342 q 1581 211 1624 292 q 1469 65 1538 131 q 1315 0 1400 0 q 1203 56 1239 0 q 1167 194 1167 113 q 1198 365 1167 274 q 1279 551 1229 456 q 1415 794 1329 646 l 1394 800 q 909 214 1179 435 q 344 -7 639 -7 z "},"Ù":{"ha":1667,"x_min":56,"x_max":1639,"o":"m 1376 924 q 1163 914 1231 914 q 1000 928 1069 914 q 863 981 931 943 l 868 993 q 1072 963 939 978 q 1376 938 1206 947 l 1376 924 m 344 -7 q 140 41 206 -7 q 74 160 74 89 q 127 268 74 225 q 259 335 181 311 q 471 390 338 360 q 698 451 614 424 q 840 526 782 478 q 899 650 899 574 q 774 810 899 774 q 539 847 649 847 q 193 799 310 847 q 76 658 76 750 q 153 547 76 574 q 310 519 231 519 q 473 547 401 519 q 544 633 544 574 q 533 686 544 660 q 501 732 521 713 l 515 746 q 550 696 535 726 q 565 635 565 665 q 540 553 565 593 q 461 485 515 513 q 322 457 407 457 q 130 511 204 457 q 56 651 56 565 q 110 783 56 724 q 268 876 165 842 q 508 910 371 910 q 797 853 675 910 q 919 653 919 796 q 845 478 919 544 q 667 378 771 411 q 404 311 564 344 q 233 271 293 288 q 134 228 174 254 q 94 161 94 201 q 161 87 94 104 q 306 69 228 69 q 922 269 660 69 q 1390 839 1185 468 l 1464 833 q 1270 488 1353 664 q 1188 204 1188 313 q 1306 83 1188 83 q 1439 120 1375 83 q 1551 217 1503 157 q 1625 347 1599 278 l 1639 342 q 1581 211 1624 292 q 1469 65 1538 131 q 1315 0 1400 0 q 1203 56 1239 0 q 1167 194 1167 113 q 1198 365 1167 274 q 1279 551 1229 456 q 1415 794 1329 646 l 1394 800 q 909 214 1179 435 q 344 -7 639 -7 z "},"Ű":{"ha":1667,"x_min":56,"x_max":1661,"o":"m 781 938 q 1206 993 1032 956 l 1211 981 q 1084 928 1142 943 q 954 914 1026 914 q 781 924 903 914 l 781 938 m 1231 938 q 1656 993 1482 956 l 1661 981 q 1534 928 1592 943 q 1404 914 1476 914 q 1231 924 1351 914 l 1231 938 m 344 -7 q 140 41 206 -7 q 74 160 74 89 q 127 268 74 225 q 259 335 181 311 q 471 390 338 360 q 698 451 614 424 q 840 526 782 478 q 899 650 899 574 q 774 810 899 774 q 539 847 649 847 q 193 799 310 847 q 76 658 76 750 q 153 547 76 574 q 310 519 231 519 q 473 547 401 519 q 544 633 544 574 q 533 686 544 660 q 501 732 521 713 l 515 746 q 550 696 535 726 q 565 635 565 665 q 540 553 565 593 q 461 485 515 513 q 322 457 407 457 q 130 511 204 457 q 56 651 56 565 q 110 783 56 724 q 268 876 165 842 q 508 910 371 910 q 797 853 675 910 q 919 653 919 796 q 845 478 919 544 q 667 378 771 411 q 404 311 564 344 q 233 271 293 288 q 134 228 174 254 q 94 161 94 201 q 161 87 94 104 q 306 69 228 69 q 922 269 660 69 q 1390 839 1185 468 l 1464 833 q 1270 488 1353 664 q 1188 204 1188 313 q 1306 83 1188 83 q 1439 120 1375 83 q 1551 217 1503 157 q 1625 347 1599 278 l 1639 342 q 1581 211 1624 292 q 1469 65 1538 131 q 1315 0 1400 0 q 1203 56 1239 0 q 1167 194 1167 113 q 1198 365 1167 274 q 1279 551 1229 456 q 1415 794 1329 646 l 1394 800 q 909 214 1179 435 q 344 -7 639 -7 z "},"Ū":{"ha":1667,"x_min":56,"x_max":1639,"o":"m 1156 935 q 835 953 1060 935 l 835 967 q 1250 982 1132 982 q 1426 975 1304 982 l 1429 961 q 1281 940 1342 946 q 1156 935 1219 935 m 344 -7 q 140 41 206 -7 q 74 160 74 89 q 127 268 74 225 q 259 335 181 311 q 471 390 338 360 q 698 451 614 424 q 840 526 782 478 q 899 650 899 574 q 774 810 899 774 q 539 847 649 847 q 193 799 310 847 q 76 658 76 750 q 153 547 76 574 q 310 519 231 519 q 473 547 401 519 q 544 633 544 574 q 533 686 544 660 q 501 732 521 713 l 515 746 q 550 696 535 726 q 565 635 565 665 q 540 553 565 593 q 461 485 515 513 q 322 457 407 457 q 130 511 204 457 q 56 651 56 565 q 110 783 56 724 q 268 876 165 842 q 508 910 371 910 q 797 853 675 910 q 919 653 919 796 q 845 478 919 544 q 667 378 771 411 q 404 311 564 344 q 233 271 293 288 q 134 228 174 254 q 94 161 94 201 q 161 87 94 104 q 306 69 228 69 q 922 269 660 69 q 1390 839 1185 468 l 1464 833 q 1270 488 1353 664 q 1188 204 1188 313 q 1306 83 1188 83 q 1439 120 1375 83 q 1551 217 1503 157 q 1625 347 1599 278 l 1639 342 q 1581 211 1624 292 q 1469 65 1538 131 q 1315 0 1400 0 q 1203 56 1239 0 q 1167 194 1167 113 q 1198 365 1167 274 q 1279 551 1229 456 q 1415 794 1329 646 l 1394 800 q 909 214 1179 435 q 344 -7 639 -7 z "},"Ų":{"ha":1667,"x_min":56,"x_max":1653,"o":"m 1415 42 q 1477 52 1449 42 q 1550 93 1506 63 l 1563 85 q 1481 11 1521 36 q 1394 -14 1442 -14 q 1306 21 1339 -14 q 1272 110 1272 56 q 1325 243 1272 179 q 1299 343 1299 279 q 1347 578 1299 429 q 1504 938 1394 728 l 1482 944 q 1210 525 1354 722 q 841 160 1067 328 q 349 -7 615 -7 q 140 41 207 -7 q 74 160 74 89 q 124 267 74 224 q 250 337 175 310 q 453 397 325 364 q 686 468 597 435 q 837 559 775 501 q 899 706 899 617 q 774 889 899 847 q 543 931 649 931 q 297 902 403 931 q 134 822 192 874 q 76 707 76 771 q 165 590 76 618 q 346 561 253 561 q 525 588 450 561 q 600 671 600 614 q 586 724 600 694 q 557 768 572 753 l 571 782 q 606 732 590 763 q 621 671 621 701 q 594 592 621 632 q 509 526 568 553 q 357 499 450 499 q 199 526 268 499 q 93 599 131 553 q 56 703 56 646 q 116 844 56 778 q 283 952 176 911 q 524 993 390 993 q 799 931 678 993 q 919 708 919 869 q 843 509 919 586 q 661 392 767 432 q 392 311 556 353 q 229 266 288 285 q 133 219 171 247 q 94 153 94 192 q 131 94 94 113 q 217 73 168 76 q 349 69 267 69 q 961 298 685 69 q 1478 983 1238 526 l 1551 978 q 1397 656 1469 833 q 1325 376 1325 478 q 1350 295 1325 319 q 1424 271 1375 271 q 1538 306 1488 271 q 1640 406 1588 340 l 1653 397 q 1533 253 1590 306 q 1410 201 1475 201 q 1336 229 1364 201 q 1299 135 1299 183 q 1329 65 1299 89 q 1415 42 1360 42 z "},"Ů":{"ha":1667,"x_min":56,"x_max":1639,"o":"m 349 -7 q 140 41 207 -7 q 74 160 74 89 q 124 267 74 224 q 250 337 175 310 q 453 397 325 364 q 686 468 597 435 q 837 559 775 501 q 899 706 899 617 q 774 889 899 847 q 543 931 649 931 q 297 902 403 931 q 134 822 192 874 q 76 707 76 771 q 165 590 76 618 q 346 561 253 561 q 526 590 451 561 q 600 685 600 618 q 588 736 600 710 q 557 782 576 763 l 571 796 q 606 746 590 776 q 621 685 621 715 q 594 597 621 639 q 509 526 568 554 q 357 499 450 499 q 199 526 268 499 q 93 599 131 553 q 56 703 56 646 q 116 844 56 778 q 283 952 176 911 q 524 993 390 993 q 799 931 678 993 q 919 708 919 869 q 843 509 919 586 q 661 392 767 432 q 392 311 556 353 q 229 266 288 285 q 133 219 171 247 q 94 153 94 192 q 163 84 94 99 q 349 69 231 69 q 961 298 685 69 q 1478 983 1238 526 l 1551 978 q 1276 501 1365 697 q 1188 197 1188 306 q 1223 106 1188 136 q 1311 76 1258 76 q 1440 115 1376 76 q 1551 217 1503 154 q 1625 347 1600 279 l 1639 342 q 1587 221 1632 307 q 1471 64 1542 135 q 1318 -7 1400 -7 q 1202 51 1238 -7 q 1167 189 1167 108 q 1248 492 1167 325 q 1451 853 1329 658 l 1503 939 l 1482 944 q 1210 525 1354 722 q 841 160 1067 328 q 349 -7 615 -7 m 1133 833 q 1065 857 1092 833 q 1038 913 1038 881 q 1059 970 1038 947 q 1113 993 1081 993 q 1185 965 1157 993 q 1224 900 1213 936 l 1211 896 q 1113 947 1182 947 q 1057 913 1057 947 q 1079 887 1057 897 q 1133 876 1101 876 q 1214 894 1197 876 l 1225 889 q 1188 849 1214 864 q 1133 833 1163 833 z "},"V":{"ha":1667,"x_min":28,"x_max":1607,"o":"m 853 -7 q 764 29 796 -7 q 732 133 732 65 q 752 261 732 190 q 811 439 772 332 q 865 601 849 546 q 881 701 881 657 q 777 861 881 806 q 483 917 674 917 q 241 889 339 917 q 96 815 143 861 q 49 717 49 769 q 76 633 49 672 q 138 567 104 594 l 126 557 q 57 630 86 588 q 28 725 28 672 q 81 850 28 788 q 236 953 133 913 q 482 993 339 993 q 701 958 606 993 q 849 860 796 924 q 901 711 901 796 q 882 586 901 656 q 824 404 863 517 q 774 253 790 313 q 757 153 757 194 q 776 95 757 114 q 838 76 796 76 q 1139 205 963 76 q 1444 507 1315 333 q 1574 800 1574 681 q 1468 896 1574 896 q 1357 873 1414 896 q 1250 800 1300 850 l 1239 808 q 1483 972 1356 972 q 1574 938 1542 972 q 1607 843 1607 904 q 1474 505 1607 710 q 1163 147 1342 300 q 853 -7 983 -7 z "},"W":{"ha":1667,"x_min":61,"x_max":1607,"o":"m 851 76 q 1142 206 969 76 q 1444 508 1315 335 q 1574 800 1574 681 q 1549 870 1574 844 q 1469 896 1524 896 q 1359 873 1415 896 q 1250 800 1303 850 l 1239 808 q 1483 972 1354 972 q 1574 938 1542 972 q 1607 843 1607 904 q 1476 505 1607 710 q 1168 147 1344 300 q 868 -7 992 -7 q 765 30 794 -7 q 735 118 735 67 q 790 312 735 213 q 944 549 844 411 q 1064 726 1025 658 q 1103 847 1103 793 q 1046 897 1103 897 q 911 835 978 897 q 787 682 844 772 q 642 438 729 592 q 499 196 556 285 q 377 46 442 107 q 246 -15 313 -15 q 162 22 194 -15 q 129 131 129 60 q 165 277 129 206 q 251 408 201 349 q 382 550 301 467 q 514 698 472 643 q 556 804 556 753 q 503 890 556 857 q 343 924 450 924 q 165 899 249 924 q 82 808 82 874 q 143 726 82 754 q 276 697 204 697 l 276 683 q 126 715 190 683 q 61 815 61 746 q 99 908 61 867 q 201 971 138 949 q 335 993 264 993 q 463 969 408 993 q 547 904 518 944 q 576 815 576 864 q 526 677 576 747 q 374 503 475 607 q 257 377 301 429 q 183 268 213 325 q 153 154 153 211 q 174 88 153 107 q 236 68 196 68 q 394 138 317 68 q 535 306 471 207 q 692 567 600 404 q 822 788 771 707 q 928 923 872 868 q 1040 978 985 978 q 1106 949 1083 978 q 1128 872 1128 919 q 1078 702 1128 790 q 932 481 1029 614 q 802 284 844 358 q 760 147 760 210 q 851 76 760 76 z "},"Ẃ":{"ha":1667,"x_min":33,"x_max":1610,"o":"m 1306 981 q 1168 928 1238 943 q 1006 914 1099 914 q 792 924 938 914 l 792 938 q 1096 963 963 947 q 1300 993 1229 978 l 1306 981 m 1610 835 q 1413 426 1549 621 q 1119 112 1278 231 q 833 -7 960 -7 q 735 29 763 -7 q 707 117 707 65 q 741 240 707 179 q 822 352 775 301 q 947 476 869 403 q 1085 617 1039 561 q 1131 726 1131 674 q 1067 783 1131 783 q 933 728 1000 783 q 804 594 865 674 q 654 382 743 515 q 503 170 563 247 q 378 39 444 93 q 247 -15 313 -15 q 155 24 192 -15 q 118 138 118 63 q 151 267 118 208 q 231 369 185 325 q 354 474 278 414 q 485 590 443 543 q 528 692 528 638 q 325 803 528 803 q 142 779 231 803 q 54 693 54 756 q 117 611 54 642 q 249 581 179 581 l 249 567 q 98 598 163 567 q 33 699 33 629 q 72 790 33 750 q 173 851 110 829 q 307 872 236 872 q 483 822 418 872 q 549 697 549 772 q 522 606 549 649 q 455 526 494 563 q 347 438 415 490 q 236 344 276 381 q 167 260 196 307 q 139 163 139 214 q 236 68 139 68 q 397 129 317 68 q 544 277 476 190 q 710 506 613 364 q 845 697 792 626 q 956 814 899 767 q 1068 861 1014 861 q 1133 831 1111 861 q 1156 754 1156 801 q 1124 641 1156 697 q 1047 537 1092 585 q 926 418 1001 489 q 778 266 828 326 q 729 146 729 206 q 753 91 729 106 q 818 76 776 76 q 1104 174 951 76 q 1387 442 1257 272 q 1583 817 1517 613 q 1375 835 1515 835 q 1310 831 1342 835 l 1308 844 q 1514 868 1438 868 q 1583 864 1550 868 l 1610 835 z "},"Ŵ":{"ha":1667,"x_min":33,"x_max":1610,"o":"m 1050 951 q 922 936 1014 951 q 848 926 910 935 q 736 917 786 917 q 681 921 706 917 l 681 935 q 785 943 738 935 q 901 968 832 951 q 989 988 958 982 q 1050 993 1019 993 q 1122 985 1081 993 q 1203 968 1163 978 q 1419 935 1333 935 l 1419 921 q 1364 917 1394 917 q 1161 938 1299 917 q 1050 951 1085 951 m 1610 835 q 1413 426 1549 621 q 1119 112 1278 231 q 833 -7 960 -7 q 735 29 763 -7 q 707 117 707 65 q 741 240 707 179 q 822 352 775 301 q 947 476 869 403 q 1085 617 1039 561 q 1131 726 1131 674 q 1067 783 1131 783 q 933 728 1000 783 q 804 594 865 674 q 654 382 743 515 q 503 170 563 247 q 378 39 444 93 q 247 -15 313 -15 q 155 24 192 -15 q 118 138 118 63 q 151 267 118 208 q 231 369 185 325 q 354 474 278 414 q 485 590 443 543 q 528 692 528 638 q 325 803 528 803 q 142 779 231 803 q 54 693 54 756 q 117 611 54 642 q 249 581 179 581 l 249 567 q 98 598 163 567 q 33 699 33 629 q 72 790 33 750 q 173 851 110 829 q 307 872 236 872 q 483 822 418 872 q 549 697 549 772 q 522 606 549 649 q 455 526 494 563 q 347 438 415 490 q 236 344 276 381 q 167 260 196 307 q 139 163 139 214 q 236 68 139 68 q 397 129 317 68 q 544 277 476 190 q 710 506 613 364 q 845 697 792 626 q 956 814 899 767 q 1068 861 1014 861 q 1133 831 1111 861 q 1156 754 1156 801 q 1124 641 1156 697 q 1047 537 1092 585 q 926 418 1001 489 q 778 266 828 326 q 729 146 729 206 q 753 91 729 106 q 818 76 776 76 q 1104 174 951 76 q 1387 442 1257 272 q 1583 817 1517 613 q 1375 835 1515 835 q 1310 831 1342 835 l 1308 844 q 1514 868 1438 868 q 1583 864 1550 868 l 1610 835 z "},"Ẅ":{"ha":1667,"x_min":33,"x_max":1610,"o":"m 764 888 q 712 900 731 888 q 693 939 693 913 q 714 993 693 965 l 728 990 l 728 978 q 790 931 728 931 q 849 939 821 931 q 924 965 878 947 l 931 953 q 764 888 833 888 m 1240 888 q 1188 900 1207 888 q 1169 939 1169 913 q 1190 993 1169 965 l 1204 990 l 1204 978 q 1220 943 1204 956 q 1267 931 1236 931 q 1326 939 1297 931 q 1400 965 1354 947 l 1407 953 q 1240 888 1308 888 m 1610 835 q 1413 426 1549 621 q 1119 112 1278 231 q 833 -7 960 -7 q 735 29 763 -7 q 707 117 707 65 q 741 240 707 179 q 822 352 775 301 q 947 476 869 403 q 1085 617 1039 561 q 1131 726 1131 674 q 1067 783 1131 783 q 933 728 1000 783 q 804 594 865 674 q 654 382 743 515 q 503 170 563 247 q 378 39 444 93 q 247 -15 313 -15 q 155 24 192 -15 q 118 138 118 63 q 151 267 118 208 q 231 369 185 325 q 354 474 278 414 q 485 590 443 543 q 528 692 528 638 q 325 803 528 803 q 142 779 231 803 q 54 693 54 756 q 117 611 54 642 q 249 581 179 581 l 249 567 q 98 598 163 567 q 33 699 33 629 q 72 790 33 750 q 173 851 110 829 q 307 872 236 872 q 483 822 418 872 q 549 697 549 772 q 522 606 549 649 q 455 526 494 563 q 347 438 415 490 q 236 344 276 381 q 167 260 196 307 q 139 163 139 214 q 236 68 139 68 q 397 129 317 68 q 544 277 476 190 q 710 506 613 364 q 845 697 792 626 q 956 814 899 767 q 1068 861 1014 861 q 1133 831 1111 861 q 1156 754 1156 801 q 1124 641 1156 697 q 1047 537 1092 585 q 926 418 1001 489 q 778 266 828 326 q 729 146 729 206 q 753 91 729 106 q 818 76 776 76 q 1104 174 951 76 q 1387 442 1257 272 q 1583 817 1517 613 q 1375 835 1515 835 q 1310 831 1342 835 l 1308 844 q 1514 868 1438 868 q 1583 864 1550 868 l 1610 835 z "},"Ẁ":{"ha":1667,"x_min":33,"x_max":1610,"o":"m 1296 924 q 1082 914 1150 914 q 919 928 989 914 q 782 981 850 943 l 788 993 q 992 963 858 978 q 1296 938 1125 947 l 1296 924 m 1610 835 q 1413 426 1549 621 q 1119 112 1278 231 q 833 -7 960 -7 q 735 29 763 -7 q 707 117 707 65 q 741 240 707 179 q 822 352 775 301 q 947 476 869 403 q 1085 617 1039 561 q 1131 726 1131 674 q 1067 783 1131 783 q 933 728 1000 783 q 804 594 865 674 q 654 382 743 515 q 503 170 563 247 q 378 39 444 93 q 247 -15 313 -15 q 155 24 192 -15 q 118 138 118 63 q 151 267 118 208 q 231 369 185 325 q 354 474 278 414 q 485 590 443 543 q 528 692 528 638 q 325 803 528 803 q 142 779 231 803 q 54 693 54 756 q 117 611 54 642 q 249 581 179 581 l 249 567 q 98 598 163 567 q 33 699 33 629 q 72 790 33 750 q 173 851 110 829 q 307 872 236 872 q 483 822 418 872 q 549 697 549 772 q 522 606 549 649 q 455 526 494 563 q 347 438 415 490 q 236 344 276 381 q 167 260 196 307 q 139 163 139 214 q 236 68 139 68 q 397 129 317 68 q 544 277 476 190 q 710 506 613 364 q 845 697 792 626 q 956 814 899 767 q 1068 861 1014 861 q 1133 831 1111 861 q 1156 754 1156 801 q 1124 641 1156 697 q 1047 537 1092 585 q 926 418 1001 489 q 778 266 828 326 q 729 146 729 206 q 753 91 729 106 q 818 76 776 76 q 1104 174 951 76 q 1387 442 1257 272 q 1583 817 1517 613 q 1375 835 1515 835 q 1310 831 1342 835 l 1308 844 q 1514 868 1438 868 q 1583 864 1550 868 l 1610 835 z "},"X":{"ha":1667,"x_min":8,"x_max":1657,"o":"m 1428 986 q 1570 940 1513 986 q 1657 831 1628 893 l 1640 824 q 1556 885 1607 858 q 1436 911 1504 911 q 1181 816 1299 911 q 993 567 1063 721 l 972 515 q 922 243 922 381 q 1128 49 922 49 q 1365 150 1264 49 q 1518 428 1467 251 l 1532 424 q 1360 99 1469 218 q 1128 -21 1251 -21 q 964 47 1024 -21 q 904 236 904 114 q 926 431 904 328 q 747 208 856 311 q 517 42 639 104 q 288 -21 396 -21 q 118 21 192 -21 q 8 133 44 63 l 25 142 q 126 81 65 103 q 263 58 186 58 q 608 169 433 58 q 894 438 782 279 q 1007 726 1007 596 q 947 860 1007 817 q 781 903 886 903 q 482 833 636 903 q 171 621 328 763 l 158 631 q 473 883 313 793 q 774 972 633 972 q 955 910 885 972 q 1025 732 1025 849 q 1021 676 1025 704 q 1207 901 1099 817 q 1428 986 1315 986 z "},"Y":{"ha":1667,"x_min":56,"x_max":1622,"o":"m 1622 814 q 1524 663 1622 725 q 1275 560 1426 600 q 901 479 1124 519 q 960 342 932 415 l 946 336 q 882 475 908 425 q 792 460 821 464 q 443 393 571 422 q 230 322 315 364 q 144 218 144 279 q 252 116 144 149 q 499 75 360 83 q 821 67 638 67 q 1171 95 1022 67 q 1399 176 1319 124 q 1479 294 1479 228 q 1456 352 1479 332 q 1392 372 1432 372 q 1303 347 1346 372 q 1213 279 1260 322 l 1203 290 q 1390 428 1303 428 q 1467 394 1435 428 q 1500 301 1500 361 q 1419 141 1500 211 q 1176 31 1339 71 q 775 -10 1013 -10 q 331 35 538 -10 q 124 207 124 81 q 224 345 124 289 q 471 436 324 401 q 861 514 618 471 q 360 910 649 910 q 219 891 296 910 q 64 828 142 872 l 56 839 q 353 983 207 983 q 633 861 494 983 q 883 517 771 739 q 1263 592 1119 558 q 1504 680 1407 626 q 1601 811 1601 733 q 1469 896 1601 896 q 1341 872 1399 896 q 1236 800 1283 847 l 1225 808 q 1331 927 1275 882 q 1461 972 1388 972 q 1549 949 1513 972 q 1604 889 1586 925 q 1622 814 1622 853 z "},"Ý":{"ha":1667,"x_min":56,"x_max":1622,"o":"m 1282 981 q 1144 928 1214 943 q 982 914 1075 914 q 768 924 914 914 l 768 938 q 1072 963 939 947 q 1276 993 1206 978 l 1282 981 m 1622 707 q 1510 566 1622 619 q 1239 485 1399 513 q 815 428 1079 458 q 456 381 589 403 q 234 322 324 360 q 144 222 144 283 q 328 95 144 124 q 692 67 513 67 q 1140 86 968 67 q 1396 149 1313 106 q 1479 264 1479 192 q 1456 324 1479 304 q 1392 344 1432 344 q 1303 319 1346 344 q 1213 251 1260 294 l 1203 263 q 1390 400 1303 400 q 1467 367 1435 400 q 1500 275 1500 335 q 1318 65 1500 140 q 786 -10 1136 -10 q 331 35 539 -10 q 124 207 124 79 q 217 337 124 286 q 456 415 311 388 q 818 468 601 443 q 360 788 617 788 q 219 769 296 788 q 64 706 142 750 l 56 717 q 353 861 207 861 q 603 758 478 861 q 835 469 728 656 l 911 478 q 1282 528 1147 506 q 1509 593 1417 551 q 1601 703 1601 635 q 1468 785 1601 785 q 1236 689 1332 785 l 1225 697 q 1331 816 1275 771 q 1461 861 1388 861 q 1549 838 1513 861 q 1604 778 1586 814 q 1622 707 1622 743 z "},"Ŷ":{"ha":1667,"x_min":56,"x_max":1622,"o":"m 1006 951 q 878 936 969 951 q 803 926 865 935 q 692 917 742 917 q 636 921 661 917 l 636 935 q 740 943 693 935 q 857 968 788 951 q 944 988 914 982 q 1006 993 975 993 q 1077 985 1036 993 q 1158 968 1118 978 q 1375 935 1289 935 l 1375 921 q 1319 917 1350 917 q 1117 938 1254 917 q 1006 951 1040 951 m 1622 707 q 1510 566 1622 619 q 1239 485 1399 513 q 815 428 1079 458 q 456 381 589 403 q 234 322 324 360 q 144 222 144 283 q 328 95 144 124 q 692 67 513 67 q 1140 86 968 67 q 1396 149 1313 106 q 1479 264 1479 192 q 1456 324 1479 304 q 1392 344 1432 344 q 1303 319 1346 344 q 1213 251 1260 294 l 1203 263 q 1390 400 1303 400 q 1467 367 1435 400 q 1500 275 1500 335 q 1318 65 1500 140 q 786 -10 1136 -10 q 331 35 539 -10 q 124 207 124 79 q 217 337 124 286 q 456 415 311 388 q 818 468 601 443 q 360 788 617 788 q 219 769 296 788 q 64 706 142 750 l 56 717 q 353 861 207 861 q 603 758 478 861 q 835 469 728 656 l 911 478 q 1282 528 1147 506 q 1509 593 1417 551 q 1601 703 1601 635 q 1468 785 1601 785 q 1236 689 1332 785 l 1225 697 q 1331 816 1275 771 q 1461 861 1388 861 q 1549 838 1513 861 q 1604 778 1586 814 q 1622 707 1622 743 z "},"Ÿ":{"ha":1667,"x_min":56,"x_max":1622,"o":"m 692 888 q 640 900 658 888 q 621 939 621 913 q 642 993 621 965 l 656 990 l 656 978 q 718 931 656 931 q 777 939 749 931 q 851 965 806 947 l 858 953 q 692 888 761 888 m 1168 888 q 1116 900 1135 888 q 1097 939 1097 913 q 1118 993 1097 965 l 1132 990 l 1132 978 q 1148 943 1132 956 q 1194 931 1164 931 q 1253 939 1225 931 q 1328 965 1282 947 l 1335 953 q 1168 888 1238 888 m 1622 707 q 1510 566 1622 619 q 1239 485 1399 513 q 815 428 1079 458 q 456 381 589 403 q 234 322 324 360 q 144 222 144 283 q 328 95 144 124 q 692 67 513 67 q 1140 86 968 67 q 1396 149 1313 106 q 1479 264 1479 192 q 1456 324 1479 304 q 1392 344 1432 344 q 1303 319 1346 344 q 1213 251 1260 294 l 1203 263 q 1390 400 1303 400 q 1467 367 1435 400 q 1500 275 1500 335 q 1318 65 1500 140 q 786 -10 1136 -10 q 331 35 539 -10 q 124 207 124 79 q 217 337 124 286 q 456 415 311 388 q 818 468 601 443 q 360 788 617 788 q 219 769 296 788 q 64 706 142 750 l 56 717 q 353 861 207 861 q 603 758 478 861 q 835 469 728 656 l 911 478 q 1282 528 1147 506 q 1509 593 1417 551 q 1601 703 1601 635 q 1468 785 1601 785 q 1236 689 1332 785 l 1225 697 q 1331 816 1275 771 q 1461 861 1388 861 q 1549 838 1513 861 q 1604 778 1586 814 q 1622 707 1622 743 z "},"Ỳ":{"ha":1667,"x_min":56,"x_max":1622,"o":"m 1253 924 q 1039 914 1107 914 q 876 928 946 914 q 739 981 807 943 l 744 993 q 949 963 815 978 q 1253 938 1082 947 l 1253 924 m 1622 707 q 1510 566 1622 619 q 1239 485 1399 513 q 815 428 1079 458 q 456 381 589 403 q 234 322 324 360 q 144 222 144 283 q 328 95 144 124 q 692 67 513 67 q 1140 86 968 67 q 1396 149 1313 106 q 1479 264 1479 192 q 1456 324 1479 304 q 1392 344 1432 344 q 1303 319 1346 344 q 1213 251 1260 294 l 1203 263 q 1390 400 1303 400 q 1467 367 1435 400 q 1500 275 1500 335 q 1318 65 1500 140 q 786 -10 1136 -10 q 331 35 539 -10 q 124 207 124 79 q 217 337 124 286 q 456 415 311 388 q 818 468 601 443 q 360 788 617 788 q 219 769 296 788 q 64 706 142 750 l 56 717 q 353 861 207 861 q 603 758 478 861 q 835 469 728 656 l 911 478 q 1282 528 1147 506 q 1509 593 1417 551 q 1601 703 1601 635 q 1468 785 1601 785 q 1236 689 1332 785 l 1225 697 q 1331 816 1275 771 q 1461 861 1388 861 q 1549 838 1513 861 q 1604 778 1586 814 q 1622 707 1622 743 z "},"Z":{"ha":1667,"x_min":26,"x_max":1650,"o":"m 1258 -14 q 1127 9 1188 -14 q 1020 64 1067 32 q 904 151 974 96 q 747 264 814 226 q 597 301 681 301 q 328 213 465 301 q 60 0 190 124 l 26 29 q 256 317 104 199 q 580 512 407 436 q 1031 685 753 588 q 1369 809 1236 756 q 1614 928 1501 863 l 1597 943 q 1353 871 1494 901 q 1050 840 1213 840 q 871 848 967 840 q 643 871 775 856 q 463 888 551 881 q 315 896 374 896 q 190 878 219 896 q 160 829 160 861 q 185 751 160 782 q 249 686 211 719 l 238 676 q 139 831 139 751 q 188 934 139 889 q 346 979 236 979 q 611 951 414 979 q 885 917 774 929 q 1108 906 997 906 q 1406 928 1260 906 q 1604 976 1553 951 l 1650 921 q 1378 790 1521 849 q 1024 654 1235 731 q 597 486 760 558 q 290 308 433 414 q 65 58 147 203 l 79 44 q 203 159 124 94 q 388 276 282 224 q 596 329 493 329 q 738 299 675 329 q 889 207 801 268 q 1004 132 954 161 q 1118 83 1054 103 q 1258 63 1182 63 q 1463 111 1376 63 q 1550 257 1550 160 q 1499 373 1550 331 q 1383 431 1449 415 q 1263 446 1318 446 q 1103 415 1179 446 q 1026 315 1026 385 q 1074 215 1026 263 l 1064 206 q 1023 251 1040 222 q 1006 315 1006 279 q 1034 404 1006 360 q 1122 478 1063 449 q 1271 508 1182 508 q 1429 477 1361 508 q 1534 389 1497 446 q 1571 258 1571 332 q 1530 118 1571 181 q 1417 21 1489 56 q 1258 -14 1346 -14 z "},"Ź":{"ha":1667,"x_min":26,"x_max":1650,"o":"m 910 938 q 1214 963 1081 947 q 1418 993 1347 978 l 1424 981 q 1286 928 1356 943 q 1124 914 1217 914 q 910 924 1056 914 l 910 938 m 1254 -14 q 1127 3 1186 -14 q 1023 45 1068 21 q 911 111 978 69 q 749 202 817 172 q 590 232 681 232 q 307 163 457 232 q 60 0 157 93 l 26 29 q 242 270 101 171 q 547 433 383 369 q 971 579 710 497 q 1342 703 1194 649 q 1614 831 1490 758 l 1597 846 q 1353 774 1494 804 q 1050 743 1213 743 q 876 751 967 743 q 665 774 786 758 q 499 791 582 783 q 357 799 415 799 q 231 781 261 799 q 201 732 201 764 q 227 653 201 685 q 290 589 253 622 l 279 579 q 181 733 181 654 q 229 837 181 792 q 388 882 278 882 q 488 875 431 882 q 638 854 546 868 q 891 820 785 832 q 1108 808 997 808 q 1406 831 1260 808 q 1604 879 1553 854 l 1650 824 q 1347 682 1507 743 q 950 543 1186 621 q 555 403 706 463 q 273 259 404 344 q 65 58 142 174 l 79 44 q 196 133 114 82 q 384 222 278 185 q 593 260 490 260 q 738 237 674 260 q 890 168 801 214 q 1071 89 992 115 q 1258 63 1150 63 q 1464 100 1378 63 q 1550 218 1550 138 q 1501 317 1550 278 q 1385 373 1453 356 q 1261 390 1318 390 q 1156 376 1210 390 q 1064 331 1101 361 q 1026 257 1026 301 q 1041 203 1026 229 q 1074 160 1056 178 l 1064 150 q 1024 193 1043 164 q 1006 256 1006 222 q 1034 338 1006 296 q 1122 410 1063 381 q 1271 439 1182 439 q 1429 408 1361 439 q 1534 326 1497 378 q 1571 215 1571 275 q 1530 99 1571 151 q 1417 17 1489 47 q 1254 -14 1344 -14 z "},"Ž":{"ha":1667,"x_min":26,"x_max":1650,"o":"m 1138 910 q 1076 915 1107 910 q 989 935 1046 921 q 872 960 919 951 q 768 968 825 968 l 768 982 q 824 986 793 986 q 935 977 874 986 q 1010 967 997 968 q 1138 951 1101 951 q 1249 965 1172 951 q 1451 986 1386 986 q 1507 982 1482 986 l 1507 968 q 1290 935 1421 968 q 1209 917 1250 925 q 1138 910 1168 910 m 1254 -14 q 1127 3 1186 -14 q 1023 45 1068 21 q 911 111 978 69 q 749 202 817 172 q 590 232 681 232 q 307 163 457 232 q 60 0 157 93 l 26 29 q 242 270 101 171 q 547 433 383 369 q 971 579 710 497 q 1342 703 1194 649 q 1614 831 1490 758 l 1597 846 q 1353 774 1494 804 q 1050 743 1213 743 q 876 751 967 743 q 665 774 786 758 q 499 791 582 783 q 357 799 415 799 q 231 781 261 799 q 201 732 201 764 q 227 653 201 685 q 290 589 253 622 l 279 579 q 181 733 181 654 q 229 837 181 792 q 388 882 278 882 q 488 875 431 882 q 638 854 546 868 q 891 820 785 832 q 1108 808 997 808 q 1406 831 1260 808 q 1604 879 1553 854 l 1650 824 q 1347 682 1507 743 q 950 543 1186 621 q 555 403 706 463 q 273 259 404 344 q 65 58 142 174 l 79 44 q 196 133 114 82 q 384 222 278 185 q 593 260 490 260 q 738 237 674 260 q 890 168 801 214 q 1071 89 992 115 q 1258 63 1150 63 q 1464 100 1378 63 q 1550 218 1550 138 q 1501 317 1550 278 q 1385 373 1453 356 q 1261 390 1318 390 q 1156 376 1210 390 q 1064 331 1101 361 q 1026 257 1026 301 q 1041 203 1026 229 q 1074 160 1056 178 l 1064 150 q 1024 193 1043 164 q 1006 256 1006 222 q 1034 338 1006 296 q 1122 410 1063 381 q 1271 439 1182 439 q 1429 408 1361 439 q 1534 326 1497 378 q 1571 215 1571 275 q 1530 99 1571 151 q 1417 17 1489 47 q 1254 -14 1344 -14 z "},"Ż":{"ha":1667,"x_min":26,"x_max":1650,"o":"m 1133 861 q 1083 879 1103 861 q 1064 925 1064 897 q 1085 975 1064 957 q 1139 993 1106 993 q 1204 950 1181 993 l 1213 972 l 1226 968 q 1222 949 1225 961 q 1214 928 1218 936 q 1228 867 1222 904 l 1214 864 q 1203 904 1208 892 q 1133 861 1178 861 m 1129 951 q 1096 944 1108 951 q 1083 925 1083 938 q 1096 906 1083 913 q 1126 900 1108 900 q 1189 926 1167 900 q 1129 951 1168 951 m 1271 439 q 1429 408 1361 439 q 1534 326 1497 378 q 1571 215 1571 275 q 1530 99 1571 151 q 1417 17 1489 47 q 1254 -14 1344 -14 q 1127 3 1186 -14 q 1023 45 1068 21 q 911 111 978 69 q 749 202 817 172 q 590 232 681 232 q 307 163 457 232 q 60 0 157 93 l 26 29 q 242 270 101 171 q 547 433 383 369 q 971 579 710 497 q 1342 703 1194 649 q 1614 831 1490 758 l 1597 846 q 1353 774 1494 804 q 1050 743 1213 743 q 876 751 967 743 q 665 774 786 758 q 499 791 582 783 q 357 799 415 799 q 231 781 261 799 q 201 732 201 764 q 227 653 201 685 q 290 589 253 622 l 279 579 q 181 733 181 654 q 229 837 181 792 q 388 882 278 882 q 488 875 431 882 q 638 854 546 868 q 891 820 785 832 q 1108 808 997 808 q 1406 831 1260 808 q 1604 879 1553 854 l 1650 824 q 1347 682 1507 743 q 950 543 1186 621 q 555 403 706 463 q 273 259 404 344 q 65 58 142 174 l 79 44 q 196 133 114 82 q 384 222 278 185 q 593 260 490 260 q 738 237 674 260 q 890 168 801 214 q 1071 89 992 115 q 1258 63 1150 63 q 1464 100 1378 63 q 1550 218 1550 138 q 1501 317 1550 278 q 1385 373 1453 356 q 1261 390 1318 390 q 1156 376 1210 390 q 1064 331 1101 361 q 1026 257 1026 301 q 1041 203 1026 229 q 1074 160 1056 178 l 1064 150 q 1024 193 1043 164 q 1006 256 1006 222 q 1034 338 1006 296 q 1122 410 1063 381 q 1271 439 1182 439 z "},"a":{"ha":1667,"x_min":50,"x_max":1626,"o":"m 1265 83 q 1438 140 1351 83 q 1586 292 1525 197 l 1600 286 q 1501 142 1560 208 q 1381 38 1443 76 q 1265 0 1318 0 q 1187 29 1215 0 q 1158 110 1158 58 q 1194 228 1158 164 q 1294 375 1231 292 q 628 107 950 221 q 153 -7 307 -7 q 76 7 103 -7 q 50 46 50 21 q 197 225 50 110 q 541 428 343 340 q 889 517 739 517 q 1051 483 981 517 q 1163 401 1122 450 l 1150 393 q 1038 466 1107 436 q 886 496 969 496 q 563 416 746 496 q 241 235 379 336 q 103 89 103 135 q 113 74 103 78 q 150 69 124 69 q 437 114 249 69 q 859 235 625 158 q 1321 408 1093 313 q 1440 568 1403 513 q 1476 668 1476 624 q 1149 785 1476 785 q 641 726 903 785 q 178 572 379 668 l 172 586 q 636 781 399 700 q 1128 861 874 861 q 1403 814 1310 861 q 1497 686 1497 767 q 1461 572 1497 633 q 1357 424 1425 510 q 1619 543 1496 482 l 1626 531 q 1332 392 1544 489 q 1222 243 1258 300 q 1185 142 1185 186 q 1205 97 1185 111 q 1265 83 1225 83 z "},"á":{"ha":1667,"x_min":50,"x_max":1626,"o":"m 1265 83 q 1438 140 1351 83 q 1586 292 1525 197 l 1600 286 q 1501 142 1560 208 q 1381 38 1443 76 q 1265 0 1318 0 q 1187 29 1215 0 q 1158 110 1158 58 q 1194 228 1158 164 q 1294 375 1231 292 q 628 107 950 221 q 153 -7 307 -7 q 76 7 103 -7 q 50 46 50 21 q 197 225 50 110 q 541 428 343 340 q 889 517 739 517 q 1051 483 981 517 q 1163 401 1122 450 l 1150 393 q 1038 466 1107 436 q 886 496 969 496 q 563 416 746 496 q 241 235 379 336 q 103 89 103 135 q 113 74 103 78 q 150 69 124 69 q 437 114 249 69 q 859 235 625 158 q 1321 408 1093 313 q 1440 568 1403 513 q 1476 668 1476 624 q 1149 785 1476 785 q 641 726 903 785 q 178 572 379 668 l 172 586 q 636 781 399 700 q 1128 861 874 861 q 1403 814 1310 861 q 1497 686 1497 767 q 1461 572 1497 633 q 1357 424 1425 510 q 1619 543 1496 482 l 1626 531 q 1332 392 1544 489 q 1222 243 1258 300 q 1185 142 1185 186 q 1205 97 1185 111 q 1265 83 1225 83 m 917 938 q 1221 963 1088 947 q 1425 993 1354 978 l 1431 981 q 1293 928 1363 943 q 1131 914 1224 914 q 917 924 1063 914 l 917 938 z "},"ă":{"ha":1667,"x_min":50,"x_max":1626,"o":"m 1265 83 q 1438 140 1351 83 q 1586 292 1525 197 l 1600 286 q 1501 142 1560 208 q 1381 38 1443 76 q 1265 0 1318 0 q 1187 29 1215 0 q 1158 110 1158 58 q 1194 228 1158 164 q 1294 375 1231 292 q 628 107 950 221 q 153 -7 307 -7 q 76 7 103 -7 q 50 46 50 21 q 197 225 50 110 q 541 428 343 340 q 889 517 739 517 q 1051 483 981 517 q 1163 401 1122 450 l 1150 393 q 1038 466 1107 436 q 886 496 969 496 q 563 416 746 496 q 241 235 379 336 q 103 89 103 135 q 113 74 103 78 q 150 69 124 69 q 437 114 249 69 q 859 235 625 158 q 1321 408 1093 313 q 1440 568 1403 513 q 1476 668 1476 624 q 1149 785 1476 785 q 641 726 903 785 q 178 572 379 668 l 172 586 q 636 781 399 700 q 1128 861 874 861 q 1403 814 1310 861 q 1497 686 1497 767 q 1461 572 1497 633 q 1357 424 1425 510 q 1619 543 1496 482 l 1626 531 q 1332 392 1544 489 q 1222 243 1258 300 q 1185 142 1185 186 q 1205 97 1185 111 q 1265 83 1225 83 m 1150 903 q 908 927 990 903 q 801 979 825 951 l 813 989 q 928 956 856 968 q 1150 944 1001 944 q 1403 953 1328 944 q 1515 983 1478 961 l 1526 974 q 1408 925 1497 947 q 1150 903 1319 903 z "},"â":{"ha":1667,"x_min":50,"x_max":1626,"o":"m 1265 83 q 1438 140 1351 83 q 1586 292 1525 197 l 1600 286 q 1501 142 1560 208 q 1381 38 1443 76 q 1265 0 1318 0 q 1187 29 1215 0 q 1158 110 1158 58 q 1194 228 1158 164 q 1294 375 1231 292 q 628 107 950 221 q 153 -7 307 -7 q 76 7 103 -7 q 50 46 50 21 q 197 225 50 110 q 541 428 343 340 q 889 517 739 517 q 1051 483 981 517 q 1163 401 1122 450 l 1150 393 q 1038 466 1107 436 q 886 496 969 496 q 563 416 746 496 q 241 235 379 336 q 103 89 103 135 q 113 74 103 78 q 150 69 124 69 q 437 114 249 69 q 859 235 625 158 q 1321 408 1093 313 q 1440 568 1403 513 q 1476 668 1476 624 q 1149 785 1476 785 q 641 726 903 785 q 178 572 379 668 l 172 586 q 636 781 399 700 q 1128 861 874 861 q 1403 814 1310 861 q 1497 686 1497 767 q 1461 572 1497 633 q 1357 424 1425 510 q 1619 543 1496 482 l 1626 531 q 1332 392 1544 489 q 1222 243 1258 300 q 1185 142 1185 186 q 1205 97 1185 111 q 1265 83 1225 83 m 792 935 q 896 943 849 935 q 1013 968 943 951 q 1100 988 1069 982 q 1161 993 1131 993 q 1233 985 1192 993 q 1314 968 1274 978 q 1531 935 1444 935 l 1531 921 q 1475 917 1506 917 q 1272 938 1410 917 q 1161 951 1196 951 q 1033 936 1125 951 q 959 926 1021 935 q 847 917 897 917 q 792 921 817 917 l 792 935 z "},"ä":{"ha":1667,"x_min":50,"x_max":1626,"o":"m 1265 83 q 1438 140 1351 83 q 1586 292 1525 197 l 1600 286 q 1501 142 1560 208 q 1381 38 1443 76 q 1265 0 1318 0 q 1187 29 1215 0 q 1158 110 1158 58 q 1194 228 1158 164 q 1294 375 1231 292 q 628 107 950 221 q 153 -7 307 -7 q 76 7 103 -7 q 50 46 50 21 q 197 225 50 110 q 541 428 343 340 q 889 517 739 517 q 1051 483 981 517 q 1163 401 1122 450 l 1150 393 q 1038 466 1107 436 q 886 496 969 496 q 563 416 746 496 q 241 235 379 336 q 103 89 103 135 q 113 74 103 78 q 150 69 124 69 q 437 114 249 69 q 859 235 625 158 q 1321 408 1093 313 q 1440 568 1403 513 q 1476 668 1476 624 q 1149 785 1476 785 q 641 726 903 785 q 178 572 379 668 l 172 586 q 636 781 399 700 q 1128 861 874 861 q 1403 814 1310 861 q 1497 686 1497 767 q 1461 572 1497 633 q 1357 424 1425 510 q 1619 543 1496 482 l 1626 531 q 1332 392 1544 489 q 1222 243 1258 300 q 1185 142 1185 186 q 1205 97 1185 111 q 1265 83 1225 83 m 883 888 q 831 900 850 888 q 813 939 813 913 q 833 993 813 965 l 847 990 l 847 978 q 910 931 847 931 q 969 939 940 931 q 1043 965 997 947 l 1050 953 q 883 888 951 888 m 1360 888 q 1308 900 1326 888 q 1289 939 1289 913 q 1310 993 1289 965 l 1324 990 l 1324 978 q 1340 943 1324 956 q 1386 931 1356 931 q 1445 939 1417 931 q 1519 965 1474 947 l 1526 953 q 1360 888 1428 888 z "},"à":{"ha":1667,"x_min":50,"x_max":1626,"o":"m 1265 83 q 1438 140 1351 83 q 1586 292 1525 197 l 1600 286 q 1501 142 1560 208 q 1381 38 1443 76 q 1265 0 1318 0 q 1187 29 1215 0 q 1158 110 1158 58 q 1194 228 1158 164 q 1294 375 1231 292 q 628 107 950 221 q 153 -7 307 -7 q 76 7 103 -7 q 50 46 50 21 q 197 225 50 110 q 541 428 343 340 q 889 517 739 517 q 1051 483 981 517 q 1163 401 1122 450 l 1150 393 q 1038 466 1107 436 q 886 496 969 496 q 563 416 746 496 q 241 235 379 336 q 103 89 103 135 q 113 74 103 78 q 150 69 124 69 q 437 114 249 69 q 859 235 625 158 q 1321 408 1093 313 q 1440 568 1403 513 q 1476 668 1476 624 q 1149 785 1476 785 q 641 726 903 785 q 178 572 379 668 l 172 586 q 636 781 399 700 q 1128 861 874 861 q 1403 814 1310 861 q 1497 686 1497 767 q 1461 572 1497 633 q 1357 424 1425 510 q 1619 543 1496 482 l 1626 531 q 1332 392 1544 489 q 1222 243 1258 300 q 1185 142 1185 186 q 1205 97 1185 111 q 1265 83 1225 83 m 1424 924 q 1210 914 1278 914 q 1047 928 1117 914 q 910 981 978 943 l 915 993 q 1119 963 986 978 q 1424 938 1253 947 l 1424 924 z "},"ā":{"ha":1667,"x_min":50,"x_max":1626,"o":"m 1265 83 q 1438 140 1351 83 q 1586 292 1525 197 l 1600 286 q 1501 142 1560 208 q 1381 38 1443 76 q 1265 0 1318 0 q 1187 29 1215 0 q 1158 110 1158 58 q 1194 228 1158 164 q 1294 375 1231 292 q 628 107 950 221 q 153 -7 307 -7 q 76 7 103 -7 q 50 46 50 21 q 197 225 50 110 q 541 428 343 340 q 889 517 739 517 q 1051 483 981 517 q 1163 401 1122 450 l 1150 393 q 1038 466 1107 436 q 886 496 969 496 q 563 416 746 496 q 241 235 379 336 q 103 89 103 135 q 113 74 103 78 q 150 69 124 69 q 437 114 249 69 q 859 235 625 158 q 1321 408 1093 313 q 1440 568 1403 513 q 1476 668 1476 624 q 1149 785 1476 785 q 641 726 903 785 q 178 572 379 668 l 172 586 q 636 781 399 700 q 1128 861 874 861 q 1403 814 1310 861 q 1497 686 1497 767 q 1461 572 1497 633 q 1357 424 1425 510 q 1619 543 1496 482 l 1626 531 q 1332 392 1544 489 q 1222 243 1258 300 q 1185 142 1185 186 q 1205 97 1185 111 q 1265 83 1225 83 m 1199 935 q 878 953 1103 935 l 878 967 q 1293 982 1175 982 q 1469 975 1347 982 l 1472 961 q 1324 940 1385 946 q 1199 935 1263 935 z "},"ą":{"ha":1667,"x_min":50,"x_max":1660,"o":"m 1386 140 q 1304 167 1338 140 q 1297 129 1297 153 q 1401 42 1297 42 q 1472 53 1438 42 q 1550 93 1507 64 l 1563 85 q 1483 11 1521 36 q 1394 -14 1444 -14 q 1303 19 1336 -14 q 1271 104 1271 53 q 1293 178 1271 143 q 1268 250 1268 207 q 1317 385 1268 304 q 635 110 961 226 q 153 -7 308 -7 q 76 7 103 -7 q 50 46 50 21 q 197 225 50 110 q 541 428 343 340 q 889 517 739 517 q 1051 483 981 517 q 1163 401 1122 450 l 1150 393 q 1038 466 1107 436 q 886 496 969 496 q 563 416 746 496 q 241 235 379 336 q 103 89 103 135 q 113 74 103 78 q 150 69 124 69 q 441 115 250 69 q 869 238 632 160 q 1335 414 1106 317 q 1381 478 1344 429 q 1453 585 1429 544 q 1476 664 1476 626 q 1399 753 1476 722 q 1149 785 1322 785 q 641 726 903 785 q 178 572 379 668 l 172 586 q 636 781 399 700 q 1128 861 874 861 q 1403 814 1310 861 q 1497 686 1497 767 q 1469 587 1497 638 q 1385 458 1440 536 l 1360 425 q 1619 543 1469 471 l 1626 531 q 1340 396 1506 469 q 1294 282 1294 326 q 1317 235 1294 250 q 1388 221 1340 221 q 1522 253 1458 221 q 1647 353 1585 285 l 1660 344 q 1520 192 1588 244 q 1386 140 1453 140 z "},"å":{"ha":1667,"x_min":50,"x_max":1626,"o":"m 1265 83 q 1438 140 1351 83 q 1586 292 1525 197 l 1600 286 q 1501 142 1560 208 q 1381 38 1443 76 q 1265 0 1318 0 q 1187 29 1215 0 q 1158 110 1158 58 q 1194 228 1158 164 q 1294 375 1231 292 q 628 107 950 221 q 153 -7 307 -7 q 76 7 103 -7 q 50 46 50 21 q 197 225 50 110 q 541 428 343 340 q 889 517 739 517 q 1051 483 981 517 q 1163 401 1122 450 l 1150 393 q 1038 466 1107 436 q 886 496 969 496 q 563 416 746 496 q 241 235 379 336 q 103 89 103 135 q 113 74 103 78 q 150 69 124 69 q 437 114 249 69 q 859 235 625 158 q 1321 408 1093 313 q 1440 568 1403 513 q 1476 668 1476 624 q 1149 785 1476 785 q 641 726 903 785 q 178 572 379 668 l 172 586 q 618 774 392 696 q 1088 861 844 853 q 1064 913 1064 882 q 1085 970 1064 947 q 1139 993 1107 993 q 1211 965 1183 993 q 1250 900 1239 936 l 1238 896 q 1139 947 1208 947 q 1083 913 1083 947 q 1106 887 1083 897 q 1160 876 1128 876 q 1240 894 1224 876 l 1251 889 q 1226 857 1244 872 q 1429 799 1361 844 q 1497 686 1497 754 q 1461 572 1497 633 q 1357 424 1425 510 q 1619 543 1496 482 l 1626 531 q 1332 392 1544 489 q 1222 243 1258 300 q 1185 142 1185 186 q 1205 97 1185 111 q 1265 83 1225 83 z "},"ã":{"ha":1667,"x_min":50,"x_max":1626,"o":"m 1265 83 q 1438 140 1351 83 q 1586 292 1525 197 l 1600 286 q 1501 142 1560 208 q 1381 38 1443 76 q 1265 0 1318 0 q 1187 29 1215 0 q 1158 110 1158 58 q 1194 228 1158 164 q 1294 375 1231 292 q 628 107 950 221 q 153 -7 307 -7 q 76 7 103 -7 q 50 46 50 21 q 197 225 50 110 q 541 428 343 340 q 889 517 739 517 q 1051 483 981 517 q 1163 401 1122 450 l 1150 393 q 1038 466 1107 436 q 886 496 969 496 q 563 416 746 496 q 241 235 379 336 q 103 89 103 135 q 113 74 103 78 q 150 69 124 69 q 437 114 249 69 q 859 235 625 158 q 1321 408 1093 313 q 1440 568 1403 513 q 1476 668 1476 624 q 1149 785 1476 785 q 641 726 903 785 q 178 572 379 668 l 172 586 q 636 781 399 700 q 1128 861 874 861 q 1403 814 1310 861 q 1497 686 1497 767 q 1461 572 1497 633 q 1357 424 1425 510 q 1619 543 1496 482 l 1626 531 q 1332 392 1544 489 q 1222 243 1258 300 q 1185 142 1185 186 q 1205 97 1185 111 q 1265 83 1225 83 m 1336 886 q 1248 895 1283 886 q 1168 924 1213 904 q 1098 949 1125 942 q 1032 957 1071 957 q 915 939 971 957 q 822 896 860 921 l 813 910 q 925 969 865 944 q 1032 993 985 993 q 1098 986 1068 993 q 1167 967 1128 979 q 1250 944 1213 951 q 1338 936 1288 936 q 1486 953 1419 936 q 1593 993 1553 969 l 1601 978 q 1567 956 1600 978 q 1467 910 1535 933 q 1336 886 1399 886 z "},"æ":{"ha":1667,"x_min":50,"x_max":1635,"o":"m 1635 368 q 1401 90 1540 188 q 1100 -7 1261 -7 q 913 33 996 -7 q 790 153 831 74 q 508 35 658 78 q 231 -7 358 -7 q 96 14 142 -7 q 50 71 50 35 q 149 210 50 126 q 401 372 249 294 q 697 489 553 450 l 701 475 q 427 365 567 436 q 195 224 288 294 q 103 117 103 154 q 147 80 103 90 q 267 69 190 69 q 538 98 407 69 q 778 179 668 126 q 757 300 757 232 q 801 467 757 399 q 910 570 844 536 q 1042 604 975 604 q 1127 588 1089 604 q 1215 542 1165 572 q 1308 494 1268 510 q 1399 478 1347 478 q 1503 507 1464 478 q 1542 590 1542 536 q 1419 736 1542 688 q 1097 785 1297 785 q 618 724 867 785 q 178 572 369 664 l 172 586 q 615 776 386 696 q 1103 856 843 856 q 1443 786 1324 856 q 1563 597 1563 717 q 1518 488 1563 525 q 1397 450 1474 450 q 1310 462 1350 450 q 1211 499 1271 474 q 1119 533 1157 521 q 1038 544 1081 544 q 910 513 969 544 q 814 424 850 481 q 778 294 778 367 q 803 192 778 236 q 1035 378 949 267 l 1047 368 q 818 169 964 260 q 928 95 856 121 q 1106 69 1001 69 q 1411 147 1285 69 q 1621 376 1538 224 l 1635 368 z "},"b":{"ha":1667,"x_min":63,"x_max":1638,"o":"m 765 -7 q 489 35 600 -7 q 310 129 378 78 l 318 142 q 487 90 385 111 q 706 69 589 69 q 1126 131 914 69 q 1478 304 1339 193 q 1617 553 1617 415 q 1537 696 1617 649 q 1311 743 1457 743 q 867 647 1096 743 q 437 381 639 550 q 96 0 235 211 l 63 13 q 120 384 63 200 q 285 726 178 568 q 536 993 392 883 l 547 985 q 344 731 454 904 q 160 367 235 557 q 85 47 85 178 l 99 43 q 459 447 246 268 q 896 726 672 625 q 1300 826 1119 826 q 1481 793 1404 826 q 1597 701 1557 760 q 1638 567 1638 642 q 1516 290 1638 422 q 1193 75 1394 157 q 765 -7 992 -7 z "},"c":{"ha":1667,"x_min":57,"x_max":1635,"o":"m 572 -21 q 319 13 436 -21 q 129 113 201 46 q 57 278 57 181 q 219 560 57 425 q 630 778 382 694 q 1115 861 878 861 q 1360 820 1279 861 q 1440 711 1440 779 q 1306 538 1440 613 q 1013 418 1172 463 l 1008 432 q 1176 494 1081 453 q 1343 589 1272 536 q 1414 692 1414 642 q 1156 778 1414 778 q 655 708 907 778 q 240 526 403 639 q 78 292 78 413 q 197 128 78 193 q 576 63 315 63 q 1152 160 888 63 q 1622 433 1417 257 l 1635 424 q 1316 191 1497 292 q 941 35 1135 90 q 572 -21 747 -21 z "},"ć":{"ha":1667,"x_min":57,"x_max":1635,"o":"m 572 -21 q 319 13 436 -21 q 129 113 201 46 q 57 278 57 181 q 219 560 57 425 q 630 778 382 694 q 1115 861 878 861 q 1360 820 1279 861 q 1440 711 1440 779 q 1306 538 1440 613 q 1013 418 1172 463 l 1008 432 q 1176 494 1081 453 q 1343 589 1272 536 q 1414 692 1414 642 q 1156 778 1414 778 q 655 708 907 778 q 240 526 403 639 q 78 292 78 413 q 197 128 78 193 q 576 63 315 63 q 1152 160 888 63 q 1622 433 1417 257 l 1635 424 q 1316 191 1497 292 q 941 35 1135 90 q 572 -21 747 -21 z "},"č":{"ha":1667,"x_min":57,"x_max":1635,"o":"m 572 -21 q 319 13 436 -21 q 129 113 201 46 q 57 278 57 181 q 219 560 57 425 q 630 778 382 694 q 1115 861 878 861 q 1360 820 1279 861 q 1440 711 1440 779 q 1306 538 1440 613 q 1013 418 1172 463 l 1008 432 q 1176 494 1081 453 q 1343 589 1272 536 q 1414 692 1414 642 q 1156 778 1414 778 q 655 708 907 778 q 240 526 403 639 q 78 292 78 413 q 197 128 78 193 q 576 63 315 63 q 1152 160 888 63 q 1622 433 1417 257 l 1635 424 q 1316 191 1497 292 q 941 35 1135 90 q 572 -21 747 -21 z "},"ç":{"ha":1667,"x_min":57,"x_max":1635,"o":"m 569 108 q 607 51 607 81 q 465 -17 607 -19 l 464 -1 q 558 61 558 3 q 536 108 558 89 q 195 178 333 114 q 57 361 57 243 q 219 603 57 488 q 630 790 382 719 q 1115 861 878 861 q 1360 820 1279 861 q 1440 711 1440 779 q 1013 446 1440 565 l 1008 460 q 1278 563 1142 497 q 1414 692 1414 629 q 1156 778 1414 778 q 655 720 907 778 q 240 569 403 663 q 78 375 78 476 q 127 285 78 326 q 288 217 176 243 q 576 192 400 192 q 1152 289 888 192 q 1622 563 1417 386 l 1635 553 q 1316 320 1497 421 q 941 164 1135 219 q 572 108 747 108 l 569 108 z "},"ċ":{"ha":1667,"x_min":57,"x_max":1635,"o":"m 572 -21 q 319 13 436 -21 q 129 113 201 46 q 57 278 57 181 q 219 560 57 425 q 630 778 382 694 q 1115 861 878 861 q 1360 820 1279 861 q 1440 711 1440 779 q 1306 538 1440 613 q 1013 418 1172 463 l 1008 432 q 1176 494 1081 453 q 1343 589 1272 536 q 1414 692 1414 642 q 1156 778 1414 778 q 655 708 907 778 q 240 526 403 639 q 78 292 78 413 q 197 128 78 193 q 576 63 315 63 q 1152 160 888 63 q 1622 433 1417 257 l 1635 424 q 1316 191 1497 292 q 941 35 1135 90 q 572 -21 747 -21 z "},"d":{"ha":1667,"x_min":57,"x_max":1633,"o":"m 1624 497 q 1390 585 1519 551 q 1044 150 1274 321 q 475 -21 815 -21 q 184 27 311 -21 q 57 201 57 75 q 194 442 57 328 q 547 625 331 556 q 989 694 764 694 q 1383 633 1193 694 q 1478 986 1453 796 l 1492 985 q 1407 625 1478 800 q 1633 508 1549 575 l 1624 497 m 436 56 q 1014 201 783 56 q 1364 592 1244 347 q 1019 633 1194 633 q 578 573 799 633 q 218 415 358 513 q 78 215 78 318 q 172 94 78 132 q 436 56 267 56 z "},"ð":{"ha":1667,"x_min":57,"x_max":1665,"o":"m 1626 535 q 1565 338 1626 432 l 1639 294 l 1633 282 l 1601 297 q 1553 321 1575 311 q 1349 147 1482 222 q 1040 31 1217 72 q 665 -10 864 -10 q 345 24 483 -10 q 132 118 207 58 q 57 254 57 178 q 163 415 57 346 q 432 522 268 485 q 764 560 596 560 q 1549 346 1157 560 q 1606 524 1606 428 q 1563 678 1606 608 q 1436 796 1519 747 q 1244 650 1318 721 l 1235 663 q 1411 811 1325 750 q 1185 888 1318 861 q 889 914 1053 914 q 556 887 719 914 q 274 814 392 860 l 268 826 q 555 940 401 896 q 897 985 708 985 q 1207 947 1063 985 q 1451 838 1351 908 q 1660 938 1561 910 l 1665 924 q 1475 821 1553 869 q 1587 690 1547 763 q 1626 535 1626 618 m 668 68 q 1216 138 994 68 q 1536 329 1438 207 q 1183 451 1365 407 q 771 494 1000 494 q 417 462 576 494 q 168 373 258 429 q 78 249 78 317 q 249 110 78 153 q 668 68 419 68 z "},"ď":{"ha":1667,"x_min":57,"x_max":1633,"o":"m 1624 497 q 1390 585 1519 551 q 1044 150 1274 321 q 475 -21 815 -21 q 184 27 311 -21 q 57 201 57 75 q 194 442 57 328 q 547 625 331 556 q 989 694 764 694 q 1383 633 1193 694 q 1478 986 1453 796 l 1492 985 q 1407 625 1478 800 q 1633 508 1549 575 l 1624 497 m 1514 657 q 1593 881 1593 768 q 1585 978 1593 944 l 1599 983 q 1629 853 1629 917 q 1603 748 1629 796 q 1525 647 1576 700 l 1514 657 m 436 56 q 1014 201 783 56 q 1364 592 1244 347 q 1019 633 1194 633 q 578 573 799 633 q 218 415 358 513 q 78 215 78 318 q 172 94 78 132 q 436 56 267 56 z "},"đ":{"ha":1667,"x_min":57,"x_max":1651,"o":"m 1647 743 q 1464 808 1547 783 q 1407 625 1443 718 q 1633 508 1549 575 l 1624 497 q 1390 585 1519 551 q 1044 150 1274 321 q 475 -21 815 -21 q 184 27 311 -21 q 57 201 57 75 q 194 442 57 328 q 547 625 331 556 q 989 694 764 694 q 1383 633 1193 694 q 1444 814 1422 722 q 1000 875 1231 875 q 864 871 919 875 l 863 885 q 1144 910 1017 910 q 1456 856 1313 910 q 1478 986 1468 911 l 1492 985 q 1474 849 1489 932 q 1651 756 1560 811 l 1647 743 m 436 56 q 1014 201 783 56 q 1364 592 1244 347 q 1019 633 1194 633 q 578 573 799 633 q 218 415 358 513 q 78 215 78 318 q 172 94 78 132 q 436 56 267 56 z "},"e":{"ha":1667,"x_min":35,"x_max":1635,"o":"m 1635 424 q 1176 102 1428 211 q 657 -7 925 -7 q 376 24 517 -7 q 135 135 236 54 q 35 358 35 217 q 106 560 35 476 q 288 687 176 644 q 518 729 399 729 q 631 718 575 729 q 796 813 699 771 q 1011 856 893 856 q 1192 823 1110 856 q 1321 732 1274 790 q 1368 600 1368 674 q 1322 489 1368 528 q 1193 450 1276 450 q 1069 473 1125 450 q 922 544 1013 496 q 797 610 850 585 q 674 652 743 635 q 522 669 604 669 q 287 627 394 669 q 117 513 179 585 q 56 361 56 442 q 128 210 56 276 q 343 107 200 144 q 689 69 486 69 q 1062 111 897 69 q 1360 232 1226 153 q 1622 433 1493 311 l 1635 424 m 1014 779 q 676 708 850 779 q 797 662 743 690 q 933 583 851 633 q 1076 503 1019 529 q 1196 478 1133 478 q 1306 510 1264 478 q 1347 597 1347 543 q 1249 732 1347 685 q 1014 779 1151 779 z "},"é":{"ha":1667,"x_min":35,"x_max":1635,"o":"m 811 938 q 1115 963 982 947 q 1319 993 1249 978 l 1325 981 q 1188 928 1257 943 q 1025 914 1118 914 q 811 924 957 914 l 811 938 m 1635 424 q 1176 102 1428 211 q 657 -7 925 -7 q 376 24 517 -7 q 135 135 236 54 q 35 358 35 217 q 106 560 35 476 q 288 687 176 644 q 518 729 399 729 q 631 718 575 729 q 796 813 699 771 q 1011 856 893 856 q 1192 823 1110 856 q 1321 732 1274 790 q 1368 600 1368 674 q 1322 489 1368 528 q 1193 450 1276 450 q 1069 473 1125 450 q 922 544 1013 496 q 797 610 850 585 q 674 652 743 635 q 522 669 604 669 q 287 627 394 669 q 117 513 179 585 q 56 361 56 442 q 128 210 56 276 q 343 107 200 144 q 689 69 486 69 q 1062 111 897 69 q 1360 232 1226 153 q 1622 433 1493 311 l 1635 424 m 1014 779 q 676 708 850 779 q 797 662 743 690 q 933 583 851 633 q 1076 503 1019 529 q 1196 478 1133 478 q 1306 510 1264 478 q 1347 597 1347 543 q 1249 732 1347 685 q 1014 779 1151 779 z "},"ě":{"ha":1667,"x_min":35,"x_max":1635,"o":"m 1635 424 q 1176 102 1428 211 q 657 -7 925 -7 q 376 24 517 -7 q 135 135 236 54 q 35 358 35 217 q 106 560 35 476 q 288 687 176 644 q 518 729 399 729 q 631 718 575 729 q 796 813 699 771 q 1011 856 893 856 q 1192 823 1110 856 q 1321 732 1274 790 q 1368 600 1368 674 q 1322 489 1368 528 q 1193 450 1276 450 q 1069 473 1125 450 q 922 544 1013 496 q 797 610 850 585 q 674 652 743 635 q 522 669 604 669 q 287 627 394 669 q 117 513 179 585 q 56 361 56 442 q 128 210 56 276 q 343 107 200 144 q 689 69 486 69 q 1062 111 897 69 q 1360 232 1226 153 q 1622 433 1493 311 l 1635 424 m 1014 779 q 676 708 850 779 q 797 662 743 690 q 933 583 851 633 q 1076 503 1019 529 q 1196 478 1133 478 q 1306 510 1264 478 q 1347 597 1347 543 q 1249 732 1347 685 q 1014 779 1151 779 z "},"ê":{"ha":1667,"x_min":35,"x_max":1635,"o":"m 688 935 q 792 943 744 935 q 908 968 839 951 q 996 988 965 982 q 1057 993 1026 993 q 1128 985 1088 993 q 1210 968 1169 978 q 1426 935 1340 935 l 1426 921 q 1371 917 1401 917 q 1168 938 1306 917 q 1057 951 1092 951 q 929 936 1021 951 q 855 926 917 935 q 743 917 793 917 q 688 921 713 917 l 688 935 m 1635 424 q 1176 102 1428 211 q 657 -7 925 -7 q 376 24 517 -7 q 135 135 236 54 q 35 358 35 217 q 106 560 35 476 q 288 687 176 644 q 518 729 399 729 q 631 718 575 729 q 796 813 699 771 q 1011 856 893 856 q 1192 823 1110 856 q 1321 732 1274 790 q 1368 600 1368 674 q 1322 489 1368 528 q 1193 450 1276 450 q 1069 473 1125 450 q 922 544 1013 496 q 797 610 850 585 q 674 652 743 635 q 522 669 604 669 q 287 627 394 669 q 117 513 179 585 q 56 361 56 442 q 128 210 56 276 q 343 107 200 144 q 689 69 486 69 q 1062 111 897 69 q 1360 232 1226 153 q 1622 433 1493 311 l 1635 424 m 1014 779 q 676 708 850 779 q 797 662 743 690 q 933 583 851 633 q 1076 503 1019 529 q 1196 478 1133 478 q 1306 510 1264 478 q 1347 597 1347 543 q 1249 732 1347 685 q 1014 779 1151 779 z "},"ë":{"ha":1667,"x_min":35,"x_max":1635,"o":"m 767 888 q 715 900 733 888 q 696 939 696 913 q 717 993 696 965 l 731 990 l 731 978 q 793 931 731 931 q 852 939 824 931 q 926 965 881 947 l 933 953 q 767 888 835 888 m 1243 888 q 1191 900 1210 888 q 1172 939 1172 913 q 1193 993 1172 965 l 1207 990 l 1207 978 q 1223 943 1207 956 q 1269 931 1239 931 q 1328 939 1300 931 q 1403 965 1357 947 l 1410 953 q 1243 888 1311 888 m 1635 424 q 1176 102 1428 211 q 657 -7 925 -7 q 376 24 517 -7 q 135 135 236 54 q 35 358 35 217 q 106 560 35 476 q 288 687 176 644 q 518 729 399 729 q 631 718 575 729 q 796 813 699 771 q 1011 856 893 856 q 1192 823 1110 856 q 1321 732 1274 790 q 1368 600 1368 674 q 1322 489 1368 528 q 1193 450 1276 450 q 1069 473 1125 450 q 922 544 1013 496 q 797 610 850 585 q 674 652 743 635 q 522 669 604 669 q 287 627 394 669 q 117 513 179 585 q 56 361 56 442 q 128 210 56 276 q 343 107 200 144 q 689 69 486 69 q 1062 111 897 69 q 1360 232 1226 153 q 1622 433 1493 311 l 1635 424 m 1014 779 q 676 708 850 779 q 797 662 743 690 q 933 583 851 633 q 1076 503 1019 529 q 1196 478 1133 478 q 1306 510 1264 478 q 1347 597 1347 543 q 1249 732 1347 685 q 1014 779 1151 779 z "},"ė":{"ha":1667,"x_min":35,"x_max":1635,"o":"m 1635 424 q 1176 102 1428 211 q 657 -7 925 -7 q 376 24 517 -7 q 135 135 236 54 q 35 358 35 217 q 106 560 35 476 q 288 687 176 644 q 518 729 399 729 q 631 718 575 729 q 796 813 699 771 q 1011 856 893 856 q 1192 823 1110 856 q 1321 732 1274 790 q 1368 600 1368 674 q 1322 489 1368 528 q 1193 450 1276 450 q 1069 473 1125 450 q 922 544 1013 496 q 797 610 850 585 q 674 652 743 635 q 522 669 604 669 q 287 627 394 669 q 117 513 179 585 q 56 361 56 442 q 128 210 56 276 q 343 107 200 144 q 689 69 486 69 q 1062 111 897 69 q 1360 232 1226 153 q 1622 433 1493 311 l 1635 424 m 1014 779 q 676 708 850 779 q 797 662 743 690 q 933 583 851 633 q 1076 503 1019 529 q 1196 478 1133 478 q 1306 510 1264 478 q 1347 597 1347 543 q 1249 732 1347 685 q 1014 779 1151 779 z "},"è":{"ha":1667,"x_min":35,"x_max":1635,"o":"m 1325 924 q 1111 914 1179 914 q 949 928 1018 914 q 811 981 879 943 l 817 993 q 1021 963 888 978 q 1325 938 1154 947 l 1325 924 m 1635 424 q 1176 102 1428 211 q 657 -7 925 -7 q 376 24 517 -7 q 135 135 236 54 q 35 358 35 217 q 106 560 35 476 q 288 687 176 644 q 518 729 399 729 q 631 718 575 729 q 796 813 699 771 q 1011 856 893 856 q 1192 823 1110 856 q 1321 732 1274 790 q 1368 600 1368 674 q 1322 489 1368 528 q 1193 450 1276 450 q 1069 473 1125 450 q 922 544 1013 496 q 797 610 850 585 q 674 652 743 635 q 522 669 604 669 q 287 627 394 669 q 117 513 179 585 q 56 361 56 442 q 128 210 56 276 q 343 107 200 144 q 689 69 486 69 q 1062 111 897 69 q 1360 232 1226 153 q 1622 433 1493 311 l 1635 424 m 1014 779 q 676 708 850 779 q 797 662 743 690 q 933 583 851 633 q 1076 503 1019 529 q 1196 478 1133 478 q 1306 510 1264 478 q 1347 597 1347 543 q 1249 732 1347 685 q 1014 779 1151 779 z "},"ē":{"ha":1667,"x_min":35,"x_max":1635,"o":"m 1635 424 q 1176 102 1428 211 q 657 -7 925 -7 q 376 24 517 -7 q 135 135 236 54 q 35 358 35 217 q 106 560 35 476 q 288 687 176 644 q 518 729 399 729 q 631 718 575 729 q 796 813 699 771 q 1011 856 893 856 q 1192 823 1110 856 q 1321 732 1274 790 q 1368 600 1368 674 q 1322 489 1368 528 q 1193 450 1276 450 q 1069 473 1125 450 q 922 544 1013 496 q 797 610 850 585 q 674 652 743 635 q 522 669 604 669 q 287 627 394 669 q 117 513 179 585 q 56 361 56 442 q 128 210 56 276 q 343 107 200 144 q 689 69 486 69 q 1062 111 897 69 q 1360 232 1226 153 q 1622 433 1493 311 l 1635 424 m 1014 779 q 676 708 850 779 q 797 662 743 690 q 933 583 851 633 q 1076 503 1019 529 q 1196 478 1133 478 q 1306 510 1264 478 q 1347 597 1347 543 q 1249 732 1347 685 q 1014 779 1151 779 m 1078 935 q 757 953 982 935 l 757 967 q 1172 982 1054 982 q 1349 975 1226 982 l 1351 961 q 1203 940 1264 946 q 1078 935 1142 935 z "},"ę":{"ha":1667,"x_min":35,"x_max":1635,"o":"m 1338 186 q 1317 160 1325 176 q 1310 125 1310 143 q 1339 64 1310 86 q 1426 42 1368 42 q 1501 53 1465 42 q 1579 93 1536 64 l 1592 85 q 1510 10 1549 35 q 1419 -14 1472 -14 q 1319 19 1356 -14 q 1283 104 1283 53 q 1299 163 1283 136 q 657 -7 996 -7 q 376 24 517 -7 q 135 135 236 54 q 35 358 35 217 q 106 560 35 476 q 288 687 176 644 q 518 729 399 729 q 631 718 575 729 q 796 813 699 771 q 1011 856 893 856 q 1192 823 1110 856 q 1321 732 1274 790 q 1368 600 1368 674 q 1322 489 1368 528 q 1193 450 1276 450 q 1069 473 1125 450 q 922 544 1013 496 q 797 610 850 585 q 674 652 743 635 q 522 669 604 669 q 287 627 394 669 q 117 513 179 585 q 56 361 56 442 q 128 210 56 276 q 343 107 200 144 q 689 69 486 69 q 1062 111 897 69 q 1360 232 1226 153 q 1622 433 1493 311 l 1635 424 q 1338 186 1494 279 m 1014 779 q 676 708 850 779 q 797 662 743 690 q 933 583 851 633 q 1076 503 1019 529 q 1196 478 1133 478 q 1306 510 1264 478 q 1347 597 1347 543 q 1249 732 1347 685 q 1014 779 1151 779 z "},"f":{"ha":1667,"x_min":42,"x_max":1625,"o":"m 1460 607 q 1556 678 1515 629 q 1597 779 1597 726 q 1533 880 1597 843 q 1354 917 1468 917 q 1095 850 1197 917 q 942 698 993 783 q 856 513 892 613 l 847 488 q 947 454 897 474 q 1165 389 1069 411 q 1379 367 1260 367 q 1540 381 1469 367 l 1540 367 q 1324 344 1429 344 q 1142 360 1221 344 q 954 408 1063 376 q 831 443 867 435 q 728 228 788 326 q 566 58 669 131 q 313 -15 463 -15 q 117 33 192 -15 q 42 167 42 82 q 86 290 42 232 q 206 385 131 347 l 213 372 q 110 292 151 340 q 69 194 69 244 q 137 96 69 131 q 314 61 204 61 q 639 173 526 61 q 811 447 751 285 q 667 463 742 463 q 393 319 460 463 l 379 325 q 487 469 413 421 q 667 518 561 518 q 828 493 742 518 l 836 515 q 930 726 876 628 q 1090 909 983 825 q 1353 993 1196 993 q 1549 942 1472 993 q 1625 807 1625 892 q 1581 680 1625 740 q 1468 594 1536 619 l 1460 607 z "},"g":{"ha":1667,"x_min":39,"x_max":1628,"o":"m 1083 306 q 810 335 953 306 q 567 422 667 364 q 468 564 468 481 q 476 610 468 588 q 422 611 458 611 q 230 579 313 611 q 103 494 147 547 q 60 381 60 442 q 163 237 60 286 q 428 188 265 188 q 728 211 521 188 q 940 233 847 225 q 1122 242 1032 242 q 1376 209 1297 242 q 1454 121 1454 176 q 1353 26 1454 57 q 1033 -6 1251 -6 l 1033 13 q 1318 37 1203 13 q 1433 113 1433 61 q 1355 175 1433 156 q 1147 194 1276 194 q 935 182 1029 194 q 724 146 842 169 q 561 117 625 126 q 428 108 497 108 q 138 181 238 108 q 39 374 39 254 q 92 528 39 461 q 231 631 144 594 q 419 667 318 667 q 506 660 457 667 q 692 784 564 735 q 954 833 821 833 q 1162 797 1078 833 q 1289 722 1246 760 l 1276 711 q 1141 744 1226 729 q 960 758 1056 758 q 717 733 839 758 q 535 656 596 707 q 688 613 617 640 q 838 549 760 585 l 833 535 q 672 580 763 560 q 497 608 582 600 q 489 567 489 588 q 594 442 489 488 q 834 378 699 396 q 1081 361 969 361 q 1337 389 1215 361 q 1533 467 1458 417 q 1607 586 1607 518 q 1566 674 1607 636 q 1469 735 1525 711 q 1315 792 1413 758 q 1144 861 1199 832 q 1089 933 1089 890 q 1108 974 1089 958 q 1165 988 1128 989 l 1165 972 q 1125 964 1140 972 q 1110 939 1110 956 q 1153 889 1110 910 q 1289 838 1196 868 q 1461 774 1393 804 q 1578 695 1529 744 q 1628 575 1628 646 q 1542 420 1628 481 q 1332 333 1457 360 q 1083 306 1207 306 z "},"ğ":{"ha":1667,"x_min":39,"x_max":1628,"o":"m 1033 903 q 791 927 874 903 q 685 979 708 951 l 696 989 q 812 956 739 968 q 1033 944 885 944 q 1286 953 1211 944 q 1399 983 1361 961 l 1410 974 q 1292 925 1381 947 q 1033 903 1203 903 m 1083 306 q 810 335 953 306 q 567 422 667 364 q 468 564 468 481 q 476 610 468 588 q 422 611 458 611 q 230 579 313 611 q 103 494 147 547 q 60 381 60 442 q 163 237 60 286 q 428 188 265 188 q 728 211 521 188 q 940 233 847 225 q 1122 242 1032 242 q 1376 209 1297 242 q 1454 121 1454 176 q 1353 26 1454 57 q 1033 -6 1251 -6 l 1033 13 q 1318 37 1203 13 q 1433 113 1433 61 q 1355 175 1433 156 q 1147 194 1276 194 q 935 182 1029 194 q 724 146 842 169 q 561 117 625 126 q 428 108 497 108 q 138 181 238 108 q 39 374 39 254 q 92 528 39 461 q 231 631 144 594 q 419 667 318 667 q 506 660 457 667 q 692 784 564 735 q 954 833 821 833 q 1162 797 1078 833 q 1289 722 1246 760 l 1276 711 q 1141 744 1226 729 q 960 758 1056 758 q 717 733 839 758 q 535 656 596 707 q 688 613 617 640 q 838 549 760 585 l 833 535 q 672 580 763 560 q 497 608 582 600 q 489 567 489 588 q 594 442 489 488 q 834 378 699 396 q 1081 361 969 361 q 1337 389 1215 361 q 1533 467 1458 417 q 1607 586 1607 518 q 1564 675 1607 640 q 1439 747 1521 710 q 1361 793 1389 771 q 1333 844 1333 815 q 1353 883 1333 868 q 1410 897 1372 899 l 1410 882 q 1369 874 1385 882 q 1354 850 1354 865 q 1379 815 1354 831 q 1451 778 1404 799 q 1581 693 1533 742 q 1628 575 1628 644 q 1542 420 1628 481 q 1332 333 1457 360 q 1083 306 1207 306 z "},"ģ":{"ha":1667,"x_min":39,"x_max":1628,"o":"m 1044 857 q 992 870 1010 857 q 974 906 974 883 q 1206 993 974 979 l 1208 979 q 1060 954 1106 969 q 1014 910 1014 939 q 1050 878 1014 888 l 1044 857 m 1083 306 q 810 335 953 306 q 567 422 667 364 q 468 564 468 481 q 476 610 468 588 q 422 611 458 611 q 230 579 313 611 q 103 494 147 547 q 60 381 60 442 q 163 237 60 286 q 428 188 265 188 q 728 211 521 188 q 940 233 847 225 q 1122 242 1032 242 q 1376 209 1297 242 q 1454 121 1454 176 q 1353 26 1454 57 q 1033 -6 1251 -6 l 1033 13 q 1318 37 1203 13 q 1433 113 1433 61 q 1355 175 1433 156 q 1147 194 1276 194 q 935 182 1029 194 q 724 146 842 169 q 561 117 625 126 q 428 108 497 108 q 138 181 238 108 q 39 374 39 254 q 92 528 39 461 q 231 631 144 594 q 419 667 318 667 q 507 660 458 667 q 692 775 567 731 q 949 819 818 819 q 1160 783 1076 819 q 1289 708 1244 746 l 1276 697 q 1140 730 1225 715 q 950 744 1054 744 q 715 724 832 744 q 538 656 597 703 q 691 612 618 640 q 838 549 764 583 l 833 535 q 672 580 763 560 q 497 608 582 600 q 489 567 489 588 q 594 442 489 488 q 834 378 699 396 q 1081 361 969 361 q 1337 389 1215 361 q 1533 467 1458 417 q 1607 586 1607 518 q 1564 675 1607 640 q 1439 747 1521 710 q 1361 793 1389 771 q 1333 844 1333 815 q 1353 883 1333 868 q 1410 897 1372 899 l 1410 882 q 1369 874 1385 882 q 1354 850 1354 865 q 1378 815 1354 829 q 1451 778 1401 800 q 1581 693 1533 742 q 1628 575 1628 644 q 1542 420 1628 481 q 1332 333 1457 360 q 1083 306 1207 306 z "},"ġ":{"ha":1667,"x_min":39,"x_max":1628,"o":"m 1031 861 q 981 879 1000 861 q 961 925 961 897 q 982 975 961 957 q 1036 993 1003 993 q 1101 950 1078 993 l 1110 972 l 1124 968 q 1119 949 1122 961 q 1111 928 1115 936 q 1125 867 1119 904 l 1111 864 q 1100 904 1106 892 q 1031 861 1075 861 m 1026 951 q 993 944 1006 951 q 981 925 981 938 q 993 906 981 913 q 1024 900 1006 900 q 1086 926 1064 900 q 1026 951 1065 951 m 1083 306 q 810 335 953 306 q 567 422 667 364 q 468 564 468 481 q 476 610 468 588 q 422 611 458 611 q 230 579 313 611 q 103 494 147 547 q 60 381 60 442 q 163 237 60 286 q 428 188 265 188 q 728 211 521 188 q 940 233 847 225 q 1122 242 1032 242 q 1376 209 1297 242 q 1454 121 1454 176 q 1353 26 1454 57 q 1033 -6 1251 -6 l 1033 13 q 1318 37 1203 13 q 1433 113 1433 61 q 1355 175 1433 156 q 1147 194 1276 194 q 935 182 1029 194 q 724 146 842 169 q 561 117 625 126 q 428 108 497 108 q 138 181 238 108 q 39 374 39 254 q 92 528 39 461 q 231 631 144 594 q 419 667 318 667 q 507 660 458 667 q 692 775 567 731 q 949 819 818 819 q 1160 783 1076 819 q 1289 708 1244 746 l 1276 697 q 1140 730 1225 715 q 950 744 1054 744 q 715 724 832 744 q 538 656 597 703 q 691 612 618 640 q 838 549 764 583 l 833 535 q 672 580 763 560 q 497 608 582 600 q 489 567 489 588 q 594 442 489 488 q 834 378 699 396 q 1081 361 969 361 q 1337 389 1215 361 q 1533 467 1458 417 q 1607 586 1607 518 q 1564 675 1607 640 q 1439 747 1521 710 q 1361 793 1389 771 q 1333 844 1333 815 q 1353 883 1333 868 q 1410 897 1372 899 l 1410 882 q 1369 874 1385 882 q 1354 850 1354 865 q 1378 815 1354 829 q 1451 778 1401 800 q 1581 693 1533 742 q 1628 575 1628 644 q 1542 420 1628 481 q 1332 333 1457 360 q 1083 306 1207 306 z "},"h":{"ha":1667,"x_min":14,"x_max":1611,"o":"m 1064 -17 q 886 24 947 -17 q 825 133 825 65 q 878 241 825 197 q 1018 301 931 285 l 1024 289 q 897 233 947 272 q 846 139 846 193 q 899 58 846 85 q 1046 32 953 32 q 1313 90 1192 32 q 1506 246 1435 149 q 1576 456 1576 343 q 1467 667 1576 597 q 1186 736 1358 736 q 624 544 900 736 q 111 0 349 351 l 78 13 q 191 519 78 269 q 494 946 304 769 l 486 954 q 385 899 442 915 q 242 869 328 882 q 125 847 167 858 q 56 805 83 835 q 28 719 28 775 l 14 721 q 27 817 14 771 q 94 902 40 863 q 256 942 147 942 q 378 944 339 942 q 444 958 417 947 q 504 993 472 968 l 539 960 q 336 694 439 867 q 167 342 233 521 q 100 47 100 163 l 114 43 q 448 450 267 275 q 823 722 629 625 q 1201 819 1017 819 q 1413 779 1319 819 q 1558 661 1506 739 q 1611 474 1611 583 q 1538 231 1611 344 q 1338 51 1464 118 q 1064 -17 1213 -17 z "},"ħ":{"ha":1667,"x_min":22,"x_max":1611,"o":"m 1201 819 q 1413 779 1319 819 q 1558 661 1506 739 q 1611 474 1611 583 q 1538 231 1611 344 q 1338 51 1464 118 q 1064 -17 1213 -17 q 886 24 947 -17 q 825 133 825 65 q 878 241 825 197 q 1018 301 931 285 l 1024 289 q 897 233 947 272 q 846 139 846 193 q 899 58 846 85 q 1046 32 953 32 q 1313 90 1192 32 q 1506 246 1435 149 q 1576 456 1576 343 q 1467 667 1576 597 q 1186 736 1358 736 q 624 544 900 736 q 111 0 349 351 l 78 13 q 164 458 78 242 q 414 858 250 674 q 143 879 286 879 q 24 875 79 879 l 22 890 q 249 914 147 914 q 444 892 340 914 q 526 972 475 926 l 539 960 q 469 885 511 933 q 714 789 593 853 l 708 775 q 569 821 629 803 q 443 853 510 839 q 276 588 356 739 q 149 290 197 436 q 100 47 100 144 l 114 43 q 448 450 267 275 q 823 722 629 625 q 1201 819 1017 819 z "},"i":{"ha":1667,"x_min":53,"x_max":1604,"o":"m 1213 840 q 1122 864 1153 840 q 1090 925 1090 888 q 1113 992 1090 956 l 1126 990 q 1125 978 1125 986 q 1172 916 1125 933 q 1283 899 1218 899 q 1401 913 1347 899 q 1515 954 1456 926 l 1522 942 q 1365 870 1450 900 q 1213 840 1281 840 m 449 -12 q 148 58 243 -12 q 53 244 53 129 q 91 369 53 313 q 188 457 129 425 q 306 489 246 489 q 423 453 379 489 q 490 356 467 417 l 478 347 q 415 403 460 381 q 306 426 369 426 q 186 402 239 426 q 103 336 133 378 q 74 244 74 294 q 167 109 74 158 q 449 60 260 60 q 1051 208 810 60 q 1404 519 1293 357 q 1569 813 1515 682 l 1554 826 q 1391 733 1483 764 q 1154 701 1299 701 q 1035 661 1075 701 q 996 556 996 621 l 982 557 q 998 680 982 636 q 1069 747 1014 724 q 1238 771 1124 771 q 1414 794 1326 771 q 1561 868 1501 817 l 1604 835 q 1440 532 1568 728 q 1060 162 1313 336 q 449 -12 807 -12 z "},"ı":{"ha":1667,"x_min":53,"x_max":1604,"o":"m 476 -10 q 235 31 331 -10 q 97 138 140 71 q 53 286 53 204 q 92 433 53 368 q 192 535 131 499 q 319 572 254 572 q 490 439 439 572 l 478 431 q 417 478 461 460 q 319 496 372 496 q 197 467 253 496 q 107 391 140 439 q 74 286 74 343 q 172 129 74 188 q 476 71 271 71 q 1063 217 826 71 q 1414 531 1299 364 q 1569 813 1529 699 l 1554 826 q 1388 744 1493 772 q 1182 715 1282 715 q 1040 676 1083 715 q 996 569 996 636 l 982 571 q 998 696 982 651 q 1069 766 1014 740 q 1238 792 1124 792 q 1426 805 1344 792 q 1571 868 1507 818 l 1604 835 q 1442 534 1569 729 q 1069 165 1315 339 q 476 -10 822 -10 z "},"í":{"ha":1667,"x_min":53,"x_max":1636,"o":"m 1122 938 q 1426 963 1293 947 q 1631 993 1560 978 l 1636 981 q 1499 928 1568 943 q 1336 914 1429 914 q 1122 924 1268 914 l 1122 938 m 476 -10 q 235 31 331 -10 q 97 138 140 71 q 53 286 53 204 q 92 433 53 368 q 192 535 131 499 q 319 572 254 572 q 490 439 439 572 l 478 431 q 417 478 461 460 q 319 496 372 496 q 197 467 253 496 q 107 391 140 439 q 74 286 74 343 q 172 129 74 188 q 476 71 271 71 q 1063 217 826 71 q 1414 531 1299 364 q 1569 813 1529 699 l 1554 826 q 1388 744 1493 772 q 1182 715 1282 715 q 1040 676 1083 715 q 996 569 996 636 l 982 571 q 998 696 982 651 q 1069 766 1014 740 q 1238 792 1124 792 q 1426 805 1344 792 q 1571 868 1507 818 l 1604 835 q 1442 534 1569 729 q 1069 165 1315 339 q 476 -10 822 -10 z "},"î":{"ha":1667,"x_min":53,"x_max":1717,"o":"m 978 935 q 1082 943 1035 935 q 1199 968 1129 951 q 1286 988 1256 982 q 1347 993 1317 993 q 1419 985 1378 993 q 1500 968 1460 978 q 1717 935 1631 935 l 1717 921 q 1661 917 1692 917 q 1458 938 1596 917 q 1347 951 1382 951 q 1219 936 1311 951 q 1145 926 1207 935 q 1033 917 1083 917 q 978 921 1003 917 l 978 935 m 476 -10 q 235 31 331 -10 q 97 138 140 71 q 53 286 53 204 q 92 433 53 368 q 192 535 131 499 q 319 572 254 572 q 490 439 439 572 l 478 431 q 417 478 461 460 q 319 496 372 496 q 197 467 253 496 q 107 391 140 439 q 74 286 74 343 q 172 129 74 188 q 476 71 271 71 q 1063 217 826 71 q 1414 531 1299 364 q 1569 813 1529 699 l 1554 826 q 1388 744 1493 772 q 1182 715 1282 715 q 1040 676 1083 715 q 996 569 996 636 l 982 571 q 998 696 982 651 q 1069 766 1014 740 q 1238 792 1124 792 q 1426 805 1344 792 q 1571 868 1507 818 l 1604 835 q 1442 534 1569 729 q 1069 165 1315 339 q 476 -10 822 -10 z "},"ï":{"ha":1667,"x_min":53,"x_max":1710,"o":"m 1067 888 q 1015 900 1033 888 q 996 939 996 913 q 1017 993 996 965 l 1031 990 l 1031 978 q 1093 931 1031 931 q 1152 939 1124 931 q 1226 965 1181 947 l 1233 953 q 1067 888 1136 888 m 1543 888 q 1491 900 1510 888 q 1472 939 1472 913 q 1493 993 1472 965 l 1507 990 l 1507 978 q 1523 943 1507 956 q 1569 931 1539 931 q 1628 939 1600 931 q 1703 965 1657 947 l 1710 953 q 1543 888 1613 888 m 476 -10 q 235 31 331 -10 q 97 138 140 71 q 53 286 53 204 q 92 433 53 368 q 192 535 131 499 q 319 572 254 572 q 490 439 439 572 l 478 431 q 417 478 461 460 q 319 496 372 496 q 197 467 253 496 q 107 391 140 439 q 74 286 74 343 q 172 129 74 188 q 476 71 271 71 q 1063 217 826 71 q 1414 531 1299 364 q 1569 813 1529 699 l 1554 826 q 1388 744 1493 772 q 1182 715 1282 715 q 1040 676 1083 715 q 996 569 996 636 l 982 571 q 998 696 982 651 q 1069 766 1014 740 q 1238 792 1124 792 q 1426 805 1344 792 q 1571 868 1507 818 l 1604 835 q 1442 534 1569 729 q 1069 165 1315 339 q 476 -10 822 -10 z "},"ì":{"ha":1667,"x_min":53,"x_max":1604,"o":"m 1604 924 q 1390 914 1458 914 q 1228 928 1297 914 q 1090 981 1158 943 l 1096 993 q 1300 963 1167 978 q 1604 938 1433 947 l 1604 924 m 476 -10 q 235 31 331 -10 q 97 138 140 71 q 53 286 53 204 q 92 433 53 368 q 192 535 131 499 q 319 572 254 572 q 490 439 439 572 l 478 431 q 417 478 461 460 q 319 496 372 496 q 197 467 253 496 q 107 391 140 439 q 74 286 74 343 q 172 129 74 188 q 476 71 271 71 q 1063 217 826 71 q 1414 531 1299 364 q 1569 813 1529 699 l 1554 826 q 1388 744 1493 772 q 1182 715 1282 715 q 1040 676 1083 715 q 996 569 996 636 l 982 571 q 998 696 982 651 q 1069 766 1014 740 q 1238 792 1124 792 q 1426 805 1344 792 q 1571 868 1507 818 l 1604 835 q 1442 534 1569 729 q 1069 165 1315 339 q 476 -10 822 -10 z "},"ī":{"ha":1667,"x_min":53,"x_max":1625,"o":"m 476 -10 q 235 31 331 -10 q 97 138 140 71 q 53 286 53 204 q 92 433 53 368 q 192 535 131 499 q 319 572 254 572 q 490 439 439 572 l 478 431 q 417 478 461 460 q 319 496 372 496 q 197 467 253 496 q 107 391 140 439 q 74 286 74 343 q 172 129 74 188 q 476 71 271 71 q 1063 217 826 71 q 1414 531 1299 364 q 1569 813 1529 699 l 1554 826 q 1388 744 1493 772 q 1182 715 1282 715 q 1040 676 1083 715 q 996 569 996 636 l 982 571 q 998 696 982 651 q 1069 766 1014 740 q 1238 792 1124 792 q 1426 805 1344 792 q 1571 868 1507 818 l 1604 835 q 1442 534 1569 729 q 1069 165 1315 339 q 476 -10 822 -10 m 1351 935 q 1031 953 1256 935 l 1031 967 q 1446 982 1328 982 q 1622 975 1500 982 l 1625 961 q 1476 940 1538 946 q 1351 935 1415 935 z "},"į":{"ha":1667,"x_min":53,"x_max":1604,"o":"m 1213 840 q 1122 864 1153 840 q 1090 925 1090 888 q 1113 992 1090 956 l 1126 990 q 1125 978 1125 986 q 1172 916 1125 933 q 1283 899 1218 899 q 1401 913 1347 899 q 1515 954 1456 926 l 1522 942 q 1365 870 1450 900 q 1213 840 1281 840 m 1238 42 q 1299 52 1271 42 q 1372 93 1328 63 l 1385 85 q 1303 11 1343 36 q 1217 -14 1264 -14 q 1128 21 1161 -14 q 1094 110 1094 56 q 1119 204 1094 158 q 449 -12 819 -12 q 148 58 243 -12 q 53 244 53 129 q 91 369 53 313 q 188 457 129 425 q 306 489 246 489 q 423 453 379 489 q 490 356 467 417 l 478 347 q 415 403 460 381 q 306 426 369 426 q 186 402 239 426 q 103 336 133 378 q 74 244 74 294 q 167 109 74 158 q 449 60 260 60 q 1051 208 810 60 q 1404 519 1293 357 q 1569 813 1515 682 l 1554 826 q 1391 733 1483 764 q 1154 701 1299 701 q 1035 661 1075 701 q 996 556 996 621 l 982 557 q 998 680 982 636 q 1069 747 1014 724 q 1238 771 1124 771 q 1414 794 1326 771 q 1561 868 1501 817 l 1604 835 q 1538 690 1589 789 q 1392 468 1486 592 q 1167 240 1297 344 q 1133 192 1146 221 q 1121 135 1121 164 q 1151 65 1121 89 q 1238 42 1182 42 z "},"j":{"ha":1667,"x_min":39,"x_max":1647,"o":"m 1213 840 q 1122 864 1153 840 q 1090 925 1090 888 q 1113 992 1090 956 l 1126 990 q 1125 978 1125 986 q 1172 916 1125 933 q 1283 899 1218 899 q 1401 913 1347 899 q 1515 954 1456 926 l 1522 942 q 1365 870 1450 900 q 1213 840 1281 840 m 1647 365 q 1363 257 1536 257 q 1217 275 1297 257 q 855 49 1036 114 q 508 -17 674 -17 q 252 24 358 -17 q 92 135 146 65 q 39 292 39 204 q 81 448 39 382 q 188 549 122 514 q 326 585 254 585 q 431 549 388 585 q 497 451 474 514 l 485 443 q 419 491 461 474 q 324 508 378 508 q 135 450 211 508 q 60 296 60 392 q 117 174 60 228 q 275 90 175 119 q 497 60 375 60 q 1168 289 865 60 q 919 422 1022 333 q 815 614 815 511 q 892 738 815 689 q 1151 788 969 788 q 1328 782 1203 788 l 1444 779 q 1515 787 1486 779 q 1571 813 1543 794 l 1611 783 q 1246 301 1446 490 q 1363 292 1311 292 q 1510 310 1449 292 q 1639 376 1571 329 l 1647 365 m 836 619 q 884 494 836 556 q 1015 383 932 432 q 1197 311 1097 335 q 1581 767 1414 486 l 1564 778 q 1419 737 1508 746 q 1140 722 1329 728 q 971 713 1031 719 q 874 685 911 707 q 836 619 836 664 z "},"k":{"ha":1667,"x_min":63,"x_max":1611,"o":"m 1267 63 q 1407 92 1349 63 q 1498 158 1465 121 q 1561 246 1531 196 l 1574 239 q 1520 124 1549 174 q 1431 34 1492 75 q 1278 -7 1371 -7 q 824 181 1092 -7 q 649 144 707 156 l 646 158 q 806 193 764 183 q 586 367 708 264 l 594 378 q 846 203 717 279 q 1377 391 1164 283 q 1590 615 1590 499 q 1525 710 1590 678 q 1335 743 1460 743 q 914 659 1135 743 q 480 408 693 575 q 96 0 267 240 l 63 13 q 218 513 83 278 q 585 946 353 747 l 576 954 q 475 899 532 915 q 332 869 418 882 q 215 847 257 858 q 146 805 174 835 q 118 719 118 775 l 104 721 q 117 817 104 771 q 184 902 131 863 q 346 942 238 942 q 468 944 429 942 q 535 958 507 947 q 594 993 563 968 l 629 960 q 389 698 511 863 q 182 357 267 533 q 85 47 97 181 l 99 43 q 454 428 247 250 q 887 715 661 607 q 1313 822 1113 822 q 1529 772 1447 822 q 1611 633 1611 722 q 1403 379 1611 489 q 868 190 1196 269 q 1267 63 1097 63 z "},"ķ":{"ha":1667,"x_min":63,"x_max":1611,"o":"m 1267 63 q 1407 92 1349 63 q 1498 158 1465 121 q 1561 246 1531 196 l 1574 239 q 1520 124 1549 174 q 1431 34 1492 75 q 1278 -7 1371 -7 q 824 181 1092 -7 q 649 144 707 156 l 646 158 q 806 193 764 183 q 586 367 708 264 l 594 378 q 846 203 717 279 q 1377 391 1164 283 q 1590 615 1590 499 q 1525 710 1590 678 q 1335 743 1460 743 q 914 659 1135 743 q 480 408 693 575 q 96 0 267 240 l 63 13 q 218 513 83 278 q 585 946 353 747 l 576 954 q 475 899 532 915 q 332 869 418 882 q 215 847 257 858 q 146 805 174 835 q 118 719 118 775 l 104 721 q 117 817 104 771 q 184 902 131 863 q 346 942 238 942 q 468 944 429 942 q 535 958 507 947 q 594 993 563 968 l 629 960 q 389 698 511 863 q 182 357 267 533 q 85 47 97 181 l 99 43 q 454 428 247 250 q 887 715 661 607 q 1313 822 1113 822 q 1529 772 1447 822 q 1611 633 1611 722 q 1403 379 1611 489 q 868 190 1196 269 q 1267 63 1097 63 m 251 4 q 400 29 354 14 q 446 74 446 44 q 410 106 446 97 l 415 126 q 468 113 450 126 q 486 78 486 100 q 254 -10 486 4 l 251 4 z "},"l":{"ha":1667,"x_min":35,"x_max":1601,"o":"m 822 -7 q 269 63 503 -7 q 35 319 35 132 q 124 505 35 431 q 341 623 214 579 q 675 718 468 667 q 940 791 843 760 q 1101 869 1036 822 q 1165 981 1165 915 l 1186 981 q 1107 828 1186 889 q 913 731 1028 767 q 607 651 799 694 q 313 575 422 608 q 130 485 204 542 q 56 346 56 429 q 266 140 56 206 q 840 74 476 74 q 1238 99 1071 74 q 1492 170 1404 124 q 1581 281 1581 217 q 1496 379 1581 342 l 1503 392 q 1574 341 1547 376 q 1601 261 1601 306 q 1510 120 1601 181 q 1242 26 1418 60 q 822 -7 1067 -7 z "},"ĺ":{"ha":1667,"x_min":35,"x_max":1601,"o":"m 958 938 q 1263 963 1129 947 q 1467 993 1396 978 l 1472 981 q 1335 928 1404 943 q 1172 914 1265 914 q 958 924 1104 914 l 958 938 m 768 -7 q 247 49 460 -7 q 35 269 35 106 q 123 436 35 371 q 336 538 211 501 q 668 618 461 575 q 936 681 839 654 q 1099 751 1033 708 q 1165 856 1165 793 l 1186 856 q 1104 710 1186 767 q 904 621 1022 653 q 592 553 786 589 q 305 491 410 518 q 128 417 200 464 q 56 296 56 369 q 253 124 56 175 q 799 74 450 74 q 1383 128 1186 74 q 1581 279 1581 182 q 1496 379 1581 342 l 1503 392 q 1574 341 1547 375 q 1601 261 1601 307 q 1394 65 1601 136 q 768 -7 1188 -7 z "},"ľ":{"ha":1667,"x_min":35,"x_max":1601,"o":"m 1292 657 q 1369 888 1369 767 q 1363 978 1369 940 l 1376 983 q 1407 853 1407 917 q 1381 748 1407 796 q 1303 647 1354 700 l 1292 657 m 822 -7 q 269 63 503 -7 q 35 319 35 132 q 124 505 35 431 q 341 623 214 579 q 675 718 468 667 q 940 791 843 760 q 1101 869 1036 822 q 1165 981 1165 915 l 1186 981 q 1107 828 1186 889 q 913 731 1028 767 q 607 651 799 694 q 313 575 422 608 q 130 485 204 542 q 56 346 56 429 q 266 140 56 206 q 840 74 476 74 q 1238 99 1071 74 q 1492 170 1404 124 q 1581 281 1581 217 q 1496 379 1581 342 l 1503 392 q 1574 341 1547 376 q 1601 261 1601 306 q 1510 120 1601 181 q 1242 26 1418 60 q 822 -7 1067 -7 z "},"ļ":{"ha":1667,"x_min":35,"x_max":1601,"o":"m 825 160 q 273 224 511 160 q 35 456 35 288 q 127 619 35 556 q 349 715 219 682 q 690 785 479 747 q 949 835 857 814 q 1103 892 1040 857 q 1165 981 1165 928 l 1186 981 q 1107 853 1186 903 q 913 778 1028 804 q 607 722 799 751 q 314 669 424 693 q 130 599 204 644 q 56 483 56 554 q 269 301 56 363 q 842 240 482 240 q 1238 265 1072 240 q 1492 337 1404 290 q 1581 447 1581 383 q 1496 546 1581 508 l 1503 558 q 1574 508 1547 543 q 1601 428 1601 472 q 1510 287 1601 347 q 1243 193 1418 226 q 825 160 1068 160 m 219 -1 q 368 24 322 8 q 414 68 414 39 q 378 100 414 92 l 383 121 q 436 108 418 121 q 454 72 454 94 q 222 -15 454 -1 l 219 -1 z "},"ŀ":{"ha":1667,"x_min":35,"x_max":1601,"o":"m 822 -7 q 269 63 503 -7 q 35 319 35 132 q 124 505 35 431 q 341 623 214 579 q 675 718 468 667 q 940 791 843 760 q 1101 869 1036 822 q 1165 981 1165 915 l 1186 981 q 1107 828 1186 889 q 913 731 1028 767 q 607 651 799 694 q 313 575 422 608 q 130 485 204 542 q 56 346 56 429 q 266 140 56 206 q 840 74 476 74 q 1238 99 1071 74 q 1492 170 1404 124 q 1581 281 1581 217 q 1496 379 1581 342 l 1503 392 q 1574 341 1547 376 q 1601 261 1601 306 q 1510 120 1601 181 q 1242 26 1418 60 q 822 -7 1067 -7 m 1047 371 q 978 394 1006 371 q 951 449 951 417 q 973 506 951 483 q 1026 529 994 529 q 1099 501 1071 529 q 1138 436 1126 472 l 1125 432 q 1026 490 1093 490 q 971 449 971 490 q 1047 408 971 408 q 1128 431 1107 408 l 1139 425 q 1103 386 1128 401 q 1047 371 1078 371 z "},"ł":{"ha":1667,"x_min":35,"x_max":1601,"o":"m 1503 392 q 1574 341 1547 376 q 1601 261 1601 306 q 1510 120 1601 181 q 1242 26 1418 60 q 822 -7 1067 -7 q 269 63 503 -7 q 35 319 35 132 q 124 505 35 431 q 369 633 213 579 q 154 726 263 692 l 160 740 q 406 644 306 694 q 678 719 488 671 q 941 792 846 761 q 1101 869 1036 824 q 1165 981 1165 915 l 1186 981 q 1106 828 1186 889 q 912 731 1026 767 q 603 650 797 694 l 460 617 q 643 479 558 560 l 631 467 q 418 606 504 557 q 151 500 246 560 q 56 346 56 440 q 266 140 56 206 q 840 74 476 74 q 1238 99 1071 74 q 1492 170 1404 124 q 1581 281 1581 217 q 1496 379 1581 342 l 1503 392 z "},"m":{"ha":1667,"x_min":57,"x_max":1601,"o":"m 1281 -14 q 1201 15 1228 -14 q 1174 97 1174 44 q 1202 204 1174 151 q 1272 302 1231 257 q 1379 410 1313 347 q 1522 563 1475 501 q 1569 692 1569 625 q 1472 778 1569 778 q 1306 716 1386 778 q 1158 566 1225 654 q 999 338 1090 478 q 870 151 919 218 q 767 40 821 85 q 660 -6 713 -6 q 594 24 617 -6 q 571 100 571 53 q 603 213 571 157 q 684 316 636 268 q 808 432 732 364 q 916 531 878 493 q 981 611 954 569 q 1007 693 1007 653 q 978 756 1007 735 q 897 778 950 778 q 737 719 810 778 q 609 576 664 660 q 479 353 554 492 q 370 162 415 233 q 270 42 325 90 q 153 -6 215 -6 q 81 23 104 -6 q 57 101 57 51 q 85 215 57 158 q 155 322 114 272 q 263 443 196 372 q 397 602 353 540 q 440 725 440 664 q 410 802 440 774 q 326 831 379 831 q 206 785 263 831 q 110 660 149 739 l 97 667 q 201 807 138 763 q 331 851 264 851 q 427 815 393 851 q 461 724 461 779 q 408 574 461 650 q 251 389 354 499 q 121 238 164 296 q 78 129 78 179 q 95 88 78 100 q 144 75 113 75 q 278 126 217 75 q 387 251 339 176 q 503 453 435 326 q 624 663 572 583 q 744 798 676 743 q 893 853 811 853 q 997 814 964 853 q 1031 719 1031 775 q 997 605 1031 663 q 915 499 963 547 q 788 379 867 450 q 640 233 688 289 q 592 122 592 176 q 604 86 592 97 q 643 75 617 75 q 771 127 706 75 q 895 254 836 179 q 1046 460 954 329 q 1201 672 1138 592 q 1333 806 1264 751 q 1471 861 1403 861 q 1558 824 1525 861 q 1590 719 1590 788 q 1557 586 1590 650 q 1477 470 1524 522 q 1356 347 1431 418 q 1235 223 1274 271 q 1196 128 1196 175 q 1217 82 1196 94 q 1276 69 1239 69 q 1463 138 1386 69 q 1589 294 1540 206 l 1601 289 q 1532 162 1578 231 q 1421 40 1486 93 q 1281 -14 1356 -14 z "},"n":{"ha":1667,"x_min":53,"x_max":1619,"o":"m 1318 -8 q 1228 22 1261 -8 q 1196 110 1196 53 q 1220 206 1196 160 q 1278 292 1244 253 q 1372 390 1313 331 q 1460 482 1429 447 q 1513 558 1492 517 q 1535 640 1535 599 q 1481 742 1535 707 q 1333 778 1426 778 q 1064 706 1199 778 q 816 536 929 635 q 550 283 703 438 q 387 125 447 181 q 268 32 326 69 q 163 -6 210 -6 q 95 25 119 -6 q 71 108 71 56 q 118 258 71 185 q 256 432 165 331 q 374 581 336 524 q 413 694 413 638 q 368 783 413 753 q 257 814 324 814 q 127 778 181 814 q 74 678 74 742 q 94 597 74 635 q 136 533 114 560 l 126 526 q 76 598 99 554 q 53 685 53 642 q 82 773 53 732 q 160 838 111 814 q 264 863 208 863 q 391 813 346 863 q 436 696 436 764 q 388 549 436 622 q 246 374 339 476 q 129 233 167 286 q 92 131 92 179 q 108 88 92 100 q 157 75 125 75 q 299 119 224 75 q 445 229 374 164 q 636 414 517 294 q 878 647 778 558 q 1094 799 978 736 q 1325 861 1210 861 q 1496 803 1436 861 q 1556 658 1556 744 q 1529 548 1556 600 q 1466 454 1503 496 q 1368 353 1429 413 q 1258 235 1294 282 q 1222 138 1222 188 q 1317 61 1222 61 q 1456 91 1376 61 q 1610 175 1535 121 l 1619 164 q 1515 74 1554 106 q 1424 17 1475 42 q 1318 -8 1372 -8 z "},"ń":{"ha":1667,"x_min":53,"x_max":1619,"o":"m 1318 -8 q 1228 22 1261 -8 q 1196 110 1196 53 q 1220 206 1196 160 q 1278 292 1244 253 q 1372 390 1313 331 q 1460 482 1429 447 q 1513 558 1492 517 q 1535 640 1535 599 q 1481 742 1535 707 q 1333 778 1426 778 q 1064 706 1199 778 q 816 536 929 635 q 550 283 703 438 q 387 125 447 181 q 268 32 326 69 q 163 -6 210 -6 q 95 25 119 -6 q 71 108 71 56 q 118 258 71 185 q 256 432 165 331 q 374 581 336 524 q 413 694 413 638 q 368 783 413 753 q 257 814 324 814 q 127 778 181 814 q 74 678 74 742 q 94 597 74 635 q 136 533 114 560 l 126 526 q 76 598 99 554 q 53 685 53 642 q 82 773 53 732 q 160 838 111 814 q 264 863 208 863 q 391 813 346 863 q 436 696 436 764 q 388 549 436 622 q 246 374 339 476 q 129 233 167 286 q 92 131 92 179 q 108 88 92 100 q 157 75 125 75 q 299 119 224 75 q 445 229 374 164 q 636 414 517 294 q 878 647 778 558 q 1094 799 978 736 q 1325 861 1210 861 q 1496 803 1436 861 q 1556 658 1556 744 q 1529 548 1556 600 q 1466 454 1503 496 q 1368 353 1429 413 q 1258 235 1294 282 q 1222 138 1222 188 q 1317 61 1222 61 q 1456 91 1376 61 q 1610 175 1535 121 l 1619 164 q 1515 74 1554 106 q 1424 17 1475 42 q 1318 -8 1372 -8 z "},"ň":{"ha":1667,"x_min":53,"x_max":1650,"o":"m 1318 -8 q 1228 22 1261 -8 q 1196 110 1196 53 q 1220 206 1196 160 q 1278 292 1244 253 q 1372 390 1313 331 q 1460 482 1429 447 q 1513 558 1492 517 q 1535 640 1535 599 q 1481 742 1535 707 q 1333 778 1426 778 q 1064 706 1199 778 q 816 536 929 635 q 550 283 703 438 q 387 125 447 181 q 268 32 326 69 q 163 -6 210 -6 q 95 25 119 -6 q 71 108 71 56 q 118 258 71 185 q 256 432 165 331 q 374 581 336 524 q 413 694 413 638 q 368 783 413 753 q 257 814 324 814 q 127 778 181 814 q 74 678 74 742 q 94 597 74 635 q 136 533 114 560 l 126 526 q 76 598 99 554 q 53 685 53 642 q 82 773 53 732 q 160 838 111 814 q 264 863 208 863 q 391 813 346 863 q 436 696 436 764 q 388 549 436 622 q 246 374 339 476 q 129 233 167 286 q 92 131 92 179 q 108 88 92 100 q 157 75 125 75 q 299 119 224 75 q 445 229 374 164 q 636 414 517 294 q 878 647 778 558 q 1094 799 978 736 q 1325 861 1210 861 q 1496 803 1436 861 q 1556 658 1556 744 q 1529 548 1556 600 q 1466 454 1503 496 q 1368 353 1429 413 q 1258 235 1294 282 q 1222 138 1222 188 q 1317 61 1222 61 q 1456 91 1376 61 q 1610 175 1535 121 l 1619 164 q 1515 74 1554 106 q 1424 17 1475 42 q 1318 -8 1372 -8 z "},"ņ":{"ha":1667,"x_min":53,"x_max":1619,"o":"m 1318 -8 q 1228 22 1261 -8 q 1196 110 1196 53 q 1220 206 1196 160 q 1278 292 1244 253 q 1372 390 1313 331 q 1460 482 1429 447 q 1513 558 1492 517 q 1535 640 1535 599 q 1481 742 1535 707 q 1333 778 1426 778 q 1064 706 1199 778 q 816 536 929 635 q 550 283 703 438 q 387 125 447 181 q 268 32 326 69 q 163 -6 210 -6 q 95 25 119 -6 q 71 108 71 56 q 118 258 71 185 q 256 432 165 331 q 374 581 336 524 q 413 694 413 638 q 368 783 413 753 q 257 814 324 814 q 127 778 181 814 q 74 678 74 742 q 94 597 74 635 q 136 533 114 560 l 126 526 q 76 598 99 554 q 53 685 53 642 q 82 773 53 732 q 160 838 111 814 q 264 863 208 863 q 391 813 346 863 q 436 696 436 764 q 388 549 436 622 q 246 374 339 476 q 129 233 167 286 q 92 131 92 179 q 108 88 92 100 q 157 75 125 75 q 299 119 224 75 q 445 229 374 164 q 636 414 517 294 q 878 647 778 558 q 1094 799 978 736 q 1325 861 1210 861 q 1496 803 1436 861 q 1556 658 1556 744 q 1529 548 1556 600 q 1466 454 1503 496 q 1368 353 1429 413 q 1258 235 1294 282 q 1222 138 1222 188 q 1317 61 1222 61 q 1456 91 1376 61 q 1610 175 1535 121 l 1619 164 q 1515 74 1554 106 q 1424 17 1475 42 q 1318 -8 1372 -8 m 624 4 q 772 29 726 14 q 818 74 818 44 q 782 106 818 97 l 788 126 q 840 113 822 126 q 858 78 858 100 q 626 -10 858 4 l 624 4 z "},"ŋ":{"ha":1667,"x_min":53,"x_max":1625,"o":"m 1229 -18 q 1086 21 1151 -18 q 946 126 1021 60 l 956 138 q 1086 75 1013 99 q 1224 51 1160 51 q 1433 128 1347 51 q 1562 315 1519 204 q 1604 526 1604 426 q 1539 723 1604 668 q 1356 778 1474 778 q 1077 706 1215 778 q 824 535 939 633 q 551 281 710 436 q 317 64 404 133 q 163 -6 231 -6 q 95 25 119 -6 q 71 108 71 56 q 118 258 71 185 q 256 432 165 331 q 374 581 336 524 q 413 694 413 638 q 368 783 413 753 q 257 814 324 814 q 127 778 181 814 q 74 678 74 742 q 94 597 74 635 q 136 533 114 560 l 126 526 q 76 598 99 554 q 53 685 53 642 q 82 773 53 732 q 160 838 111 814 q 264 863 208 863 q 391 813 346 863 q 436 696 436 764 q 388 549 436 622 q 246 374 339 476 q 129 233 167 286 q 92 131 92 179 q 108 88 92 100 q 157 75 125 75 q 299 119 224 75 q 447 229 375 164 q 638 411 519 294 q 886 646 785 557 q 1106 798 988 735 q 1344 861 1225 861 q 1553 784 1481 861 q 1625 547 1625 707 q 1576 290 1625 422 q 1438 70 1528 158 q 1229 -18 1347 -18 z "},"ñ":{"ha":1667,"x_min":53,"x_max":1619,"o":"m 1318 -8 q 1228 22 1261 -8 q 1196 110 1196 53 q 1220 206 1196 160 q 1278 292 1244 253 q 1372 390 1313 331 q 1460 482 1429 447 q 1513 558 1492 517 q 1535 640 1535 599 q 1481 742 1535 707 q 1333 778 1426 778 q 1064 706 1199 778 q 816 536 929 635 q 550 283 703 438 q 387 125 447 181 q 268 32 326 69 q 163 -6 210 -6 q 95 25 119 -6 q 71 108 71 56 q 118 258 71 185 q 256 432 165 331 q 374 581 336 524 q 413 694 413 638 q 368 783 413 753 q 257 814 324 814 q 127 778 181 814 q 74 678 74 742 q 94 597 74 635 q 136 533 114 560 l 126 526 q 76 598 99 554 q 53 685 53 642 q 82 773 53 732 q 160 838 111 814 q 264 863 208 863 q 391 813 346 863 q 436 696 436 764 q 388 549 436 622 q 246 374 339 476 q 129 233 167 286 q 92 131 92 179 q 108 88 92 100 q 157 75 125 75 q 299 119 224 75 q 445 229 374 164 q 636 414 517 294 q 878 647 778 558 q 1094 799 978 736 q 1325 861 1210 861 q 1496 803 1436 861 q 1556 658 1556 744 q 1529 548 1556 600 q 1466 454 1503 496 q 1368 353 1429 413 q 1258 235 1294 282 q 1222 138 1222 188 q 1317 61 1222 61 q 1456 91 1376 61 q 1610 175 1535 121 l 1619 164 q 1515 74 1554 106 q 1424 17 1475 42 q 1318 -8 1372 -8 m 1046 907 q 958 916 993 907 q 878 944 922 925 q 808 970 835 963 q 742 978 781 978 q 625 960 681 978 q 532 917 569 942 l 522 931 q 635 990 575 965 q 742 1014 694 1014 q 808 1007 778 1014 q 876 988 838 1000 q 960 965 922 972 q 1047 957 997 957 q 1196 974 1129 957 q 1303 1014 1263 990 l 1311 999 q 1277 976 1310 999 q 1176 931 1244 954 q 1046 907 1108 907 z "},"o":{"ha":1667,"x_min":53,"x_max":1661,"o":"m 1661 506 q 1450 371 1558 419 q 1269 183 1386 268 q 985 45 1151 97 q 619 -7 818 -7 q 319 33 447 -7 q 122 147 192 72 q 53 321 53 221 q 167 580 53 454 q 466 783 282 706 q 844 861 650 861 q 1103 822 979 861 q 1201 831 1153 831 q 1376 793 1306 831 q 1479 696 1446 756 q 1513 568 1513 636 q 1471 408 1513 490 q 1653 517 1554 447 l 1661 506 m 600 69 q 934 106 776 69 q 1213 206 1092 142 q 1406 351 1333 269 q 1135 300 1271 300 q 949 322 1043 300 q 792 394 856 344 q 729 522 729 444 q 802 678 729 606 q 988 792 875 750 l 876 794 q 490 728 676 794 q 188 553 303 661 q 74 329 74 446 q 222 133 74 197 q 600 69 369 69 m 1492 557 q 1399 719 1492 671 q 1175 768 1307 768 q 965 736 1063 768 q 809 649 868 704 q 750 525 750 593 q 860 383 750 431 q 1125 335 971 335 q 1438 394 1294 335 q 1492 557 1492 475 z "},"ó":{"ha":1667,"x_min":53,"x_max":1661,"o":"m 1661 506 q 1450 371 1558 419 q 1269 183 1386 268 q 985 45 1151 97 q 619 -7 818 -7 q 319 33 447 -7 q 122 147 192 72 q 53 321 53 221 q 167 580 53 454 q 466 783 282 706 q 844 861 650 861 q 1103 822 979 861 q 1201 831 1153 831 q 1376 793 1306 831 q 1479 696 1446 756 q 1513 568 1513 636 q 1471 408 1513 490 q 1653 517 1554 447 l 1661 506 m 600 69 q 934 106 776 69 q 1213 206 1092 142 q 1406 351 1333 269 q 1135 300 1271 300 q 949 322 1043 300 q 792 394 856 344 q 729 522 729 444 q 802 678 729 606 q 988 792 875 750 l 876 794 q 490 728 676 794 q 188 553 303 661 q 74 329 74 446 q 222 133 74 197 q 600 69 369 69 m 1492 557 q 1399 719 1492 671 q 1175 768 1307 768 q 965 736 1063 768 q 809 649 868 704 q 750 525 750 593 q 860 383 750 431 q 1125 335 971 335 q 1438 394 1294 335 q 1492 557 1492 475 m 889 938 q 1193 963 1060 947 q 1397 993 1326 978 l 1403 981 q 1265 928 1335 943 q 1103 914 1196 914 q 889 924 1035 914 l 889 938 z "},"ô":{"ha":1667,"x_min":53,"x_max":1661,"o":"m 1661 506 q 1450 371 1558 419 q 1269 183 1386 268 q 985 45 1151 97 q 619 -7 818 -7 q 319 33 447 -7 q 122 147 192 72 q 53 321 53 221 q 167 580 53 454 q 466 783 282 706 q 844 861 650 861 q 1103 822 979 861 q 1201 831 1153 831 q 1376 793 1306 831 q 1479 696 1446 756 q 1513 568 1513 636 q 1471 408 1513 490 q 1653 517 1554 447 l 1661 506 m 600 69 q 934 106 776 69 q 1213 206 1092 142 q 1406 351 1333 269 q 1135 300 1271 300 q 949 322 1043 300 q 792 394 856 344 q 729 522 729 444 q 802 678 729 606 q 988 792 875 750 l 876 794 q 490 728 676 794 q 188 553 303 661 q 74 329 74 446 q 222 133 74 197 q 600 69 369 69 m 1492 557 q 1399 719 1492 671 q 1175 768 1307 768 q 965 736 1063 768 q 809 649 868 704 q 750 525 750 593 q 860 383 750 431 q 1125 335 971 335 q 1438 394 1294 335 q 1492 557 1492 475 m 778 935 q 882 943 835 935 q 999 968 929 951 q 1086 988 1056 982 q 1147 993 1117 993 q 1219 985 1178 993 q 1300 968 1260 978 q 1517 935 1431 935 l 1517 921 q 1461 917 1492 917 q 1258 938 1396 917 q 1147 951 1182 951 q 1019 936 1111 951 q 945 926 1007 935 q 833 917 883 917 q 778 921 803 917 l 778 935 z "},"ö":{"ha":1667,"x_min":53,"x_max":1661,"o":"m 1661 506 q 1450 371 1558 419 q 1269 183 1386 268 q 985 45 1151 97 q 619 -7 818 -7 q 319 33 447 -7 q 122 147 192 72 q 53 321 53 221 q 167 580 53 454 q 466 783 282 706 q 844 861 650 861 q 1103 822 979 861 q 1201 831 1153 831 q 1376 793 1306 831 q 1479 696 1446 756 q 1513 568 1513 636 q 1471 408 1513 490 q 1653 517 1554 447 l 1661 506 m 600 69 q 934 106 776 69 q 1213 206 1092 142 q 1406 351 1333 269 q 1135 300 1271 300 q 949 322 1043 300 q 792 394 856 344 q 729 522 729 444 q 802 678 729 606 q 988 792 875 750 l 876 794 q 490 728 676 794 q 188 553 303 661 q 74 329 74 446 q 222 133 74 197 q 600 69 369 69 m 1492 557 q 1399 719 1492 671 q 1175 768 1307 768 q 965 736 1063 768 q 809 649 868 704 q 750 525 750 593 q 860 383 750 431 q 1125 335 971 335 q 1438 394 1294 335 q 1492 557 1492 475 m 861 888 q 809 900 828 888 q 790 939 790 913 q 811 993 790 965 l 825 990 l 825 978 q 888 931 825 931 q 947 939 918 931 q 1021 965 975 947 l 1028 953 q 861 888 929 888 m 1338 888 q 1285 900 1304 888 q 1267 939 1267 913 q 1288 993 1267 965 l 1301 990 l 1301 978 q 1317 943 1301 956 q 1364 931 1333 931 q 1423 939 1394 931 q 1497 965 1451 947 l 1504 953 q 1338 888 1406 888 z "},"ò":{"ha":1667,"x_min":53,"x_max":1661,"o":"m 1661 506 q 1450 371 1558 419 q 1269 183 1386 268 q 985 45 1151 97 q 619 -7 818 -7 q 319 33 447 -7 q 122 147 192 72 q 53 321 53 221 q 167 580 53 454 q 466 783 282 706 q 844 861 650 861 q 1103 822 979 861 q 1201 831 1153 831 q 1376 793 1306 831 q 1479 696 1446 756 q 1513 568 1513 636 q 1471 408 1513 490 q 1653 517 1554 447 l 1661 506 m 600 69 q 934 106 776 69 q 1213 206 1092 142 q 1406 351 1333 269 q 1135 300 1271 300 q 949 322 1043 300 q 792 394 856 344 q 729 522 729 444 q 802 678 729 606 q 988 792 875 750 l 876 794 q 490 728 676 794 q 188 553 303 661 q 74 329 74 446 q 222 133 74 197 q 600 69 369 69 m 1492 557 q 1399 719 1492 671 q 1175 768 1307 768 q 965 736 1063 768 q 809 649 868 704 q 750 525 750 593 q 860 383 750 431 q 1125 335 971 335 q 1438 394 1294 335 q 1492 557 1492 475 m 1400 924 q 1186 914 1254 914 q 1024 928 1093 914 q 886 981 954 943 l 892 993 q 1096 963 963 978 q 1400 938 1229 947 l 1400 924 z "},"ő":{"ha":1667,"x_min":53,"x_max":1661,"o":"m 1661 506 q 1450 371 1558 419 q 1269 183 1386 268 q 985 45 1151 97 q 619 -7 818 -7 q 319 33 447 -7 q 122 147 192 72 q 53 321 53 221 q 167 580 53 454 q 466 783 282 706 q 844 861 650 861 q 1103 822 979 861 q 1201 831 1153 831 q 1376 793 1306 831 q 1479 696 1446 756 q 1513 568 1513 636 q 1471 408 1513 490 q 1653 517 1554 447 l 1661 506 m 600 69 q 934 106 776 69 q 1213 206 1092 142 q 1406 351 1333 269 q 1135 300 1271 300 q 949 322 1043 300 q 792 394 856 344 q 729 522 729 444 q 802 678 729 606 q 988 792 875 750 l 876 794 q 490 728 676 794 q 188 553 303 661 q 74 329 74 446 q 222 133 74 197 q 600 69 369 69 m 1492 557 q 1399 719 1492 671 q 1175 768 1307 768 q 965 736 1063 768 q 809 649 868 704 q 750 525 750 593 q 860 383 750 431 q 1125 335 971 335 q 1438 394 1294 335 q 1492 557 1492 475 z "},"ō":{"ha":1667,"x_min":53,"x_max":1661,"o":"m 1661 506 q 1450 371 1558 419 q 1269 183 1386 268 q 985 45 1151 97 q 619 -7 818 -7 q 319 33 447 -7 q 122 147 192 72 q 53 321 53 221 q 167 580 53 454 q 466 783 282 706 q 844 861 650 861 q 1103 822 979 861 q 1201 831 1153 831 q 1376 793 1306 831 q 1479 696 1446 756 q 1513 568 1513 636 q 1471 408 1513 490 q 1653 517 1554 447 l 1661 506 m 600 69 q 934 106 776 69 q 1213 206 1092 142 q 1406 351 1333 269 q 1135 300 1271 300 q 949 322 1043 300 q 792 394 856 344 q 729 522 729 444 q 802 678 729 606 q 988 792 875 750 l 876 794 q 490 728 676 794 q 188 553 303 661 q 74 329 74 446 q 222 133 74 197 q 600 69 369 69 m 1492 557 q 1399 719 1492 671 q 1175 768 1307 768 q 965 736 1063 768 q 809 649 868 704 q 750 525 750 593 q 860 383 750 431 q 1125 335 971 335 q 1438 394 1294 335 q 1492 557 1492 475 m 1172 935 q 851 953 1076 935 l 851 967 q 1267 982 1149 982 q 1443 975 1321 982 l 1446 961 q 1297 940 1358 946 q 1172 935 1236 935 z "},"ø":{"ha":1667,"x_min":13,"x_max":1596,"o":"m 1368 804 q 1534 697 1472 769 q 1596 533 1596 625 q 1478 280 1596 406 q 1153 74 1361 154 q 688 -7 944 -7 q 274 75 435 -7 q 17 -8 153 28 l 13 8 q 243 93 147 53 q 133 200 171 138 q 94 336 94 263 q 205 590 94 468 q 495 786 315 711 q 869 861 675 861 q 1118 826 1006 861 q 1194 831 1156 831 q 1342 811 1271 831 q 1507 986 1439 907 l 1521 972 q 1485 928 1519 969 q 1368 804 1450 888 m 115 344 q 167 213 115 268 q 311 122 218 157 q 862 424 617 256 q 1289 763 1107 593 q 1179 768 1238 768 q 908 719 1010 768 q 806 579 806 671 q 814 538 806 556 q 843 501 822 521 l 835 489 q 785 583 785 524 q 840 708 785 653 q 988 796 896 764 q 896 799 921 799 q 518 734 699 799 q 226 564 338 669 q 115 344 115 458 m 672 69 q 1118 132 910 69 q 1451 302 1326 194 q 1575 538 1575 410 q 1503 688 1575 636 q 1321 758 1432 740 q 894 406 1138 579 q 356 108 651 232 q 672 69 486 69 z "},"õ":{"ha":1667,"x_min":53,"x_max":1661,"o":"m 1661 506 q 1450 371 1558 419 q 1269 183 1386 268 q 985 45 1151 97 q 619 -7 818 -7 q 319 33 447 -7 q 122 147 192 72 q 53 321 53 221 q 167 580 53 454 q 466 783 282 706 q 844 861 650 861 q 1103 822 979 861 q 1201 831 1153 831 q 1376 793 1306 831 q 1479 696 1446 756 q 1513 568 1513 636 q 1471 408 1513 490 q 1653 517 1554 447 l 1661 506 m 600 69 q 934 106 776 69 q 1213 206 1092 142 q 1406 351 1333 269 q 1135 300 1271 300 q 949 322 1043 300 q 792 394 856 344 q 729 522 729 444 q 802 678 729 606 q 988 792 875 750 l 876 794 q 490 728 676 794 q 188 553 303 661 q 74 329 74 446 q 222 133 74 197 q 600 69 369 69 m 1492 557 q 1399 719 1492 671 q 1175 768 1307 768 q 965 736 1063 768 q 809 649 868 704 q 750 525 750 593 q 860 383 750 431 q 1125 335 971 335 q 1438 394 1294 335 q 1492 557 1492 475 m 1269 886 q 1181 895 1217 886 q 1101 924 1146 904 q 1031 949 1058 942 q 965 957 1004 957 q 849 939 904 957 q 756 896 793 921 l 746 910 q 858 969 799 944 q 965 993 918 993 q 1031 986 1001 993 q 1100 967 1061 979 q 1183 944 1146 951 q 1271 936 1221 936 q 1419 953 1353 936 q 1526 993 1486 969 l 1535 978 q 1501 956 1533 978 q 1400 910 1468 933 q 1269 886 1332 886 z "}}}
